SplineFontDB: 3.2
FontName: RetraConsole-Regular
FullName: RetraConsole Regular
FamilyName: RetraConsole
Weight: Book
Copyright: (c) 2023, Bryndan Meyerholt
Version: 1.005
ItalicAngle: 0
UnderlinePosition: -100
UnderlineWidth: 50
Ascent: 1400
Descent: 200
InvalidEm: 0
sfntRevision: 0x00010147
LayerCount: 2
Layer: 0 1 "Back" 1
Layer: 1 1 "Fore" 0
XUID: [1021 323 -2124153901 25480]
StyleMap: 0x0040
FSType: 0
OS2Version: 4
OS2_WeightWidthSlopeOnly: 0
OS2_UseTypoMetrics: 1
CreationTime: 1685293224
ModificationTime: 1753051077
PfmFamily: 17
TTFWeight: 400
TTFWidth: 5
LineGap: 0
VLineGap: 0
Panose: 2 0 5 3 0 0 0 0 0 0
OS2TypoAscent: 1400
OS2TypoAOffset: 0
OS2TypoDescent: -200
OS2TypoDOffset: 0
OS2TypoLinegap: 0
OS2WinAscent: 1400
OS2WinAOffset: 0
OS2WinDescent: 200
OS2WinDOffset: 0
HheadAscent: 1400
HheadAOffset: 0
HheadDescent: -200
HheadDOffset: 0
OS2SubXSize: 1040
OS2SubYSize: 1120
OS2SubXOff: 0
OS2SubYOff: 224
OS2SupXSize: 1040
OS2SupYSize: 1120
OS2SupXOff: 0
OS2SupYOff: 768
OS2StrikeYSize: 79
OS2StrikeYPos: 414
OS2CapHeight: 1400
OS2XHeight: 1000
OS2Vendor: 'PfEd'
OS2CodePages: e000009f.dfd70000
OS2UnicodeRanges: a00002bf.520078fb.02040000.00000000
Lookup: 1 0 0 "'locl' Localized Forms in Latin lookup 0" { "'locl' Localized Forms in Latin lookup 0 subtable"  } ['locl' ('latn' <'AZE ' 'CRT ' 'KAZ ' 'TAT ' 'TRK ' > ) ]
Lookup: 1 0 0 "'locl' Localized Forms in Latin lookup 1" { "'locl' Localized Forms in Latin lookup 1 subtable"  } ['locl' ('latn' <'LTH ' > ) ]
Lookup: 1 0 0 "'locl' Localized Forms in Latin lookup 2" { "'locl' Localized Forms in Latin lookup 2 subtable"  } ['locl' ('latn' <'MOL ' 'ROM ' > ) ]
Lookup: 1 0 0 "'locl' Localized Forms in Cyrillic lookup 3" { "'locl' Localized Forms in Cyrillic lookup 3 subtable"  } ['locl' ('cyrl' <'MKD ' 'SRB ' > ) ]
Lookup: 1 0 0 "'locl' Localized Forms in Cyrillic lookup 4" { "'locl' Localized Forms in Cyrillic lookup 4 subtable"  } ['locl' ('cyrl' <'BGR ' > ) ]

StartChar: .notdef
Encoding: 1114112 -1 0
Width: 1600
GlyphClass: 1
Flags: W
LayerCount: 2
Fore
SplineSet
400 0 m 1,0,-1
 400 1400 l 1,1,-1
 1200 1400 l 1,2,-1
 1200 0 l 1,3,-1
 400 0 l 1,0,-1
500 100 m 1,4,-1
 1100 100 l 1,5,-1
 1100 1300 l 1,6,-1
 500 1300 l 1,7,-1
 500 100 l 1,4,-1
EndSplineSet
EndChar

StartChar: exclam
Encoding: 33 33 4
Width: 1600
GlyphClass: 2
Flags: W
LayerCount: 2
Fore
SplineSet
700 0 m 1,0,-1
 700 200 l 1,1,-1
 900 200 l 1,2,-1
 900 0 l 1,3,-1
 700 0 l 1,0,-1
700 400 m 1,4,-1
 700 1400 l 1,5,-1
 900 1400 l 1,6,-1
 900 400 l 1,7,-1
 700 400 l 1,4,-1
EndSplineSet
EndChar

StartChar: quotedbl
Encoding: 34 34 5
Width: 1600
GlyphClass: 2
Flags: W
LayerCount: 2
Fore
SplineSet
400 1000 m 1,0,-1
 400 1400 l 1,1,-1
 600 1400 l 1,2,-1
 600 1000 l 1,3,-1
 400 1000 l 1,0,-1
1000 1000 m 1,4,-1
 1000 1400 l 1,5,-1
 1200 1400 l 1,6,-1
 1200 1000 l 1,7,-1
 1000 1000 l 1,4,-1
EndSplineSet
EndChar

StartChar: numbersign
Encoding: 35 35 6
Width: 1600
GlyphClass: 2
Flags: W
LayerCount: 2
Fore
SplineSet
200 300 m 1,0,-1
 243 500 l 1,1,-1
 457 500 l 1,2,-1
 543 900 l 1,3,-1
 329 900 l 1,4,-1
 372 1100 l 1,5,-1
 586 1100 l 1,6,-1
 650 1400 l 1,7,-1
 850 1400 l 1,8,-1
 786 1100 l 1,9,-1
 986 1100 l 1,10,-1
 1050 1400 l 1,11,-1
 1250 1400 l 1,12,-1
 1186 1100 l 1,13,-1
 1400 1100 l 1,14,-1
 1357 900 l 1,15,-1
 1143 900 l 1,16,-1
 1057 500 l 1,17,-1
 1271 500 l 1,18,-1
 1228 300 l 1,19,-1
 1014 300 l 1,20,-1
 950 0 l 1,21,-1
 750 0 l 1,22,-1
 814 300 l 1,23,-1
 614 300 l 1,24,-1
 550 0 l 1,25,-1
 350 0 l 1,26,-1
 414 300 l 1,27,-1
 200 300 l 1,0,-1
657 500 m 1,28,-1
 857 500 l 1,29,-1
 943 900 l 1,30,-1
 743 900 l 1,31,-1
 657 500 l 1,28,-1
EndSplineSet
EndChar

StartChar: dollar
Encoding: 36 36 7
Width: 1600
GlyphClass: 2
Flags: W
LayerCount: 2
Fore
SplineSet
200 200 m 1,0,-1
 200 400 l 1,1,-1
 700 400 l 1,2,-1
 700 600 l 1,3,-1
 400 600 l 1,4,-1
 200 800 l 1,5,-1
 200 1000 l 1,6,-1
 400 1200 l 1,7,-1
 700 1200 l 1,8,-1
 700 1400 l 1,9,-1
 900 1400 l 1,10,-1
 900 1200 l 1,11,-1
 1400 1200 l 1,12,-1
 1400 1000 l 1,13,-1
 900 1000 l 1,14,-1
 900 800 l 1,15,-1
 1200 800 l 1,16,-1
 1400 600 l 1,17,-1
 1400 400 l 1,18,-1
 1200 200 l 1,19,-1
 900 200 l 1,20,-1
 900 0 l 1,21,-1
 700 0 l 1,22,-1
 700 200 l 1,23,-1
 200 200 l 1,0,-1
400 900 m 1,24,-1
 500 800 l 1,25,-1
 700 800 l 1,26,-1
 700 1000 l 1,27,-1
 500 1000 l 1,28,-1
 400 900 l 1,24,-1
900 400 m 1,29,-1
 1100 400 l 1,30,-1
 1200 500 l 1,31,-1
 1100 600 l 1,32,-1
 900 600 l 1,33,-1
 900 400 l 1,29,-1
EndSplineSet
EndChar

StartChar: percent
Encoding: 37 37 8
Width: 1600
GlyphClass: 2
Flags: W
LayerCount: 2
Fore
SplineSet
200 1200 m 1,0,-1
 200 1400 l 1,1,-1
 400 1400 l 1,2,-1
 400 1200 l 1,3,-1
 200 1200 l 1,0,-1
400 0 m 1,4,-1
 1000 1400 l 1,5,-1
 1200 1400 l 1,6,-1
 600 0 l 1,7,-1
 400 0 l 1,4,-1
1200 0 m 1,8,-1
 1200 200 l 1,9,-1
 1400 200 l 1,10,-1
 1400 0 l 1,11,-1
 1200 0 l 1,8,-1
EndSplineSet
EndChar

StartChar: ampersand
Encoding: 38 38 9
Width: 1600
GlyphClass: 2
Flags: W
LayerCount: 2
Fore
SplineSet
200 200 m 1,0,-1
 200 500 l 1,1,-1
 400 700 l 1,2,-1
 200 900 l 1,3,-1
 200 1200 l 1,4,-1
 400 1400 l 1,5,-1
 700 1400 l 1,6,-1
 900 1200 l 1,7,-1
 900 900 l 1,8,-1
 700 700 l 1,9,-1
 950 450 l 1,10,-1
 1200 700 l 1,11,-1
 1200 800 l 1,12,-1
 1400 800 l 1,13,-1
 1400 600 l 1,14,-1
 1100 300 l 1,15,-1
 1200 200 l 1,16,-1
 1400 200 l 1,17,-1
 1400 0 l 1,18,-1
 1100 0 l 1,19,-1
 950 150 l 1,20,-1
 800 0 l 1,21,-1
 400 0 l 1,22,-1
 200 200 l 1,0,-1
400 300 m 1,23,-1
 500 200 l 1,24,-1
 700 200 l 1,25,-1
 800 300 l 1,26,-1
 550 550 l 1,27,-1
 400 400 l 1,28,-1
 400 300 l 1,23,-1
400 1000 m 1,29,-1
 550 850 l 1,30,-1
 700 1000 l 1,31,-1
 700 1100 l 1,32,-1
 600 1200 l 1,33,-1
 500 1200 l 1,34,-1
 400 1100 l 1,35,-1
 400 1000 l 1,29,-1
EndSplineSet
EndChar

StartChar: quotesingle
Encoding: 39 39 10
Width: 1600
GlyphClass: 2
Flags: W
LayerCount: 2
Fore
SplineSet
700 1000 m 1,0,-1
 700 1400 l 1,1,-1
 900 1400 l 1,2,-1
 900 1000 l 1,3,-1
 700 1000 l 1,0,-1
EndSplineSet
EndChar

StartChar: parenleft
Encoding: 40 40 11
Width: 1600
GlyphClass: 2
Flags: W
LayerCount: 2
Fore
SplineSet
500 200 m 1,0,-1
 500 1000 l 1,1,-1
 900 1400 l 1,2,-1
 1100 1400 l 1,3,-1
 1100 1300 l 1,4,-1
 700 900 l 1,5,-1
 700 300 l 1,6,-1
 1100 -100 l 1,7,-1
 1100 -200 l 1,8,-1
 900 -200 l 1,9,-1
 500 200 l 1,0,-1
EndSplineSet
EndChar

StartChar: parenright
Encoding: 41 41 12
Width: 1600
GlyphClass: 2
Flags: W
LayerCount: 2
Fore
SplineSet
500 -100 m 1,0,-1
 900 300 l 1,1,-1
 900 900 l 1,2,-1
 500 1300 l 1,3,-1
 500 1400 l 1,4,-1
 700 1400 l 1,5,-1
 1100 1000 l 1,6,-1
 1100 200 l 1,7,-1
 700 -200 l 1,8,-1
 500 -200 l 1,9,-1
 500 -100 l 1,0,-1
EndSplineSet
EndChar

StartChar: asterisk
Encoding: 42 42 13
Width: 1600
GlyphClass: 2
Flags: W
LayerCount: 2
Fore
SplineSet
200 600 m 1,0,-1
 200 800 l 1,1,-1
 640 800 l 1,2,-1
 400 1200 l 1,3,-1
 600 1200 l 1,4,-1
 800 850 l 1,5,-1
 1000 1200 l 1,6,-1
 1200 1200 l 1,7,-1
 960 800 l 1,8,-1
 1400 800 l 1,9,-1
 1400 600 l 1,10,-1
 960 600 l 1,11,-1
 1200 200 l 1,12,-1
 1000 200 l 1,13,-1
 800 550 l 1,14,-1
 600 200 l 1,15,-1
 400 200 l 1,16,-1
 640 600 l 1,17,-1
 200 600 l 1,0,-1
EndSplineSet
EndChar

StartChar: plus
Encoding: 43 43 14
Width: 1600
GlyphClass: 2
Flags: W
LayerCount: 2
Fore
SplineSet
500 600 m 1,0,-1
 500 800 l 1,1,-1
 700 800 l 1,2,-1
 700 1000 l 1,3,-1
 900 1000 l 1,4,-1
 900 800 l 1,5,-1
 1100 800 l 1,6,-1
 1100 600 l 1,7,-1
 900 600 l 1,8,-1
 900 400 l 1,9,-1
 700 400 l 1,10,-1
 700 600 l 1,11,-1
 500 600 l 1,0,-1
EndSplineSet
EndChar

StartChar: comma
Encoding: 44 44 15
Width: 1600
GlyphClass: 2
Flags: W
LayerCount: 2
Fore
SplineSet
700 0 m 1,0,-1
 700 200 l 1,1,-1
 900 200 l 1,2,-1
 900 0 l 1,3,-1
 830 -200 l 1,4,-1
 700 -200 l 1,5,-1
 770 0 l 1,6,-1
 700 0 l 1,0,-1
EndSplineSet
EndChar

StartChar: hyphen
Encoding: 45 45 16
Width: 1600
GlyphClass: 2
Flags: W
LayerCount: 2
Fore
SplineSet
500 600 m 1,0,-1
 500 800 l 1,1,-1
 1100 800 l 1,2,-1
 1100 600 l 1,3,-1
 500 600 l 1,0,-1
EndSplineSet
EndChar

StartChar: period
Encoding: 46 46 17
Width: 1600
GlyphClass: 2
Flags: W
LayerCount: 2
Fore
SplineSet
700 0 m 1,0,-1
 700 200 l 1,1,-1
 900 200 l 1,2,-1
 900 0 l 1,3,-1
 700 0 l 1,0,-1
EndSplineSet
EndChar

StartChar: slash
Encoding: 47 47 18
Width: 1600
GlyphClass: 2
Flags: W
LayerCount: 2
Fore
SplineSet
400 0 m 1,0,-1
 1000 1400 l 1,1,-1
 1200 1400 l 1,2,-1
 600 0 l 1,3,-1
 400 0 l 1,0,-1
EndSplineSet
EndChar

StartChar: zero
Encoding: 48 48 19
Width: 1600
GlyphClass: 2
Flags: W
LayerCount: 2
Fore
SplineSet
400 200 m 1,0,-1
 400 1200 l 1,1,-1
 600 1400 l 1,2,-1
 1000 1400 l 1,3,-1
 1200 1200 l 1,4,-1
 1200 200 l 1,5,-1
 1000 0 l 1,6,-1
 600 0 l 1,7,-1
 400 200 l 1,0,-1
600 300 m 1,8,-1
 700 200 l 1,9,-1
 900 200 l 1,10,-1
 600 950 l 1,11,-1
 600 300 l 1,8,-1
700 1200 m 1,12,-1
 1000 450 l 1,13,-1
 1000 1100 l 1,14,-1
 900 1200 l 1,15,-1
 700 1200 l 1,12,-1
EndSplineSet
EndChar

StartChar: one
Encoding: 49 49 20
Width: 1600
GlyphClass: 2
Flags: W
LayerCount: 2
Fore
SplineSet
400 0 m 1,0,-1
 400 200 l 1,1,-1
 700 200 l 1,2,-1
 700 1200 l 1,3,-1
 400 1000 l 1,4,-1
 400 1200 l 1,5,-1
 700 1400 l 1,6,-1
 900 1400 l 1,7,-1
 900 200 l 1,8,-1
 1200 200 l 1,9,-1
 1200 0 l 1,10,-1
 400 0 l 1,0,-1
EndSplineSet
EndChar

StartChar: two
Encoding: 50 50 21
Width: 1600
GlyphClass: 2
Flags: W
LayerCount: 2
Fore
SplineSet
400 0 m 1,0,-1
 400 300 l 1,1,-1
 1000 900 l 1,2,-1
 1000 1100 l 1,3,-1
 900 1200 l 1,4,-1
 700 1200 l 1,5,-1
 600 1100 l 1,6,-1
 400 1100 l 1,7,-1
 400 1200 l 1,8,-1
 600 1400 l 1,9,-1
 1000 1400 l 1,10,-1
 1200 1200 l 1,11,-1
 1200 800 l 1,12,-1
 600 200 l 1,13,-1
 1200 200 l 1,14,-1
 1200 0 l 1,15,-1
 400 0 l 1,0,-1
EndSplineSet
EndChar

StartChar: three
Encoding: 51 51 22
Width: 1600
GlyphClass: 2
Flags: W
LayerCount: 2
Fore
SplineSet
400 200 m 1,0,-1
 400 300 l 1,1,-1
 600 300 l 1,2,-1
 700 200 l 1,3,-1
 900 200 l 1,4,-1
 1000 300 l 1,5,-1
 1000 500 l 1,6,-1
 900 600 l 1,7,-1
 600 600 l 1,8,-1
 600 800 l 1,9,-1
 900 800 l 1,10,-1
 1000 900 l 1,11,-1
 1000 1100 l 1,12,-1
 900 1200 l 1,13,-1
 700 1200 l 1,14,-1
 600 1100 l 1,15,-1
 400 1100 l 1,16,-1
 400 1200 l 1,17,-1
 600 1400 l 1,18,-1
 1000 1400 l 1,19,-1
 1200 1200 l 1,20,-1
 1200 800 l 1,21,-1
 1100 700 l 1,22,-1
 1200 600 l 1,23,-1
 1200 200 l 1,24,-1
 1000 0 l 1,25,-1
 600 0 l 1,26,-1
 400 200 l 1,0,-1
EndSplineSet
EndChar

StartChar: four
Encoding: 52 52 23
Width: 1600
GlyphClass: 2
Flags: W
LayerCount: 2
Fore
SplineSet
400 400 m 1,0,-1
 400 600 l 1,1,-1
 900 1400 l 1,2,-1
 1100 1400 l 1,3,-1
 1100 600 l 1,4,-1
 1200 600 l 1,5,-1
 1200 400 l 1,6,-1
 1100 400 l 1,7,-1
 1100 0 l 1,8,-1
 900 0 l 1,9,-1
 900 400 l 1,10,-1
 400 400 l 1,0,-1
620 600 m 1,11,-1
 900 600 l 1,12,-1
 900 1050 l 1,13,-1
 620 600 l 1,11,-1
EndSplineSet
EndChar

StartChar: five
Encoding: 53 53 24
Width: 1600
GlyphClass: 2
Flags: W
LayerCount: 2
Fore
SplineSet
400 200 m 1,0,-1
 400 300 l 1,1,-1
 600 300 l 1,2,-1
 700 200 l 1,3,-1
 900 200 l 1,4,-1
 1000 300 l 1,5,-1
 1000 700 l 1,6,-1
 900 800 l 1,7,-1
 400 800 l 1,8,-1
 400 1400 l 1,9,-1
 1200 1400 l 1,10,-1
 1200 1200 l 1,11,-1
 600 1200 l 1,12,-1
 600 1000 l 1,13,-1
 1000 1000 l 1,14,-1
 1200 800 l 1,15,-1
 1200 200 l 1,16,-1
 1000 0 l 1,17,-1
 600 0 l 1,18,-1
 400 200 l 1,0,-1
EndSplineSet
EndChar

StartChar: six
Encoding: 54 54 25
Width: 1600
GlyphClass: 2
Flags: W
LayerCount: 2
Fore
SplineSet
400 200 m 1,0,-1
 400 1000 l 1,1,-1
 800 1400 l 1,2,-1
 1000 1400 l 1,3,-1
 1000 1300 l 1,4,-1
 600 900 l 1,5,-1
 600 800 l 1,6,-1
 1000 800 l 1,7,-1
 1200 600 l 1,8,-1
 1200 200 l 1,9,-1
 1000 0 l 1,10,-1
 600 0 l 1,11,-1
 400 200 l 1,0,-1
600 300 m 1,12,-1
 700 200 l 1,13,-1
 900 200 l 1,14,-1
 1000 300 l 1,15,-1
 1000 500 l 1,16,-1
 900 600 l 1,17,-1
 600 600 l 1,18,-1
 600 300 l 1,12,-1
EndSplineSet
EndChar

StartChar: seven
Encoding: 55 55 26
Width: 1600
GlyphClass: 2
Flags: W
LayerCount: 2
Fore
SplineSet
400 1200 m 1,0,-1
 400 1400 l 1,1,-1
 1200 1400 l 1,2,-1
 1200 1200 l 1,3,-1
 800 0 l 1,4,-1
 600 0 l 1,5,-1
 1000 1200 l 1,6,-1
 400 1200 l 1,0,-1
EndSplineSet
EndChar

StartChar: eight
Encoding: 56 56 27
Width: 1600
GlyphClass: 2
Flags: W
LayerCount: 2
Fore
SplineSet
400 200 m 1,0,-1
 400 600 l 1,1,-1
 500 700 l 1,2,-1
 400 800 l 1,3,-1
 400 1200 l 1,4,-1
 600 1400 l 1,5,-1
 1000 1400 l 1,6,-1
 1200 1200 l 1,7,-1
 1200 800 l 1,8,-1
 1100 700 l 1,9,-1
 1200 600 l 1,10,-1
 1200 200 l 1,11,-1
 1000 0 l 1,12,-1
 600 0 l 1,13,-1
 400 200 l 1,0,-1
600 300 m 1,14,-1
 700 200 l 1,15,-1
 900 200 l 1,16,-1
 1000 300 l 1,17,-1
 1000 500 l 1,18,-1
 900 600 l 1,19,-1
 700 600 l 1,20,-1
 600 500 l 1,21,-1
 600 300 l 1,14,-1
600 900 m 1,22,-1
 700 800 l 1,23,-1
 900 800 l 1,24,-1
 1000 900 l 1,25,-1
 1000 1100 l 1,26,-1
 900 1200 l 1,27,-1
 700 1200 l 1,28,-1
 600 1100 l 1,29,-1
 600 900 l 1,22,-1
EndSplineSet
EndChar

StartChar: nine
Encoding: 57 57 28
Width: 1600
GlyphClass: 2
Flags: W
LayerCount: 2
Fore
SplineSet
400 800 m 1,0,-1
 400 1200 l 1,1,-1
 600 1400 l 1,2,-1
 1000 1400 l 1,3,-1
 1200 1200 l 1,4,-1
 1200 400 l 1,5,-1
 800 0 l 1,6,-1
 600 0 l 1,7,-1
 600 100 l 1,8,-1
 1000 500 l 1,9,-1
 1000 600 l 1,10,-1
 600 600 l 1,11,-1
 400 800 l 1,0,-1
600 900 m 1,12,-1
 700 800 l 1,13,-1
 1000 800 l 1,14,-1
 1000 1100 l 1,15,-1
 900 1200 l 1,16,-1
 700 1200 l 1,17,-1
 600 1100 l 1,18,-1
 600 900 l 1,12,-1
EndSplineSet
EndChar

StartChar: colon
Encoding: 58 58 29
Width: 1600
GlyphClass: 2
Flags: W
LayerCount: 2
Fore
SplineSet
700 0 m 1,0,-1
 700 200 l 1,1,-1
 900 200 l 1,2,-1
 900 0 l 1,3,-1
 700 0 l 1,0,-1
700 800 m 1,4,-1
 700 1000 l 1,5,-1
 900 1000 l 1,6,-1
 900 800 l 1,7,-1
 700 800 l 1,4,-1
EndSplineSet
EndChar

StartChar: semicolon
Encoding: 59 59 30
Width: 1600
GlyphClass: 2
Flags: W
LayerCount: 2
Fore
SplineSet
700 0 m 1,0,-1
 700 200 l 1,1,-1
 900 200 l 1,2,-1
 900 0 l 1,3,-1
 830 -200 l 1,4,-1
 700 -200 l 1,5,-1
 770 0 l 1,6,-1
 700 0 l 1,0,-1
700 800 m 1,7,-1
 700 1000 l 1,8,-1
 900 1000 l 1,9,-1
 900 800 l 1,10,-1
 700 800 l 1,7,-1
EndSplineSet
EndChar

StartChar: less
Encoding: 60 60 31
Width: 1600
GlyphClass: 2
Flags: W
LayerCount: 2
Fore
SplineSet
500 600 m 1,0,-1
 500 800 l 1,1,-1
 1100 1100 l 1,2,-1
 1100 900 l 1,3,-1
 650 700 l 1,4,-1
 1100 500 l 1,5,-1
 1100 300 l 1,6,-1
 500 600 l 1,0,-1
EndSplineSet
EndChar

StartChar: equal
Encoding: 61 61 32
Width: 1600
GlyphClass: 2
Flags: W
LayerCount: 2
Fore
SplineSet
500 400 m 1,0,-1
 500 600 l 1,1,-1
 1100 600 l 1,2,-1
 1100 400 l 1,3,-1
 500 400 l 1,0,-1
500 800 m 1,4,-1
 500 1000 l 1,5,-1
 1100 1000 l 1,6,-1
 1100 800 l 1,7,-1
 500 800 l 1,4,-1
EndSplineSet
EndChar

StartChar: greater
Encoding: 62 62 33
Width: 1600
GlyphClass: 2
Flags: W
LayerCount: 2
Fore
SplineSet
500 300 m 1,0,-1
 500 500 l 1,1,-1
 950 700 l 1,2,-1
 500 900 l 1,3,-1
 500 1100 l 1,4,-1
 1100 800 l 1,5,-1
 1100 600 l 1,6,-1
 500 300 l 1,0,-1
EndSplineSet
EndChar

StartChar: question
Encoding: 63 63 34
Width: 1600
GlyphClass: 2
Flags: W
LayerCount: 2
Fore
SplineSet
400 1100 m 1,0,-1
 400 1200 l 1,1,-1
 600 1400 l 1,2,-1
 1000 1400 l 1,3,-1
 1200 1200 l 1,4,-1
 1200 800 l 1,5,-1
 900 500 l 1,6,-1
 900 400 l 1,7,-1
 700 400 l 1,8,-1
 700 600 l 1,9,-1
 1000 900 l 1,10,-1
 1000 1100 l 1,11,-1
 900 1200 l 1,12,-1
 700 1200 l 1,13,-1
 600 1100 l 1,14,-1
 400 1100 l 1,0,-1
700 0 m 1,15,-1
 700 200 l 1,16,-1
 900 200 l 1,17,-1
 900 0 l 1,18,-1
 700 0 l 1,15,-1
EndSplineSet
EndChar

StartChar: at
Encoding: 64 64 35
Width: 1600
GlyphClass: 2
Flags: W
LayerCount: 2
Fore
SplineSet
200 200 m 1,0,-1
 200 1000 l 1,1,-1
 600 1400 l 1,2,-1
 1400 1400 l 1,3,-1
 1400 200 l 1,4,-1
 800 200 l 1,5,-1
 600 400 l 1,6,-1
 600 800 l 1,7,-1
 800 1000 l 1,8,-1
 1200 1000 l 1,9,-1
 1200 1200 l 1,10,-1
 700 1200 l 1,11,-1
 400 900 l 1,12,-1
 400 300 l 1,13,-1
 700 0 l 1,14,-1
 1400 0 l 1,15,-1
 1400 -200 l 1,16,-1
 600 -200 l 1,17,-1
 200 200 l 1,0,-1
800 500 m 1,18,-1
 900 400 l 1,19,-1
 1200 400 l 1,20,-1
 1200 800 l 1,21,-1
 900 800 l 1,22,-1
 800 700 l 1,23,-1
 800 500 l 1,18,-1
EndSplineSet
EndChar

StartChar: A
Encoding: 65 65 36
Width: 1600
GlyphClass: 2
Flags: W
LayerCount: 2
Fore
SplineSet
200 0 m 1,0,-1
 700 1400 l 1,1,-1
 900 1400 l 1,2,-1
 1400 0 l 1,3,-1
 1200 0 l 1,4,-1
 1061 400 l 1,5,-1
 539 400 l 1,6,-1
 400 0 l 1,7,-1
 200 0 l 1,0,-1
609 600 m 1,8,-1
 991 600 l 1,9,-1
 800 1150 l 1,10,-1
 609 600 l 1,8,-1
EndSplineSet
EndChar

StartChar: B
Encoding: 66 66 37
Width: 1600
GlyphClass: 2
Flags: W
LayerCount: 2
Fore
SplineSet
200 0 m 1,0,-1
 200 1400 l 1,1,-1
 1200 1400 l 1,2,-1
 1400 1200 l 1,3,-1
 1400 800 l 1,4,-1
 1300 700 l 1,5,-1
 1400 600 l 1,6,-1
 1400 200 l 1,7,-1
 1200 0 l 1,8,-1
 200 0 l 1,0,-1
400 200 m 1,9,-1
 1100 200 l 1,10,-1
 1200 300 l 1,11,-1
 1200 500 l 1,12,-1
 1100 600 l 1,13,-1
 400 600 l 1,14,-1
 400 200 l 1,9,-1
400 800 m 1,15,-1
 1100 800 l 1,16,-1
 1200 900 l 1,17,-1
 1200 1100 l 1,18,-1
 1100 1200 l 1,19,-1
 400 1200 l 1,20,-1
 400 800 l 1,15,-1
EndSplineSet
EndChar

StartChar: C
Encoding: 67 67 38
Width: 1600
GlyphClass: 2
Flags: W
LayerCount: 2
Fore
SplineSet
200 300 m 1,0,-1
 200 1100 l 1,1,-1
 500 1400 l 1,2,-1
 1100 1400 l 1,3,-1
 1400 1100 l 1,4,-1
 1400 1000 l 1,5,-1
 1200 1000 l 1,6,-1
 1000 1200 l 1,7,-1
 600 1200 l 1,8,-1
 400 1000 l 1,9,-1
 400 400 l 1,10,-1
 600 200 l 1,11,-1
 1000 200 l 1,12,-1
 1200 400 l 1,13,-1
 1400 400 l 1,14,-1
 1400 300 l 1,15,-1
 1100 0 l 1,16,-1
 500 0 l 1,17,-1
 200 300 l 1,0,-1
EndSplineSet
EndChar

StartChar: D
Encoding: 68 68 39
Width: 1600
GlyphClass: 2
Flags: W
LayerCount: 2
Fore
SplineSet
200 0 m 1,0,-1
 200 1400 l 1,1,-1
 1000 1400 l 1,2,-1
 1400 1000 l 1,3,-1
 1400 400 l 1,4,-1
 1000 0 l 1,5,-1
 200 0 l 1,0,-1
400 200 m 1,6,-1
 900 200 l 1,7,-1
 1200 500 l 1,8,-1
 1200 900 l 1,9,-1
 900 1200 l 1,10,-1
 400 1200 l 1,11,-1
 400 200 l 1,6,-1
EndSplineSet
EndChar

StartChar: E
Encoding: 69 69 40
Width: 1600
GlyphClass: 2
Flags: W
LayerCount: 2
Fore
SplineSet
200 0 m 1,0,-1
 200 1400 l 1,1,-1
 1400 1400 l 1,2,-1
 1400 1200 l 1,3,-1
 400 1200 l 1,4,-1
 400 800 l 1,5,-1
 1200 800 l 1,6,-1
 1200 600 l 1,7,-1
 400 600 l 1,8,-1
 400 200 l 1,9,-1
 1400 200 l 1,10,-1
 1400 0 l 1,11,-1
 200 0 l 1,0,-1
EndSplineSet
EndChar

StartChar: F
Encoding: 70 70 41
Width: 1600
GlyphClass: 2
Flags: W
LayerCount: 2
Fore
SplineSet
200 0 m 1,0,-1
 200 1400 l 1,1,-1
 1400 1400 l 1,2,-1
 1400 1200 l 1,3,-1
 400 1200 l 1,4,-1
 400 800 l 1,5,-1
 1200 800 l 1,6,-1
 1200 600 l 1,7,-1
 400 600 l 1,8,-1
 400 0 l 1,9,-1
 200 0 l 1,0,-1
EndSplineSet
EndChar

StartChar: G
Encoding: 71 71 42
Width: 1600
GlyphClass: 2
Flags: W
LayerCount: 2
Fore
SplineSet
200 300 m 1,0,-1
 200 1100 l 1,1,-1
 500 1400 l 1,2,-1
 1100 1400 l 1,3,-1
 1400 1100 l 1,4,-1
 1400 1000 l 1,5,-1
 1200 1000 l 1,6,-1
 1000 1200 l 1,7,-1
 600 1200 l 1,8,-1
 400 1000 l 1,9,-1
 400 400 l 1,10,-1
 600 200 l 1,11,-1
 1200 200 l 1,12,-1
 1200 600 l 1,13,-1
 800 600 l 1,14,-1
 800 800 l 1,15,-1
 1400 800 l 1,16,-1
 1400 0 l 1,17,-1
 500 0 l 1,18,-1
 200 300 l 1,0,-1
EndSplineSet
EndChar

StartChar: H
Encoding: 72 72 43
Width: 1600
GlyphClass: 2
Flags: W
LayerCount: 2
Fore
SplineSet
200 0 m 1,0,-1
 200 1400 l 1,1,-1
 400 1400 l 1,2,-1
 400 800 l 1,3,-1
 1200 800 l 1,4,-1
 1200 1400 l 1,5,-1
 1400 1400 l 1,6,-1
 1400 0 l 1,7,-1
 1200 0 l 1,8,-1
 1200 600 l 1,9,-1
 400 600 l 1,10,-1
 400 0 l 1,11,-1
 200 0 l 1,0,-1
EndSplineSet
EndChar

StartChar: I
Encoding: 73 73 44
Width: 1600
GlyphClass: 2
Flags: W
LayerCount: 2
Fore
SplineSet
200 0 m 1,0,-1
 200 200 l 1,1,-1
 700 200 l 1,2,-1
 700 1200 l 1,3,-1
 200 1200 l 1,4,-1
 200 1400 l 1,5,-1
 1400 1400 l 1,6,-1
 1400 1200 l 1,7,-1
 900 1200 l 1,8,-1
 900 200 l 1,9,-1
 1400 200 l 1,10,-1
 1400 0 l 1,11,-1
 200 0 l 1,0,-1
EndSplineSet
EndChar

StartChar: J
Encoding: 74 74 45
Width: 1600
GlyphClass: 2
Flags: W
LayerCount: 2
Fore
SplineSet
200 200 m 1,0,-1
 200 300 l 1,1,-1
 400 300 l 1,2,-1
 500 200 l 1,3,-1
 700 200 l 1,4,-1
 900 400 l 1,5,-1
 900 1200 l 1,6,-1
 600 1200 l 1,7,-1
 600 1400 l 1,8,-1
 1400 1400 l 1,9,-1
 1400 1200 l 1,10,-1
 1100 1200 l 1,11,-1
 1100 300 l 1,12,-1
 800 0 l 1,13,-1
 400 0 l 1,14,-1
 200 200 l 1,0,-1
EndSplineSet
Substitution2: "Single Substitution lookup 9 subtable" Jacute
EndChar

StartChar: K
Encoding: 75 75 46
Width: 1600
GlyphClass: 2
Flags: W
LayerCount: 2
Fore
SplineSet
200 0 m 1,0,-1
 200 1400 l 1,1,-1
 400 1400 l 1,2,-1
 400 880 l 1,3,-1
 920 1400 l 1,4,-1
 1200 1400 l 1,5,-1
 600 800 l 1,6,-1
 1400 0 l 1,7,-1
 1120 0 l 1,8,-1
 460 660 l 1,9,-1
 400 600 l 1,10,-1
 400 0 l 1,11,-1
 200 0 l 1,0,-1
EndSplineSet
EndChar

StartChar: L
Encoding: 76 76 47
Width: 1600
GlyphClass: 2
Flags: W
LayerCount: 2
Fore
SplineSet
200 0 m 1,0,-1
 200 1400 l 1,1,-1
 400 1400 l 1,2,-1
 400 200 l 1,3,-1
 1400 200 l 1,4,-1
 1400 0 l 1,5,-1
 200 0 l 1,0,-1
EndSplineSet
EndChar

StartChar: M
Encoding: 77 77 48
Width: 1600
GlyphClass: 2
Flags: W
LayerCount: 2
Fore
SplineSet
200 0 m 1,0,-1
 200 1400 l 1,1,-1
 400 1400 l 1,2,-1
 800 250 l 1,3,-1
 1200 1400 l 1,4,-1
 1400 1400 l 1,5,-1
 1400 0 l 1,6,-1
 1200 0 l 1,7,-1
 1200 850 l 1,8,-1
 900 0 l 1,9,-1
 700 0 l 1,10,-1
 400 850 l 1,11,-1
 400 0 l 1,12,-1
 200 0 l 1,0,-1
EndSplineSet
EndChar

StartChar: N
Encoding: 78 78 49
Width: 1600
GlyphClass: 2
Flags: W
LayerCount: 2
Fore
SplineSet
200 0 m 1,0,-1
 200 1400 l 1,1,-1
 450 1400 l 1,2,-1
 1200 290 l 1,3,-1
 1200 1400 l 1,4,-1
 1400 1400 l 1,5,-1
 1400 0 l 1,6,-1
 1150 0 l 1,7,-1
 400 1110 l 1,8,-1
 400 0 l 1,9,-1
 200 0 l 1,0,-1
EndSplineSet
EndChar

StartChar: O
Encoding: 79 79 50
Width: 1600
GlyphClass: 2
Flags: W
LayerCount: 2
Fore
SplineSet
200 300 m 1,0,-1
 200 1100 l 1,1,-1
 500 1400 l 1,2,-1
 1100 1400 l 1,3,-1
 1400 1100 l 1,4,-1
 1400 300 l 1,5,-1
 1100 0 l 1,6,-1
 500 0 l 1,7,-1
 200 300 l 1,0,-1
400 400 m 1,8,-1
 600 200 l 1,9,-1
 1000 200 l 1,10,-1
 1200 400 l 1,11,-1
 1200 1000 l 1,12,-1
 1000 1200 l 1,13,-1
 600 1200 l 1,14,-1
 400 1000 l 1,15,-1
 400 400 l 1,8,-1
EndSplineSet
EndChar

StartChar: P
Encoding: 80 80 51
Width: 1600
GlyphClass: 2
Flags: W
LayerCount: 2
Fore
SplineSet
200 0 m 1,0,-1
 200 1400 l 1,1,-1
 1200 1400 l 1,2,-1
 1400 1200 l 1,3,-1
 1400 800 l 1,4,-1
 1200 600 l 1,5,-1
 400 600 l 1,6,-1
 400 0 l 1,7,-1
 200 0 l 1,0,-1
400 800 m 1,8,-1
 1100 800 l 1,9,-1
 1200 900 l 1,10,-1
 1200 1100 l 1,11,-1
 1100 1200 l 1,12,-1
 400 1200 l 1,13,-1
 400 800 l 1,8,-1
EndSplineSet
EndChar

StartChar: Q
Encoding: 81 81 52
Width: 1600
GlyphClass: 2
Flags: W
LayerCount: 2
Fore
SplineSet
200 300 m 1,0,-1
 200 1100 l 1,1,-1
 500 1400 l 1,2,-1
 1100 1400 l 1,3,-1
 1400 1100 l 1,4,-1
 1400 400 l 1,5,-1
 1250 250 l 1,6,-1
 1400 100 l 1,7,-1
 1400 0 l 1,8,-1
 1200 0 l 1,9,-1
 1100 100 l 1,10,-1
 1000 0 l 1,11,-1
 500 0 l 1,12,-1
 200 300 l 1,0,-1
400 400 m 1,13,-1
 600 200 l 1,14,-1
 900 200 l 1,15,-1
 950 250 l 1,16,-1
 800 400 l 1,17,-1
 800 500 l 1,18,-1
 1000 500 l 1,19,-1
 1100 400 l 1,20,-1
 1200 500 l 1,21,-1
 1200 1000 l 1,22,-1
 1000 1200 l 1,23,-1
 600 1200 l 1,24,-1
 400 1000 l 1,25,-1
 400 400 l 1,13,-1
EndSplineSet
EndChar

StartChar: R
Encoding: 82 82 53
Width: 1600
GlyphClass: 2
Flags: W
LayerCount: 2
Fore
SplineSet
200 0 m 1,0,-1
 200 1400 l 1,1,-1
 1200 1400 l 1,2,-1
 1400 1200 l 1,3,-1
 1400 800 l 1,4,-1
 1200 600 l 1,5,-1
 800 600 l 1,6,-1
 1400 0 l 1,7,-1
 1120 0 l 1,8,-1
 520 600 l 1,9,-1
 400 600 l 1,10,-1
 400 0 l 1,11,-1
 200 0 l 1,0,-1
400 800 m 1,12,-1
 1100 800 l 1,13,-1
 1200 900 l 1,14,-1
 1200 1100 l 1,15,-1
 1100 1200 l 1,16,-1
 400 1200 l 1,17,-1
 400 800 l 1,12,-1
EndSplineSet
EndChar

StartChar: S
Encoding: 83 83 54
Width: 1600
GlyphClass: 2
Flags: W
LayerCount: 2
Fore
SplineSet
200 200 m 1,0,-1
 200 300 l 1,1,-1
 400 300 l 1,2,-1
 500 200 l 1,3,-1
 1100 200 l 1,4,-1
 1200 300 l 1,5,-1
 1200 500 l 1,6,-1
 1100 600 l 1,7,-1
 400 600 l 1,8,-1
 200 800 l 1,9,-1
 200 1200 l 1,10,-1
 400 1400 l 1,11,-1
 1200 1400 l 1,12,-1
 1400 1200 l 1,13,-1
 1400 1100 l 1,14,-1
 1200 1100 l 1,15,-1
 1100 1200 l 1,16,-1
 500 1200 l 1,17,-1
 400 1100 l 1,18,-1
 400 900 l 1,19,-1
 500 800 l 1,20,-1
 1200 800 l 1,21,-1
 1400 600 l 1,22,-1
 1400 200 l 1,23,-1
 1200 0 l 1,24,-1
 400 0 l 1,25,-1
 200 200 l 1,0,-1
EndSplineSet
EndChar

StartChar: T
Encoding: 84 84 55
Width: 1600
GlyphClass: 2
Flags: W
LayerCount: 2
Fore
SplineSet
200 1200 m 1,0,-1
 200 1400 l 1,1,-1
 1400 1400 l 1,2,-1
 1400 1200 l 1,3,-1
 900 1200 l 1,4,-1
 900 0 l 1,5,-1
 700 0 l 1,6,-1
 700 1200 l 1,7,-1
 200 1200 l 1,0,-1
EndSplineSet
EndChar

StartChar: U
Encoding: 85 85 56
Width: 1600
GlyphClass: 2
Flags: W
LayerCount: 2
Fore
SplineSet
200 300 m 1,0,-1
 200 1400 l 1,1,-1
 400 1400 l 1,2,-1
 400 400 l 1,3,-1
 600 200 l 1,4,-1
 1000 200 l 1,5,-1
 1200 400 l 1,6,-1
 1200 1400 l 1,7,-1
 1400 1400 l 1,8,-1
 1400 300 l 1,9,-1
 1100 0 l 1,10,-1
 500 0 l 1,11,-1
 200 300 l 1,0,-1
EndSplineSet
EndChar

StartChar: V
Encoding: 86 86 57
Width: 1600
GlyphClass: 2
Flags: W
LayerCount: 2
Fore
SplineSet
200 1400 m 1,0,-1
 400 1400 l 1,1,-1
 800 250 l 1,2,-1
 1200 1400 l 1,3,-1
 1400 1400 l 1,4,-1
 900 0 l 1,5,-1
 700 0 l 1,6,-1
 200 1400 l 1,0,-1
EndSplineSet
EndChar

StartChar: W
Encoding: 87 87 58
Width: 1600
GlyphClass: 2
Flags: W
LayerCount: 2
Fore
SplineSet
200 1400 m 1,0,-1
 400 1400 l 1,1,-1
 550 500 l 1,2,-1
 700 1400 l 1,3,-1
 900 1400 l 1,4,-1
 1050 500 l 1,5,-1
 1200 1400 l 1,6,-1
 1400 1400 l 1,7,-1
 1150 0 l 1,8,-1
 950 0 l 1,9,-1
 800 900 l 1,10,-1
 650 0 l 1,11,-1
 450 0 l 1,12,-1
 200 1400 l 1,0,-1
EndSplineSet
EndChar

StartChar: X
Encoding: 88 88 59
Width: 1600
GlyphClass: 2
Flags: W
LayerCount: 2
Fore
SplineSet
200 0 m 1,0,-1
 700 700 l 1,1,-1
 200 1400 l 1,2,-1
 450 1400 l 1,3,-1
 800 875 l 1,4,-1
 1150 1400 l 1,5,-1
 1400 1400 l 1,6,-1
 900 700 l 1,7,-1
 1400 0 l 1,8,-1
 1150 0 l 1,9,-1
 800 525 l 1,10,-1
 450 0 l 1,11,-1
 200 0 l 1,0,-1
EndSplineSet
EndChar

StartChar: Y
Encoding: 89 89 60
Width: 1600
GlyphClass: 2
Flags: W
LayerCount: 2
Fore
SplineSet
200 1400 m 1,0,-1
 450 1400 l 1,1,-1
 800 800 l 1,2,-1
 1150 1400 l 1,3,-1
 1400 1400 l 1,4,-1
 900 600 l 1,5,-1
 900 0 l 1,6,-1
 700 0 l 1,7,-1
 700 600 l 1,8,-1
 200 1400 l 1,0,-1
EndSplineSet
EndChar

StartChar: Z
Encoding: 90 90 61
Width: 1600
GlyphClass: 2
Flags: W
LayerCount: 2
Fore
SplineSet
200 0 m 1,0,-1
 1015 1200 l 1,1,-1
 200 1200 l 1,2,-1
 200 1400 l 1,3,-1
 1400 1400 l 1,4,-1
 585 200 l 1,5,-1
 1400 200 l 1,6,-1
 1400 0 l 1,7,-1
 200 0 l 1,0,-1
EndSplineSet
EndChar

StartChar: bracketleft
Encoding: 91 91 62
Width: 1600
GlyphClass: 2
Flags: W
LayerCount: 2
Fore
SplineSet
500 -200 m 1,0,-1
 500 1400 l 1,1,-1
 1100 1400 l 1,2,-1
 1100 1200 l 1,3,-1
 700 1200 l 1,4,-1
 700 0 l 1,5,-1
 1100 0 l 1,6,-1
 1100 -200 l 1,7,-1
 500 -200 l 1,0,-1
EndSplineSet
EndChar

StartChar: backslash
Encoding: 92 92 63
Width: 1600
GlyphClass: 2
Flags: W
LayerCount: 2
Fore
SplineSet
400 1400 m 1,0,-1
 600 1400 l 1,1,-1
 1200 0 l 1,2,-1
 1000 0 l 1,3,-1
 400 1400 l 1,0,-1
EndSplineSet
EndChar

StartChar: bracketright
Encoding: 93 93 64
Width: 1600
GlyphClass: 2
Flags: W
LayerCount: 2
Fore
SplineSet
500 0 m 1,0,-1
 900 0 l 1,1,-1
 900 1200 l 1,2,-1
 500 1200 l 1,3,-1
 500 1400 l 1,4,-1
 1100 1400 l 1,5,-1
 1100 -200 l 1,6,-1
 500 -200 l 1,7,-1
 500 0 l 1,0,-1
EndSplineSet
EndChar

StartChar: asciicircum
Encoding: 94 94 65
Width: 1600
GlyphClass: 2
Flags: W
LayerCount: 2
Fore
SplineSet
400 1000 m 1,0,-1
 700 1400 l 1,1,-1
 900 1400 l 1,2,-1
 1200 1000 l 1,3,-1
 980 1000 l 1,4,-1
 800 1240 l 1,5,-1
 620 1000 l 1,6,-1
 400 1000 l 1,0,-1
EndSplineSet
EndChar

StartChar: underscore
Encoding: 95 95 66
Width: 1600
GlyphClass: 2
Flags: W
LayerCount: 2
Fore
SplineSet
400 0 m 1,0,-1
 1200 0 l 1,1,-1
 1200 -200 l 1,2,-1
 400 -200 l 1,3,-1
 400 0 l 1,0,-1
EndSplineSet
EndChar

StartChar: grave
Encoding: 96 96 67
Width: 1600
GlyphClass: 2
Flags: W
LayerCount: 2
Fore
SplineSet
600 1400 m 1,0,-1
 800 1400 l 1,1,-1
 1000 1000 l 1,2,-1
 800 1000 l 1,3,-1
 600 1400 l 1,0,-1
EndSplineSet
EndChar

StartChar: a
Encoding: 97 97 68
Width: 1600
GlyphClass: 2
Flags: W
LayerCount: 2
Fore
SplineSet
400 200 m 1,0,-1
 400 400 l 1,1,-1
 600 600 l 1,2,-1
 1000 600 l 1,3,-1
 1000 700 l 1,4,-1
 900 800 l 1,5,-1
 600 800 l 1,6,-1
 600 1000 l 1,7,-1
 1000 1000 l 1,8,-1
 1200 800 l 1,9,-1
 1200 0 l 1,10,-1
 600 0 l 1,11,-1
 400 200 l 1,0,-1
600 300 m 1,12,-1
 700 200 l 1,13,-1
 1000 200 l 1,14,-1
 1000 400 l 1,15,-1
 700 400 l 1,16,-1
 600 300 l 1,12,-1
EndSplineSet
EndChar

StartChar: b
Encoding: 98 98 69
Width: 1600
GlyphClass: 2
Flags: W
LayerCount: 2
Fore
SplineSet
400 0 m 1,0,-1
 400 1400 l 1,1,-1
 600 1400 l 1,2,-1
 600 1000 l 1,3,-1
 1000 1000 l 1,4,-1
 1200 800 l 1,5,-1
 1200 200 l 1,6,-1
 1000 0 l 1,7,-1
 400 0 l 1,0,-1
600 200 m 1,8,-1
 900 200 l 1,9,-1
 1000 300 l 1,10,-1
 1000 700 l 1,11,-1
 900 800 l 1,12,-1
 600 800 l 1,13,-1
 600 200 l 1,8,-1
EndSplineSet
EndChar

StartChar: c
Encoding: 99 99 70
Width: 1600
GlyphClass: 2
Flags: W
LayerCount: 2
Fore
SplineSet
400 200 m 1,0,-1
 400 800 l 1,1,-1
 600 1000 l 1,2,-1
 1000 1000 l 1,3,-1
 1200 800 l 1,4,-1
 1200 700 l 1,5,-1
 1000 700 l 1,6,-1
 900 800 l 1,7,-1
 700 800 l 1,8,-1
 600 700 l 1,9,-1
 600 300 l 1,10,-1
 700 200 l 1,11,-1
 900 200 l 1,12,-1
 1000 300 l 1,13,-1
 1200 300 l 1,14,-1
 1200 200 l 1,15,-1
 1000 0 l 1,16,-1
 600 0 l 1,17,-1
 400 200 l 1,0,-1
EndSplineSet
EndChar

StartChar: d
Encoding: 100 100 71
Width: 1600
GlyphClass: 2
Flags: W
LayerCount: 2
Fore
SplineSet
400 200 m 1,0,-1
 400 800 l 1,1,-1
 600 1000 l 1,2,-1
 1000 1000 l 1,3,-1
 1000 1400 l 1,4,-1
 1200 1400 l 1,5,-1
 1200 0 l 1,6,-1
 600 0 l 1,7,-1
 400 200 l 1,0,-1
600 300 m 1,8,-1
 700 200 l 1,9,-1
 1000 200 l 1,10,-1
 1000 800 l 1,11,-1
 700 800 l 1,12,-1
 600 700 l 1,13,-1
 600 300 l 1,8,-1
EndSplineSet
EndChar

StartChar: e
Encoding: 101 101 72
Width: 1600
GlyphClass: 2
Flags: W
LayerCount: 2
Fore
SplineSet
400 200 m 1,0,-1
 400 800 l 1,1,-1
 600 1000 l 1,2,-1
 1000 1000 l 1,3,-1
 1200 800 l 1,4,-1
 1200 400 l 1,5,-1
 600 400 l 1,6,-1
 600 300 l 1,7,-1
 700 200 l 1,8,-1
 1200 200 l 1,9,-1
 1200 0 l 1,10,-1
 600 0 l 1,11,-1
 400 200 l 1,0,-1
600 600 m 1,12,-1
 1000 600 l 1,13,-1
 1000 700 l 1,14,-1
 900 800 l 1,15,-1
 700 800 l 1,16,-1
 600 700 l 1,17,-1
 600 600 l 1,12,-1
EndSplineSet
EndChar

StartChar: f
Encoding: 102 102 73
Width: 1600
GlyphClass: 2
Flags: W
LayerCount: 2
Fore
SplineSet
400 800 m 1,0,-1
 400 1000 l 1,1,-1
 700 1000 l 1,2,-1
 700 1200 l 1,3,-1
 900 1400 l 1,4,-1
 1200 1400 l 1,5,-1
 1200 1200 l 1,6,-1
 1000 1200 l 1,7,-1
 900 1100 l 1,8,-1
 900 1000 l 1,9,-1
 1200 1000 l 1,10,-1
 1200 800 l 1,11,-1
 900 800 l 1,12,-1
 900 0 l 1,13,-1
 700 0 l 1,14,-1
 700 800 l 1,15,-1
 400 800 l 1,0,-1
EndSplineSet
EndChar

StartChar: g
Encoding: 103 103 74
Width: 1600
GlyphClass: 2
Flags: W
LayerCount: 2
Fore
SplineSet
200 -100 m 1,0,-1
 200 200 l 1,1,-1
 300 300 l 1,2,-1
 500 300 l 1,3,-1
 500 100 l 1,4,-1
 400 100 l 1,5,-1
 400 0 l 1,6,-1
 1200 0 l 1,7,-1
 1200 100 l 1,8,-1
 700 100 l 1,9,-1
 700 400 l 1,10,-1
 800 500 l 1,11,-1
 300 500 l 1,12,-1
 200 600 l 1,13,-1
 200 900 l 1,14,-1
 300 1000 l 1,15,-1
 800 1000 l 1,16,-1
 1000 800 l 1,17,-1
 1000 700 l 1,18,-1
 1100 700 l 1,19,-1
 1200 800 l 1,20,-1
 1200 1000 l 1,21,-1
 1400 1000 l 1,22,-1
 1400 700 l 1,23,-1
 1200 500 l 1,24,-1
 1000 500 l 1,25,-1
 1000 400 l 1,26,-1
 900 300 l 1,27,-1
 1300 300 l 1,28,-1
 1400 200 l 1,29,-1
 1400 -100 l 1,30,-1
 1300 -200 l 1,31,-1
 300 -200 l 1,32,-1
 200 -100 l 1,0,-1
400 700 m 1,33,-1
 800 700 l 1,34,-1
 700 800 l 1,35,-1
 400 800 l 1,36,-1
 400 700 l 1,33,-1
EndSplineSet
EndChar

StartChar: h
Encoding: 104 104 75
Width: 1600
GlyphClass: 2
Flags: W
LayerCount: 2
Fore
SplineSet
400 0 m 1,0,-1
 400 1400 l 1,1,-1
 600 1400 l 1,2,-1
 600 1000 l 1,3,-1
 1000 1000 l 1,4,-1
 1200 800 l 1,5,-1
 1200 0 l 1,6,-1
 1000 0 l 1,7,-1
 1000 700 l 1,8,-1
 900 800 l 1,9,-1
 600 800 l 1,10,-1
 600 0 l 1,11,-1
 400 0 l 1,0,-1
EndSplineSet
EndChar

StartChar: i
Encoding: 105 105 76
Width: 1600
GlyphClass: 2
Flags: W
LayerCount: 2
Fore
SplineSet
400 0 m 1,0,-1
 400 200 l 1,1,-1
 700 200 l 1,2,-1
 700 800 l 1,3,-1
 400 800 l 1,4,-1
 400 1000 l 1,5,-1
 900 1000 l 1,6,-1
 900 200 l 1,7,-1
 1200 200 l 1,8,-1
 1200 0 l 1,9,-1
 400 0 l 1,0,-1
700 1200 m 1,10,-1
 700 1400 l 1,11,-1
 900 1400 l 1,12,-1
 900 1200 l 1,13,-1
 700 1200 l 1,10,-1
EndSplineSet
Substitution2: "'locl' Localized Forms in Latin lookup 0 subtable" i.locl
EndChar

StartChar: j
Encoding: 106 106 77
Width: 1600
GlyphClass: 2
Flags: W
LayerCount: 2
Fore
SplineSet
400 0 m 1,0,-1
 400 100 l 1,1,-1
 600 100 l 1,2,-1
 700 0 l 1,3,-1
 900 0 l 1,4,-1
 1000 100 l 1,5,-1
 1000 800 l 1,6,-1
 400 800 l 1,7,-1
 400 1000 l 1,8,-1
 1200 1000 l 1,9,-1
 1200 0 l 1,10,-1
 1000 -200 l 1,11,-1
 600 -200 l 1,12,-1
 400 0 l 1,0,-1
700 1200 m 1,13,-1
 700 1400 l 1,14,-1
 900 1400 l 1,15,-1
 900 1200 l 1,16,-1
 700 1200 l 1,13,-1
EndSplineSet
Substitution2: "Single Substitution lookup 9 subtable" jacute
EndChar

StartChar: k
Encoding: 107 107 78
Width: 1600
GlyphClass: 2
Flags: W
LayerCount: 2
Fore
SplineSet
400 0 m 1,0,-1
 400 1400 l 1,1,-1
 600 1400 l 1,2,-1
 600 667 l 1,3,-1
 850 1000 l 1,4,-1
 1100 1000 l 1,5,-1
 775 567 l 1,6,-1
 1200 0 l 1,7,-1
 950 0 l 1,8,-1
 650 400 l 1,9,-1
 600 333 l 1,10,-1
 600 0 l 1,11,-1
 400 0 l 1,0,-1
EndSplineSet
EndChar

StartChar: l
Encoding: 108 108 79
Width: 1600
GlyphClass: 2
Flags: W
LayerCount: 2
Fore
SplineSet
400 0 m 1,0,-1
 400 200 l 1,1,-1
 700 200 l 1,2,-1
 700 1200 l 1,3,-1
 400 1200 l 1,4,-1
 400 1400 l 1,5,-1
 900 1400 l 1,6,-1
 900 200 l 1,7,-1
 1200 200 l 1,8,-1
 1200 0 l 1,9,-1
 400 0 l 1,0,-1
EndSplineSet
EndChar

StartChar: m
Encoding: 109 109 80
Width: 1600
GlyphClass: 2
Flags: W
LayerCount: 2
Fore
SplineSet
200 0 m 1,0,-1
 200 1000 l 1,1,-1
 1200 1000 l 1,2,-1
 1400 800 l 1,3,-1
 1400 0 l 1,4,-1
 1200 0 l 1,5,-1
 1200 700 l 1,6,-1
 1100 800 l 1,7,-1
 900 800 l 1,8,-1
 900 0 l 1,9,-1
 700 0 l 1,10,-1
 700 800 l 1,11,-1
 400 800 l 1,12,-1
 400 0 l 1,13,-1
 200 0 l 1,0,-1
EndSplineSet
EndChar

StartChar: n
Encoding: 110 110 81
Width: 1600
GlyphClass: 2
Flags: W
LayerCount: 2
Fore
SplineSet
400 0 m 1,0,-1
 400 1000 l 1,1,-1
 1000 1000 l 1,2,-1
 1200 800 l 1,3,-1
 1200 0 l 1,4,-1
 1000 0 l 1,5,-1
 1000 700 l 1,6,-1
 900 800 l 1,7,-1
 600 800 l 1,8,-1
 600 0 l 1,9,-1
 400 0 l 1,0,-1
EndSplineSet
EndChar

StartChar: o
Encoding: 111 111 82
Width: 1600
GlyphClass: 2
Flags: W
LayerCount: 2
Fore
SplineSet
400 200 m 1,0,-1
 400 800 l 1,1,-1
 600 1000 l 1,2,-1
 1000 1000 l 1,3,-1
 1200 800 l 1,4,-1
 1200 200 l 1,5,-1
 1000 0 l 1,6,-1
 600 0 l 1,7,-1
 400 200 l 1,0,-1
600 300 m 1,8,-1
 700 200 l 1,9,-1
 900 200 l 1,10,-1
 1000 300 l 1,11,-1
 1000 700 l 1,12,-1
 900 800 l 1,13,-1
 700 800 l 1,14,-1
 600 700 l 1,15,-1
 600 300 l 1,8,-1
EndSplineSet
EndChar

StartChar: p
Encoding: 112 112 83
Width: 1600
GlyphClass: 2
Flags: W
LayerCount: 2
Fore
SplineSet
400 -200 m 1,0,-1
 400 1000 l 1,1,-1
 1000 1000 l 1,2,-1
 1200 800 l 1,3,-1
 1200 400 l 1,4,-1
 1000 200 l 1,5,-1
 600 200 l 1,6,-1
 600 -200 l 1,7,-1
 400 -200 l 1,0,-1
600 400 m 1,8,-1
 900 400 l 1,9,-1
 1000 500 l 1,10,-1
 1000 700 l 1,11,-1
 900 800 l 1,12,-1
 600 800 l 1,13,-1
 600 400 l 1,8,-1
EndSplineSet
EndChar

StartChar: q
Encoding: 113 113 84
Width: 1600
GlyphClass: 2
Flags: W
LayerCount: 2
Fore
SplineSet
400 400 m 1,0,-1
 400 800 l 1,1,-1
 600 1000 l 1,2,-1
 1200 1000 l 1,3,-1
 1200 -200 l 1,4,-1
 1000 -200 l 1,5,-1
 1000 200 l 1,6,-1
 600 200 l 1,7,-1
 400 400 l 1,0,-1
600 500 m 1,8,-1
 700 400 l 1,9,-1
 1000 400 l 1,10,-1
 1000 800 l 1,11,-1
 700 800 l 1,12,-1
 600 700 l 1,13,-1
 600 500 l 1,8,-1
EndSplineSet
EndChar

StartChar: r
Encoding: 114 114 85
Width: 1600
GlyphClass: 2
Flags: W
LayerCount: 2
Fore
SplineSet
400 0 m 1,0,-1
 400 200 l 1,1,-1
 600 200 l 1,2,-1
 600 800 l 1,3,-1
 400 800 l 1,4,-1
 400 1000 l 1,5,-1
 800 1000 l 1,6,-1
 800 800 l 1,7,-1
 1000 1000 l 1,8,-1
 1200 1000 l 1,9,-1
 1200 800 l 1,10,-1
 1100 800 l 1,11,-1
 800 500 l 1,12,-1
 800 200 l 1,13,-1
 1000 200 l 1,14,-1
 1000 0 l 1,15,-1
 400 0 l 1,0,-1
EndSplineSet
EndChar

StartChar: s
Encoding: 115 115 86
Width: 1600
GlyphClass: 2
Flags: W
LayerCount: 2
Fore
SplineSet
400 0 m 1,0,-1
 400 200 l 1,1,-1
 900 200 l 1,2,-1
 1000 300 l 1,3,-1
 900 400 l 1,4,-1
 600 400 l 1,5,-1
 400 600 l 1,6,-1
 400 800 l 1,7,-1
 600 1000 l 1,8,-1
 1200 1000 l 1,9,-1
 1200 800 l 1,10,-1
 700 800 l 1,11,-1
 600 700 l 1,12,-1
 700 600 l 1,13,-1
 1000 600 l 1,14,-1
 1200 400 l 1,15,-1
 1200 200 l 1,16,-1
 1000 0 l 1,17,-1
 400 0 l 1,0,-1
EndSplineSet
EndChar

StartChar: t
Encoding: 116 116 87
Width: 1600
GlyphClass: 2
Flags: W
LayerCount: 2
Fore
SplineSet
400 800 m 1,0,-1
 400 1000 l 1,1,-1
 700 1000 l 1,2,-1
 700 1400 l 1,3,-1
 900 1400 l 1,4,-1
 900 1000 l 1,5,-1
 1200 1000 l 1,6,-1
 1200 800 l 1,7,-1
 900 800 l 1,8,-1
 900 0 l 1,9,-1
 700 0 l 1,10,-1
 700 800 l 1,11,-1
 400 800 l 1,0,-1
EndSplineSet
EndChar

StartChar: u
Encoding: 117 117 88
Width: 1600
GlyphClass: 2
Flags: W
LayerCount: 2
Fore
SplineSet
400 200 m 1,0,-1
 400 1000 l 1,1,-1
 600 1000 l 1,2,-1
 600 300 l 1,3,-1
 700 200 l 1,4,-1
 1000 200 l 1,5,-1
 1000 1000 l 1,6,-1
 1200 1000 l 1,7,-1
 1200 0 l 1,8,-1
 600 0 l 1,9,-1
 400 200 l 1,0,-1
EndSplineSet
EndChar

StartChar: v
Encoding: 118 118 89
Width: 1600
GlyphClass: 2
Flags: W
LayerCount: 2
Fore
SplineSet
400 1000 m 1,0,-1
 600 1000 l 1,1,-1
 800 250 l 1,2,-1
 1000 1000 l 1,3,-1
 1200 1000 l 1,4,-1
 900 0 l 1,5,-1
 700 0 l 1,6,-1
 400 1000 l 1,0,-1
EndSplineSet
EndChar

StartChar: w
Encoding: 119 119 90
Width: 1600
GlyphClass: 2
Flags: W
LayerCount: 2
Fore
SplineSet
200 1000 m 1,0,-1
 400 1000 l 1,1,-1
 550 300 l 1,2,-1
 700 1000 l 1,3,-1
 900 1000 l 1,4,-1
 1050 300 l 1,5,-1
 1200 1000 l 1,6,-1
 1400 1000 l 1,7,-1
 1150 0 l 1,8,-1
 950 0 l 1,9,-1
 800 700 l 1,10,-1
 650 0 l 1,11,-1
 450 0 l 1,12,-1
 200 1000 l 1,0,-1
EndSplineSet
EndChar

StartChar: x
Encoding: 120 120 91
Width: 1600
GlyphClass: 2
Flags: W
LayerCount: 2
Fore
SplineSet
400 0 m 1,0,-1
 700 500 l 1,1,-1
 400 1000 l 1,2,-1
 600 1000 l 1,3,-1
 800 650 l 1,4,-1
 1000 1000 l 1,5,-1
 1200 1000 l 1,6,-1
 900 500 l 1,7,-1
 1200 0 l 1,8,-1
 1000 0 l 1,9,-1
 800 350 l 1,10,-1
 600 0 l 1,11,-1
 400 0 l 1,0,-1
EndSplineSet
EndChar

StartChar: y
Encoding: 121 121 92
Width: 1600
GlyphClass: 2
Flags: W
LayerCount: 2
Fore
SplineSet
400 1000 m 1,0,-1
 600 1000 l 1,1,-1
 800 250 l 1,2,-1
 1000 1000 l 1,3,-1
 1200 1000 l 1,4,-1
 840 -200 l 1,5,-1
 640 -200 l 1,6,-1
 700 0 l 1,7,-1
 400 1000 l 1,0,-1
EndSplineSet
EndChar

StartChar: z
Encoding: 122 122 93
Width: 1600
GlyphClass: 2
Flags: W
LayerCount: 2
Fore
SplineSet
400 0 m 1,0,-1
 860 800 l 1,1,-1
 400 800 l 1,2,-1
 400 1000 l 1,3,-1
 1200 1000 l 1,4,-1
 740 200 l 1,5,-1
 1200 200 l 1,6,-1
 1200 0 l 1,7,-1
 400 0 l 1,0,-1
EndSplineSet
EndChar

StartChar: braceleft
Encoding: 123 123 94
Width: 1600
GlyphClass: 2
Flags: W
LayerCount: 2
Fore
SplineSet
500 500 m 1,0,-1
 500 700 l 1,1,-1
 600 700 l 1,2,-1
 700 800 l 1,3,-1
 600 1100 l 1,4,-1
 600 1200 l 1,5,-1
 800 1400 l 1,6,-1
 1100 1400 l 1,7,-1
 1100 1200 l 1,8,-1
 900 1200 l 1,9,-1
 800 1100 l 1,10,-1
 900 800 l 1,11,-1
 900 700 l 1,12,-1
 800 600 l 1,13,-1
 900 500 l 1,14,-1
 900 400 l 1,15,-1
 800 100 l 1,16,-1
 900 0 l 1,17,-1
 1100 0 l 1,18,-1
 1100 -200 l 1,19,-1
 810 -200 l 1,20,-1
 600 0 l 1,21,-1
 600 100 l 1,22,-1
 700 400 l 1,23,-1
 600 500 l 1,24,-1
 500 500 l 1,0,-1
EndSplineSet
EndChar

StartChar: bar
Encoding: 124 124 95
Width: 1600
GlyphClass: 2
Flags: W
LayerCount: 2
Fore
SplineSet
700 -200 m 1,0,-1
 700 1400 l 1,1,-1
 900 1400 l 1,2,-1
 900 -200 l 1,3,-1
 700 -200 l 1,0,-1
EndSplineSet
EndChar

StartChar: braceright
Encoding: 125 125 96
Width: 1600
GlyphClass: 2
Flags: W
LayerCount: 2
Fore
SplineSet
500 0 m 1,0,-1
 700 0 l 1,1,-1
 800 100 l 1,2,-1
 700 400 l 1,3,-1
 700 500 l 1,4,-1
 800 600 l 1,5,-1
 700 700 l 1,6,-1
 700 800 l 1,7,-1
 800 1100 l 1,8,-1
 700 1200 l 1,9,-1
 500 1200 l 1,10,-1
 500 1400 l 1,11,-1
 790 1400 l 1,12,-1
 1000 1200 l 1,13,-1
 1000 1100 l 1,14,-1
 900 800 l 1,15,-1
 1000 700 l 1,16,-1
 1100 700 l 1,17,-1
 1100 500 l 1,18,-1
 1000 500 l 1,19,-1
 900 400 l 1,20,-1
 1000 100 l 1,21,-1
 1000 0 l 1,22,-1
 800 -200 l 1,23,-1
 500 -200 l 1,24,-1
 500 0 l 1,0,-1
EndSplineSet
EndChar

StartChar: asciitilde
Encoding: 126 126 97
Width: 1600
GlyphClass: 2
Flags: W
LayerCount: 2
Fore
SplineSet
400 600 m 1,0,-1
 400 800 l 1,1,-1
 500 900 l 1,2,-1
 600 900 l 1,3,-1
 1000 700 l 1,4,-1
 1000 800 l 1,5,-1
 1200 800 l 1,6,-1
 1200 600 l 1,7,-1
 1100 500 l 1,8,-1
 1000 500 l 1,9,-1
 600 700 l 1,10,-1
 600 600 l 1,11,-1
 400 600 l 1,0,-1
EndSplineSet
EndChar

StartChar: Adieresis
Encoding: 196 196 98
Width: 1600
GlyphClass: 2
Flags: W
LayerCount: 2
Fore
SplineSet
200 0 m 1,0,-1
 700 1000 l 1,1,-1
 900 1000 l 1,2,-1
 1400 0 l 1,3,-1
 1180 0 l 1,4,-1
 1085 200 l 1,5,-1
 515 200 l 1,6,-1
 420 0 l 1,7,-1
 200 0 l 1,0,-1
500 1200 m 1,8,-1
 500 1400 l 1,9,-1
 700 1400 l 1,10,-1
 700 1200 l 1,11,-1
 500 1200 l 1,8,-1
610 400 m 1,12,-1
 990 400 l 1,13,-1
 800 800 l 1,14,-1
 610 400 l 1,12,-1
900 1200 m 1,15,-1
 900 1400 l 1,16,-1
 1100 1400 l 1,17,-1
 1100 1200 l 1,18,-1
 900 1200 l 1,15,-1
EndSplineSet
EndChar

StartChar: Aring
Encoding: 197 197 99
Width: 1600
GlyphClass: 2
Flags: W
LayerCount: 2
Fore
SplineSet
200 0 m 1,0,-1
 700 1000 l 1,1,-1
 900 1000 l 1,2,-1
 1400 0 l 1,3,-1
 1180 0 l 1,4,-1
 1085 200 l 1,5,-1
 515 200 l 1,6,-1
 420 0 l 1,7,-1
 200 0 l 1,0,-1
500 1200 m 1,8,-1
 500 1300 l 1,9,-1
 600 1400 l 1,10,-1
 1000 1400 l 1,11,-1
 1100 1300 l 1,12,-1
 1100 1200 l 1,13,-1
 1000 1100 l 1,14,-1
 600 1100 l 1,15,-1
 500 1200 l 1,8,-1
610 400 m 1,16,-1
 990 400 l 1,17,-1
 800 800 l 1,18,-1
 610 400 l 1,16,-1
700 1200 m 1,19,-1
 900 1200 l 1,20,-1
 900 1300 l 1,21,-1
 700 1300 l 1,22,-1
 700 1200 l 1,19,-1
EndSplineSet
EndChar

StartChar: Ccedilla
Encoding: 199 199 100
Width: 1600
GlyphClass: 2
Flags: W
LayerCount: 2
Fore
SplineSet
200 500 m 1,0,-1
 200 1100 l 1,1,-1
 500 1400 l 1,2,-1
 1100 1400 l 1,3,-1
 1400 1100 l 1,4,-1
 1400 1000 l 1,5,-1
 1200 1000 l 1,6,-1
 1000 1200 l 1,7,-1
 600 1200 l 1,8,-1
 400 1000 l 1,9,-1
 400 600 l 1,10,-1
 600 400 l 1,11,-1
 1000 400 l 1,12,-1
 1200 600 l 1,13,-1
 1400 600 l 1,14,-1
 1400 500 l 1,15,-1
 1100 200 l 1,16,-1
 1000 200 l 1,17,-1
 1100 100 l 1,18,-1
 1100 -100 l 1,19,-1
 1000 -200 l 1,20,-1
 700 -200 l 1,21,-1
 700 -100 l 1,22,-1
 900 -100 l 1,23,-1
 900 100 l 1,24,-1
 700 100 l 1,25,-1
 700 200 l 1,26,-1
 500 200 l 1,27,-1
 200 500 l 1,0,-1
EndSplineSet
EndChar

StartChar: Eacute
Encoding: 201 201 101
Width: 1600
GlyphClass: 2
Flags: W
LayerCount: 2
Fore
SplineSet
200 0 m 1,0,-1
 200 1000 l 1,1,-1
 1400 1000 l 1,2,-1
 1400 800 l 1,3,-1
 400 800 l 1,4,-1
 400 600 l 1,5,-1
 1200 600 l 1,6,-1
 1200 400 l 1,7,-1
 400 400 l 1,8,-1
 400 200 l 1,9,-1
 1400 200 l 1,10,-1
 1400 0 l 1,11,-1
 200 0 l 1,0,-1
720 1100 m 1,12,-1
 900 1400 l 1,13,-1
 1100 1400 l 1,14,-1
 880 1100 l 1,15,-1
 720 1100 l 1,12,-1
EndSplineSet
EndChar

StartChar: Ntilde
Encoding: 209 209 102
Width: 1600
GlyphClass: 2
Flags: W
LayerCount: 2
Fore
SplineSet
200 0 m 1,0,-1
 200 1000 l 1,1,-1
 450 1000 l 1,2,-1
 1200 240 l 1,3,-1
 1200 1000 l 1,4,-1
 1400 1000 l 1,5,-1
 1400 0 l 1,6,-1
 1150 0 l 1,7,-1
 400 760 l 1,8,-1
 400 0 l 1,9,-1
 200 0 l 1,0,-1
400 1100 m 1,10,-1
 400 1300 l 1,11,-1
 500 1400 l 1,12,-1
 600 1400 l 1,13,-1
 1000 1300 l 1,14,-1
 1000 1400 l 1,15,-1
 1200 1400 l 1,16,-1
 1200 1200 l 1,17,-1
 1100 1100 l 1,18,-1
 1000 1100 l 1,19,-1
 600 1200 l 1,20,-1
 600 1100 l 1,21,-1
 400 1100 l 1,10,-1
EndSplineSet
EndChar

StartChar: Odieresis
Encoding: 214 214 103
Width: 1600
GlyphClass: 2
Flags: W
LayerCount: 2
Fore
SplineSet
200 300 m 1,0,-1
 200 700 l 1,1,-1
 500 1000 l 1,2,-1
 1100 1000 l 1,3,-1
 1400 700 l 1,4,-1
 1400 300 l 1,5,-1
 1100 0 l 1,6,-1
 500 0 l 1,7,-1
 200 300 l 1,0,-1
400 400 m 1,8,-1
 600 200 l 1,9,-1
 1000 200 l 1,10,-1
 1200 400 l 1,11,-1
 1200 600 l 1,12,-1
 1000 800 l 1,13,-1
 600 800 l 1,14,-1
 400 600 l 1,15,-1
 400 400 l 1,8,-1
500 1200 m 1,16,-1
 500 1400 l 1,17,-1
 700 1400 l 1,18,-1
 700 1200 l 1,19,-1
 500 1200 l 1,16,-1
900 1200 m 1,20,-1
 900 1400 l 1,21,-1
 1100 1400 l 1,22,-1
 1100 1200 l 1,23,-1
 900 1200 l 1,20,-1
EndSplineSet
EndChar

StartChar: Udieresis
Encoding: 220 220 104
Width: 1600
GlyphClass: 2
Flags: W
LayerCount: 2
Fore
SplineSet
200 300 m 1,0,-1
 200 1000 l 1,1,-1
 400 1000 l 1,2,-1
 400 400 l 1,3,-1
 600 200 l 1,4,-1
 1000 200 l 1,5,-1
 1200 400 l 1,6,-1
 1200 1000 l 1,7,-1
 1400 1000 l 1,8,-1
 1400 300 l 1,9,-1
 1100 0 l 1,10,-1
 500 0 l 1,11,-1
 200 300 l 1,0,-1
500 1200 m 1,12,-1
 500 1400 l 1,13,-1
 700 1400 l 1,14,-1
 700 1200 l 1,15,-1
 500 1200 l 1,12,-1
900 1200 m 1,16,-1
 900 1400 l 1,17,-1
 1100 1400 l 1,18,-1
 1100 1200 l 1,19,-1
 900 1200 l 1,16,-1
EndSplineSet
EndChar

StartChar: aacute
Encoding: 225 225 105
Width: 1600
GlyphClass: 2
Flags: W
LayerCount: 2
Fore
SplineSet
400 200 m 1,0,-1
 400 400 l 1,1,-1
 600 600 l 1,2,-1
 1000 600 l 1,3,-1
 1000 700 l 1,4,-1
 900 800 l 1,5,-1
 600 800 l 1,6,-1
 600 1000 l 1,7,-1
 1000 1000 l 1,8,-1
 1200 800 l 1,9,-1
 1200 0 l 1,10,-1
 600 0 l 1,11,-1
 400 200 l 1,0,-1
600 300 m 1,12,-1
 700 200 l 1,13,-1
 1000 200 l 1,14,-1
 1000 400 l 1,15,-1
 700 400 l 1,16,-1
 600 300 l 1,12,-1
720 1100 m 1,17,-1
 900 1400 l 1,18,-1
 1100 1400 l 1,19,-1
 880 1100 l 1,20,-1
 720 1100 l 1,17,-1
EndSplineSet
EndChar

StartChar: agrave
Encoding: 224 224 106
Width: 1600
GlyphClass: 2
Flags: W
LayerCount: 2
Fore
SplineSet
400 200 m 1,0,-1
 400 400 l 1,1,-1
 600 600 l 1,2,-1
 1000 600 l 1,3,-1
 1000 700 l 1,4,-1
 900 800 l 1,5,-1
 600 800 l 1,6,-1
 600 1000 l 1,7,-1
 1000 1000 l 1,8,-1
 1200 800 l 1,9,-1
 1200 0 l 1,10,-1
 600 0 l 1,11,-1
 400 200 l 1,0,-1
500 1400 m 1,12,-1
 700 1400 l 1,13,-1
 880 1100 l 1,14,-1
 720 1100 l 1,15,-1
 500 1400 l 1,12,-1
600 300 m 1,16,-1
 700 200 l 1,17,-1
 1000 200 l 1,18,-1
 1000 400 l 1,19,-1
 700 400 l 1,20,-1
 600 300 l 1,16,-1
EndSplineSet
EndChar

StartChar: acircumflex
Encoding: 226 226 107
Width: 1600
GlyphClass: 2
Flags: W
LayerCount: 2
Fore
SplineSet
400 200 m 1,0,-1
 400 400 l 1,1,-1
 600 600 l 1,2,-1
 1000 600 l 1,3,-1
 1000 700 l 1,4,-1
 900 800 l 1,5,-1
 600 800 l 1,6,-1
 600 1000 l 1,7,-1
 1000 1000 l 1,8,-1
 1200 800 l 1,9,-1
 1200 0 l 1,10,-1
 600 0 l 1,11,-1
 400 200 l 1,0,-1
500 1100 m 1,12,-1
 700 1400 l 1,13,-1
 900 1400 l 1,14,-1
 1100 1100 l 1,15,-1
 900 1100 l 1,16,-1
 800 1280 l 1,17,-1
 700 1100 l 1,18,-1
 500 1100 l 1,12,-1
600 300 m 1,19,-1
 700 200 l 1,20,-1
 1000 200 l 1,21,-1
 1000 400 l 1,22,-1
 700 400 l 1,23,-1
 600 300 l 1,19,-1
EndSplineSet
EndChar

StartChar: adieresis
Encoding: 228 228 108
Width: 1600
GlyphClass: 2
Flags: W
LayerCount: 2
Fore
SplineSet
400 200 m 1,0,-1
 400 400 l 1,1,-1
 600 600 l 1,2,-1
 1000 600 l 1,3,-1
 1000 700 l 1,4,-1
 900 800 l 1,5,-1
 600 800 l 1,6,-1
 600 1000 l 1,7,-1
 1000 1000 l 1,8,-1
 1200 800 l 1,9,-1
 1200 0 l 1,10,-1
 600 0 l 1,11,-1
 400 200 l 1,0,-1
500 1200 m 1,12,-1
 500 1400 l 1,13,-1
 700 1400 l 1,14,-1
 700 1200 l 1,15,-1
 500 1200 l 1,12,-1
600 300 m 1,16,-1
 700 200 l 1,17,-1
 1000 200 l 1,18,-1
 1000 400 l 1,19,-1
 700 400 l 1,20,-1
 600 300 l 1,16,-1
900 1200 m 1,21,-1
 900 1400 l 1,22,-1
 1100 1400 l 1,23,-1
 1100 1200 l 1,24,-1
 900 1200 l 1,21,-1
EndSplineSet
EndChar

StartChar: atilde
Encoding: 227 227 109
Width: 1600
GlyphClass: 2
Flags: W
LayerCount: 2
Fore
SplineSet
400 200 m 1,0,-1
 400 400 l 1,1,-1
 600 600 l 1,2,-1
 1000 600 l 1,3,-1
 1000 700 l 1,4,-1
 900 800 l 1,5,-1
 600 800 l 1,6,-1
 600 1000 l 1,7,-1
 1000 1000 l 1,8,-1
 1200 800 l 1,9,-1
 1200 0 l 1,10,-1
 600 0 l 1,11,-1
 400 200 l 1,0,-1
400 1100 m 1,12,-1
 400 1300 l 1,13,-1
 500 1400 l 1,14,-1
 600 1400 l 1,15,-1
 1000 1300 l 1,16,-1
 1000 1400 l 1,17,-1
 1200 1400 l 1,18,-1
 1200 1200 l 1,19,-1
 1100 1100 l 1,20,-1
 1000 1100 l 1,21,-1
 600 1200 l 1,22,-1
 600 1100 l 1,23,-1
 400 1100 l 1,12,-1
600 300 m 1,24,-1
 700 200 l 1,25,-1
 1000 200 l 1,26,-1
 1000 400 l 1,27,-1
 700 400 l 1,28,-1
 600 300 l 1,24,-1
EndSplineSet
EndChar

StartChar: aring
Encoding: 229 229 110
Width: 1600
GlyphClass: 2
Flags: W
LayerCount: 2
Fore
SplineSet
400 200 m 1,0,-1
 400 400 l 1,1,-1
 600 600 l 1,2,-1
 1000 600 l 1,3,-1
 1000 700 l 1,4,-1
 900 800 l 1,5,-1
 600 800 l 1,6,-1
 600 1000 l 1,7,-1
 1000 1000 l 1,8,-1
 1200 800 l 1,9,-1
 1200 0 l 1,10,-1
 600 0 l 1,11,-1
 400 200 l 1,0,-1
500 1200 m 1,12,-1
 500 1300 l 1,13,-1
 600 1400 l 1,14,-1
 1000 1400 l 1,15,-1
 1100 1300 l 1,16,-1
 1100 1200 l 1,17,-1
 1000 1100 l 1,18,-1
 600 1100 l 1,19,-1
 500 1200 l 1,12,-1
600 300 m 1,20,-1
 700 200 l 1,21,-1
 1000 200 l 1,22,-1
 1000 400 l 1,23,-1
 700 400 l 1,24,-1
 600 300 l 1,20,-1
700 1200 m 1,25,-1
 900 1200 l 1,26,-1
 900 1300 l 1,27,-1
 700 1300 l 1,28,-1
 700 1200 l 1,25,-1
EndSplineSet
EndChar

StartChar: ccedilla
Encoding: 231 231 111
Width: 1600
GlyphClass: 2
Flags: W
LayerCount: 2
Fore
SplineSet
400 400 m 1,0,-1
 400 1000 l 1,1,-1
 600 1200 l 1,2,-1
 1000 1200 l 1,3,-1
 1200 1000 l 1,4,-1
 1200 900 l 1,5,-1
 1000 900 l 1,6,-1
 900 1000 l 1,7,-1
 700 1000 l 1,8,-1
 600 900 l 1,9,-1
 600 500 l 1,10,-1
 700 400 l 1,11,-1
 900 400 l 1,12,-1
 1000 500 l 1,13,-1
 1200 500 l 1,14,-1
 1200 400 l 1,15,-1
 1000 200 l 1,16,-1
 1100 100 l 1,17,-1
 1100 -100 l 1,18,-1
 1000 -200 l 1,19,-1
 700 -200 l 1,20,-1
 700 -100 l 1,21,-1
 900 -100 l 1,22,-1
 900 100 l 1,23,-1
 700 100 l 1,24,-1
 700 200 l 1,25,-1
 600 200 l 1,26,-1
 400 400 l 1,0,-1
EndSplineSet
EndChar

StartChar: eacute
Encoding: 233 233 112
Width: 1600
GlyphClass: 2
Flags: W
LayerCount: 2
Fore
SplineSet
400 200 m 1,0,-1
 400 800 l 1,1,-1
 600 1000 l 1,2,-1
 1000 1000 l 1,3,-1
 1200 800 l 1,4,-1
 1200 400 l 1,5,-1
 600 400 l 1,6,-1
 600 300 l 1,7,-1
 700 200 l 1,8,-1
 1200 200 l 1,9,-1
 1200 0 l 1,10,-1
 600 0 l 1,11,-1
 400 200 l 1,0,-1
600 600 m 1,12,-1
 1000 600 l 1,13,-1
 1000 700 l 1,14,-1
 900 800 l 1,15,-1
 700 800 l 1,16,-1
 600 700 l 1,17,-1
 600 600 l 1,12,-1
720 1100 m 1,18,-1
 900 1400 l 1,19,-1
 1100 1400 l 1,20,-1
 880 1100 l 1,21,-1
 720 1100 l 1,18,-1
EndSplineSet
EndChar

StartChar: egrave
Encoding: 232 232 113
Width: 1600
GlyphClass: 2
Flags: W
LayerCount: 2
Fore
SplineSet
400 200 m 1,0,-1
 400 800 l 1,1,-1
 600 1000 l 1,2,-1
 1000 1000 l 1,3,-1
 1200 800 l 1,4,-1
 1200 400 l 1,5,-1
 600 400 l 1,6,-1
 600 300 l 1,7,-1
 700 200 l 1,8,-1
 1200 200 l 1,9,-1
 1200 0 l 1,10,-1
 600 0 l 1,11,-1
 400 200 l 1,0,-1
500 1400 m 1,12,-1
 700 1400 l 1,13,-1
 880 1100 l 1,14,-1
 720 1100 l 1,15,-1
 500 1400 l 1,12,-1
600 600 m 1,16,-1
 1000 600 l 1,17,-1
 1000 700 l 1,18,-1
 900 800 l 1,19,-1
 700 800 l 1,20,-1
 600 700 l 1,21,-1
 600 600 l 1,16,-1
EndSplineSet
EndChar

StartChar: ecircumflex
Encoding: 234 234 114
Width: 1600
GlyphClass: 2
Flags: W
LayerCount: 2
Fore
SplineSet
400 200 m 1,0,-1
 400 800 l 1,1,-1
 600 1000 l 1,2,-1
 1000 1000 l 1,3,-1
 1200 800 l 1,4,-1
 1200 400 l 1,5,-1
 600 400 l 1,6,-1
 600 300 l 1,7,-1
 700 200 l 1,8,-1
 1200 200 l 1,9,-1
 1200 0 l 1,10,-1
 600 0 l 1,11,-1
 400 200 l 1,0,-1
500 1100 m 1,12,-1
 700 1400 l 1,13,-1
 900 1400 l 1,14,-1
 1100 1100 l 1,15,-1
 900 1100 l 1,16,-1
 800 1280 l 1,17,-1
 700 1100 l 1,18,-1
 500 1100 l 1,12,-1
600 600 m 1,19,-1
 1000 600 l 1,20,-1
 1000 700 l 1,21,-1
 900 800 l 1,22,-1
 700 800 l 1,23,-1
 600 700 l 1,24,-1
 600 600 l 1,19,-1
EndSplineSet
EndChar

StartChar: edieresis
Encoding: 235 235 115
Width: 1600
GlyphClass: 2
Flags: W
LayerCount: 2
Fore
SplineSet
400 200 m 1,0,-1
 400 800 l 1,1,-1
 600 1000 l 1,2,-1
 1000 1000 l 1,3,-1
 1200 800 l 1,4,-1
 1200 400 l 1,5,-1
 600 400 l 1,6,-1
 600 300 l 1,7,-1
 700 200 l 1,8,-1
 1200 200 l 1,9,-1
 1200 0 l 1,10,-1
 600 0 l 1,11,-1
 400 200 l 1,0,-1
500 1200 m 1,12,-1
 500 1400 l 1,13,-1
 700 1400 l 1,14,-1
 700 1200 l 1,15,-1
 500 1200 l 1,12,-1
600 600 m 1,16,-1
 1000 600 l 1,17,-1
 1000 700 l 1,18,-1
 900 800 l 1,19,-1
 700 800 l 1,20,-1
 600 700 l 1,21,-1
 600 600 l 1,16,-1
900 1200 m 1,22,-1
 900 1400 l 1,23,-1
 1100 1400 l 1,24,-1
 1100 1200 l 1,25,-1
 900 1200 l 1,22,-1
EndSplineSet
EndChar

StartChar: iacute
Encoding: 237 237 116
Width: 1600
GlyphClass: 2
Flags: W
LayerCount: 2
Fore
SplineSet
400 0 m 1,0,-1
 400 200 l 1,1,-1
 700 200 l 1,2,-1
 700 800 l 1,3,-1
 400 800 l 1,4,-1
 400 1000 l 1,5,-1
 900 1000 l 1,6,-1
 900 200 l 1,7,-1
 1200 200 l 1,8,-1
 1200 0 l 1,9,-1
 400 0 l 1,0,-1
720 1100 m 1,10,-1
 900 1400 l 1,11,-1
 1100 1400 l 1,12,-1
 880 1100 l 1,13,-1
 720 1100 l 1,10,-1
EndSplineSet
Substitution2: "'locl' Localized Forms in Latin lookup 1 subtable" iacute.locl
EndChar

StartChar: igrave
Encoding: 236 236 117
Width: 1600
GlyphClass: 2
Flags: W
LayerCount: 2
Fore
SplineSet
400 0 m 1,0,-1
 400 200 l 1,1,-1
 700 200 l 1,2,-1
 700 800 l 1,3,-1
 400 800 l 1,4,-1
 400 1000 l 1,5,-1
 900 1000 l 1,6,-1
 900 200 l 1,7,-1
 1200 200 l 1,8,-1
 1200 0 l 1,9,-1
 400 0 l 1,0,-1
500 1400 m 1,10,-1
 700 1400 l 1,11,-1
 880 1100 l 1,12,-1
 720 1100 l 1,13,-1
 500 1400 l 1,10,-1
EndSplineSet
EndChar

StartChar: icircumflex
Encoding: 238 238 118
Width: 1600
GlyphClass: 2
Flags: W
LayerCount: 2
Fore
SplineSet
400 0 m 1,0,-1
 400 200 l 1,1,-1
 700 200 l 1,2,-1
 700 800 l 1,3,-1
 400 800 l 1,4,-1
 400 1000 l 1,5,-1
 900 1000 l 1,6,-1
 900 200 l 1,7,-1
 1200 200 l 1,8,-1
 1200 0 l 1,9,-1
 400 0 l 1,0,-1
500 1100 m 1,10,-1
 700 1400 l 1,11,-1
 900 1400 l 1,12,-1
 1100 1100 l 1,13,-1
 900 1100 l 1,14,-1
 800 1280 l 1,15,-1
 700 1100 l 1,16,-1
 500 1100 l 1,10,-1
EndSplineSet
EndChar

StartChar: idieresis
Encoding: 239 239 119
Width: 1600
GlyphClass: 2
Flags: W
LayerCount: 2
Fore
SplineSet
400 0 m 1,0,-1
 400 200 l 1,1,-1
 700 200 l 1,2,-1
 700 800 l 1,3,-1
 400 800 l 1,4,-1
 400 1000 l 1,5,-1
 900 1000 l 1,6,-1
 900 200 l 1,7,-1
 1200 200 l 1,8,-1
 1200 0 l 1,9,-1
 400 0 l 1,0,-1
500 1200 m 1,10,-1
 500 1400 l 1,11,-1
 700 1400 l 1,12,-1
 700 1200 l 1,13,-1
 500 1200 l 1,10,-1
900 1200 m 1,14,-1
 900 1400 l 1,15,-1
 1100 1400 l 1,16,-1
 1100 1200 l 1,17,-1
 900 1200 l 1,14,-1
EndSplineSet
EndChar

StartChar: ntilde
Encoding: 241 241 120
Width: 1600
GlyphClass: 2
Flags: W
LayerCount: 2
Fore
SplineSet
400 0 m 1,0,-1
 400 1000 l 1,1,-1
 1000 1000 l 1,2,-1
 1200 800 l 1,3,-1
 1200 0 l 1,4,-1
 1000 0 l 1,5,-1
 1000 700 l 1,6,-1
 900 800 l 1,7,-1
 600 800 l 1,8,-1
 600 0 l 1,9,-1
 400 0 l 1,0,-1
400 1100 m 1,10,-1
 400 1300 l 1,11,-1
 500 1400 l 1,12,-1
 600 1400 l 1,13,-1
 1000 1300 l 1,14,-1
 1000 1400 l 1,15,-1
 1200 1400 l 1,16,-1
 1200 1200 l 1,17,-1
 1100 1100 l 1,18,-1
 1000 1100 l 1,19,-1
 600 1200 l 1,20,-1
 600 1100 l 1,21,-1
 400 1100 l 1,10,-1
EndSplineSet
EndChar

StartChar: oacute
Encoding: 243 243 121
Width: 1600
GlyphClass: 2
Flags: W
LayerCount: 2
Fore
SplineSet
400 200 m 1,0,-1
 400 800 l 1,1,-1
 600 1000 l 1,2,-1
 1000 1000 l 1,3,-1
 1200 800 l 1,4,-1
 1200 200 l 1,5,-1
 1000 0 l 1,6,-1
 600 0 l 1,7,-1
 400 200 l 1,0,-1
600 300 m 1,8,-1
 700 200 l 1,9,-1
 900 200 l 1,10,-1
 1000 300 l 1,11,-1
 1000 700 l 1,12,-1
 900 800 l 1,13,-1
 700 800 l 1,14,-1
 600 700 l 1,15,-1
 600 300 l 1,8,-1
720 1100 m 1,16,-1
 900 1400 l 1,17,-1
 1100 1400 l 1,18,-1
 880 1100 l 1,19,-1
 720 1100 l 1,16,-1
EndSplineSet
EndChar

StartChar: ograve
Encoding: 242 242 122
Width: 1600
GlyphClass: 2
Flags: W
LayerCount: 2
Fore
SplineSet
400 200 m 1,0,-1
 400 800 l 1,1,-1
 600 1000 l 1,2,-1
 1000 1000 l 1,3,-1
 1200 800 l 1,4,-1
 1200 200 l 1,5,-1
 1000 0 l 1,6,-1
 600 0 l 1,7,-1
 400 200 l 1,0,-1
500 1400 m 1,8,-1
 700 1400 l 1,9,-1
 880 1100 l 1,10,-1
 720 1100 l 1,11,-1
 500 1400 l 1,8,-1
600 300 m 1,12,-1
 700 200 l 1,13,-1
 900 200 l 1,14,-1
 1000 300 l 1,15,-1
 1000 700 l 1,16,-1
 900 800 l 1,17,-1
 700 800 l 1,18,-1
 600 700 l 1,19,-1
 600 300 l 1,12,-1
EndSplineSet
EndChar

StartChar: ocircumflex
Encoding: 244 244 123
Width: 1600
GlyphClass: 2
Flags: W
LayerCount: 2
Fore
SplineSet
400 200 m 1,0,-1
 400 800 l 1,1,-1
 600 1000 l 1,2,-1
 1000 1000 l 1,3,-1
 1200 800 l 1,4,-1
 1200 200 l 1,5,-1
 1000 0 l 1,6,-1
 600 0 l 1,7,-1
 400 200 l 1,0,-1
500 1100 m 1,8,-1
 700 1400 l 1,9,-1
 900 1400 l 1,10,-1
 1100 1100 l 1,11,-1
 900 1100 l 1,12,-1
 800 1280 l 1,13,-1
 700 1100 l 1,14,-1
 500 1100 l 1,8,-1
600 300 m 1,15,-1
 700 200 l 1,16,-1
 900 200 l 1,17,-1
 1000 300 l 1,18,-1
 1000 700 l 1,19,-1
 900 800 l 1,20,-1
 700 800 l 1,21,-1
 600 700 l 1,22,-1
 600 300 l 1,15,-1
EndSplineSet
EndChar

StartChar: odieresis
Encoding: 246 246 124
Width: 1600
GlyphClass: 2
Flags: W
LayerCount: 2
Fore
SplineSet
400 200 m 1,0,-1
 400 800 l 1,1,-1
 600 1000 l 1,2,-1
 1000 1000 l 1,3,-1
 1200 800 l 1,4,-1
 1200 200 l 1,5,-1
 1000 0 l 1,6,-1
 600 0 l 1,7,-1
 400 200 l 1,0,-1
500 1200 m 1,8,-1
 500 1400 l 1,9,-1
 700 1400 l 1,10,-1
 700 1200 l 1,11,-1
 500 1200 l 1,8,-1
600 300 m 1,12,-1
 700 200 l 1,13,-1
 900 200 l 1,14,-1
 1000 300 l 1,15,-1
 1000 700 l 1,16,-1
 900 800 l 1,17,-1
 700 800 l 1,18,-1
 600 700 l 1,19,-1
 600 300 l 1,12,-1
900 1200 m 1,20,-1
 900 1400 l 1,21,-1
 1100 1400 l 1,22,-1
 1100 1200 l 1,23,-1
 900 1200 l 1,20,-1
EndSplineSet
EndChar

StartChar: otilde
Encoding: 245 245 125
Width: 1600
GlyphClass: 2
Flags: W
LayerCount: 2
Fore
SplineSet
400 200 m 1,0,-1
 400 800 l 1,1,-1
 600 1000 l 1,2,-1
 1000 1000 l 1,3,-1
 1200 800 l 1,4,-1
 1200 200 l 1,5,-1
 1000 0 l 1,6,-1
 600 0 l 1,7,-1
 400 200 l 1,0,-1
400 1100 m 1,8,-1
 400 1300 l 1,9,-1
 500 1400 l 1,10,-1
 600 1400 l 1,11,-1
 1000 1300 l 1,12,-1
 1000 1400 l 1,13,-1
 1200 1400 l 1,14,-1
 1200 1200 l 1,15,-1
 1100 1100 l 1,16,-1
 1000 1100 l 1,17,-1
 600 1200 l 1,18,-1
 600 1100 l 1,19,-1
 400 1100 l 1,8,-1
600 300 m 1,20,-1
 700 200 l 1,21,-1
 900 200 l 1,22,-1
 1000 300 l 1,23,-1
 1000 700 l 1,24,-1
 900 800 l 1,25,-1
 700 800 l 1,26,-1
 600 700 l 1,27,-1
 600 300 l 1,20,-1
EndSplineSet
EndChar

StartChar: uacute
Encoding: 250 250 126
Width: 1600
GlyphClass: 2
Flags: W
LayerCount: 2
Fore
SplineSet
400 200 m 1,0,-1
 400 1000 l 1,1,-1
 600 1000 l 1,2,-1
 600 300 l 1,3,-1
 700 200 l 1,4,-1
 1000 200 l 1,5,-1
 1000 1000 l 1,6,-1
 1200 1000 l 1,7,-1
 1200 0 l 1,8,-1
 600 0 l 1,9,-1
 400 200 l 1,0,-1
720 1100 m 1,10,-1
 900 1400 l 1,11,-1
 1100 1400 l 1,12,-1
 880 1100 l 1,13,-1
 720 1100 l 1,10,-1
EndSplineSet
EndChar

StartChar: ugrave
Encoding: 249 249 127
Width: 1600
GlyphClass: 2
Flags: W
LayerCount: 2
Fore
SplineSet
400 200 m 1,0,-1
 400 1000 l 1,1,-1
 600 1000 l 1,2,-1
 600 300 l 1,3,-1
 700 200 l 1,4,-1
 1000 200 l 1,5,-1
 1000 1000 l 1,6,-1
 1200 1000 l 1,7,-1
 1200 0 l 1,8,-1
 600 0 l 1,9,-1
 400 200 l 1,0,-1
500 1400 m 1,10,-1
 700 1400 l 1,11,-1
 880 1100 l 1,12,-1
 720 1100 l 1,13,-1
 500 1400 l 1,10,-1
EndSplineSet
EndChar

StartChar: ucircumflex
Encoding: 251 251 128
Width: 1600
GlyphClass: 2
Flags: W
LayerCount: 2
Fore
SplineSet
400 200 m 1,0,-1
 400 1000 l 1,1,-1
 600 1000 l 1,2,-1
 600 300 l 1,3,-1
 700 200 l 1,4,-1
 1000 200 l 1,5,-1
 1000 1000 l 1,6,-1
 1200 1000 l 1,7,-1
 1200 0 l 1,8,-1
 600 0 l 1,9,-1
 400 200 l 1,0,-1
500 1100 m 1,10,-1
 700 1400 l 1,11,-1
 900 1400 l 1,12,-1
 1100 1100 l 1,13,-1
 900 1100 l 1,14,-1
 800 1280 l 1,15,-1
 700 1100 l 1,16,-1
 500 1100 l 1,10,-1
EndSplineSet
EndChar

StartChar: udieresis
Encoding: 252 252 129
Width: 1600
GlyphClass: 2
Flags: W
LayerCount: 2
Fore
SplineSet
400 200 m 1,0,-1
 400 1000 l 1,1,-1
 600 1000 l 1,2,-1
 600 300 l 1,3,-1
 700 200 l 1,4,-1
 1000 200 l 1,5,-1
 1000 1000 l 1,6,-1
 1200 1000 l 1,7,-1
 1200 0 l 1,8,-1
 600 0 l 1,9,-1
 400 200 l 1,0,-1
500 1200 m 1,10,-1
 500 1400 l 1,11,-1
 700 1400 l 1,12,-1
 700 1200 l 1,13,-1
 500 1200 l 1,10,-1
900 1200 m 1,14,-1
 900 1400 l 1,15,-1
 1100 1400 l 1,16,-1
 1100 1200 l 1,17,-1
 900 1200 l 1,14,-1
EndSplineSet
EndChar

StartChar: dagger
Encoding: 8224 8224 130
Width: 1600
GlyphClass: 2
Flags: W
LayerCount: 2
Fore
SplineSet
500 1000 m 1,0,-1
 500 1200 l 1,1,-1
 700 1200 l 1,2,-1
 700 1400 l 1,3,-1
 900 1400 l 1,4,-1
 900 1200 l 1,5,-1
 1100 1200 l 1,6,-1
 1100 1000 l 1,7,-1
 900 1000 l 1,8,-1
 900 400 l 1,9,-1
 700 400 l 1,10,-1
 700 1000 l 1,11,-1
 500 1000 l 1,0,-1
EndSplineSet
EndChar

StartChar: degree
Encoding: 176 176 131
Width: 1600
GlyphClass: 2
Flags: W
LayerCount: 2
Fore
SplineSet
400 1000 m 1,0,-1
 400 1200 l 1,1,-1
 600 1400 l 1,2,-1
 1000 1400 l 1,3,-1
 1200 1200 l 1,4,-1
 1200 1000 l 1,5,-1
 1000 800 l 1,6,-1
 600 800 l 1,7,-1
 400 1000 l 1,0,-1
600 1100 m 1,8,-1
 700 1000 l 1,9,-1
 900 1000 l 1,10,-1
 1000 1100 l 1,11,-1
 900 1200 l 1,12,-1
 700 1200 l 1,13,-1
 600 1100 l 1,8,-1
EndSplineSet
EndChar

StartChar: cent
Encoding: 162 162 132
Width: 1600
GlyphClass: 2
Flags: W
LayerCount: 2
Fore
SplineSet
400 400 m 1,0,-1
 400 1000 l 1,1,-1
 600 1200 l 1,2,-1
 700 1200 l 1,3,-1
 700 1400 l 1,4,-1
 900 1400 l 1,5,-1
 900 1200 l 1,6,-1
 1000 1200 l 1,7,-1
 1200 1000 l 1,8,-1
 1200 900 l 1,9,-1
 1000 900 l 1,10,-1
 900 1000 l 1,11,-1
 900 400 l 1,12,-1
 1000 500 l 1,13,-1
 1200 500 l 1,14,-1
 1200 400 l 1,15,-1
 1000 200 l 1,16,-1
 900 200 l 1,17,-1
 900 0 l 1,18,-1
 700 0 l 1,19,-1
 700 200 l 1,20,-1
 600 200 l 1,21,-1
 400 400 l 1,0,-1
600 500 m 1,22,-1
 700 400 l 1,23,-1
 700 1000 l 1,24,-1
 600 900 l 1,25,-1
 600 500 l 1,22,-1
EndSplineSet
EndChar

StartChar: sterling
Encoding: 163 163 133
Width: 1600
GlyphClass: 2
Flags: W
LayerCount: 2
Fore
SplineSet
200 100 m 1,0,-1
 200 300 l 1,1,-1
 400 500 l 1,2,-1
 750 500 l 1,3,-1
 700 700 l 1,4,-1
 400 700 l 1,5,-1
 400 900 l 1,6,-1
 650 900 l 1,7,-1
 600 1100 l 1,8,-1
 600 1200 l 1,9,-1
 800 1400 l 1,10,-1
 1200 1400 l 1,11,-1
 1400 1200 l 1,12,-1
 1400 1100 l 1,13,-1
 1200 1100 l 1,14,-1
 1100 1200 l 1,15,-1
 900 1200 l 1,16,-1
 800 1100 l 1,17,-1
 850 900 l 1,18,-1
 1100 900 l 1,19,-1
 1100 700 l 1,20,-1
 900 700 l 1,21,-1
 950 500 l 1,22,-1
 1200 500 l 1,23,-1
 1400 300 l 1,24,-1
 1400 0 l 1,25,-1
 1200 0 l 1,26,-1
 1200 200 l 1,27,-1
 1100 300 l 1,28,-1
 1000 300 l 1,29,-1
 1000 200 l 1,30,-1
 800 0 l 1,31,-1
 300 0 l 1,32,-1
 200 100 l 1,0,-1
400 200 m 1,33,-1
 700 200 l 1,34,-1
 800 300 l 1,35,-1
 500 300 l 1,36,-1
 400 200 l 1,33,-1
EndSplineSet
EndChar

StartChar: section
Encoding: 167 167 134
Width: 1600
GlyphClass: 2
Flags: W
LayerCount: 2
Fore
SplineSet
400 0 m 1,0,-1
 400 200 l 1,1,-1
 900 200 l 1,2,-1
 1000 300 l 1,3,-1
 900 400 l 1,4,-1
 600 400 l 1,5,-1
 400 600 l 1,6,-1
 400 800 l 1,7,-1
 500 900 l 1,8,-1
 400 1000 l 1,9,-1
 400 1200 l 1,10,-1
 600 1400 l 1,11,-1
 1200 1400 l 1,12,-1
 1200 1200 l 1,13,-1
 700 1200 l 1,14,-1
 600 1100 l 1,15,-1
 700 1000 l 1,16,-1
 1000 1000 l 1,17,-1
 1200 800 l 1,18,-1
 1200 600 l 1,19,-1
 1100 500 l 1,20,-1
 1200 400 l 1,21,-1
 1200 200 l 1,22,-1
 1000 0 l 1,23,-1
 400 0 l 1,0,-1
600 700 m 1,24,-1
 700 600 l 1,25,-1
 900 600 l 1,26,-1
 1000 700 l 1,27,-1
 900 800 l 1,28,-1
 700 800 l 1,29,-1
 600 700 l 1,24,-1
EndSplineSet
EndChar

StartChar: bullet
Encoding: 8226 8226 135
Width: 1600
GlyphClass: 2
Flags: W
LayerCount: 2
Fore
SplineSet
600 600 m 1,0,-1
 600 800 l 1,1,-1
 700 900 l 1,2,-1
 900 900 l 1,3,-1
 1000 800 l 1,4,-1
 1000 600 l 1,5,-1
 900 500 l 1,6,-1
 700 500 l 1,7,-1
 600 600 l 1,0,-1
EndSplineSet
EndChar

StartChar: paragraph
Encoding: 182 182 136
Width: 1600
GlyphClass: 2
Flags: W
LayerCount: 2
Fore
SplineSet
200 800 m 1,0,-1
 200 1200 l 1,1,-1
 400 1400 l 1,2,-1
 1400 1400 l 1,3,-1
 1400 1200 l 1,4,-1
 1300 1200 l 1,5,-1
 1300 0 l 1,6,-1
 1100 0 l 1,7,-1
 1100 1200 l 1,8,-1
 1000 1200 l 1,9,-1
 1000 0 l 1,10,-1
 800 0 l 1,11,-1
 800 600 l 1,12,-1
 400 600 l 1,13,-1
 200 800 l 1,0,-1
400 900 m 1,14,-1
 500 800 l 1,15,-1
 800 800 l 1,16,-1
 800 1200 l 1,17,-1
 500 1200 l 1,18,-1
 400 1100 l 1,19,-1
 400 900 l 1,14,-1
EndSplineSet
EndChar

StartChar: germandbls
Encoding: 223 223 137
Width: 1600
GlyphClass: 2
Flags: W
LayerCount: 2
Fore
SplineSet
400 0 m 1,0,-1
 400 1200 l 1,1,-1
 600 1400 l 1,2,-1
 1000 1400 l 1,3,-1
 1200 1200 l 1,4,-1
 1200 800 l 1,5,-1
 1100 700 l 1,6,-1
 1200 600 l 1,7,-1
 1200 200 l 1,8,-1
 1000 0 l 1,9,-1
 800 0 l 1,10,-1
 800 200 l 1,11,-1
 900 200 l 1,12,-1
 1000 300 l 1,13,-1
 1000 500 l 1,14,-1
 900 600 l 1,15,-1
 800 600 l 1,16,-1
 800 800 l 1,17,-1
 900 800 l 1,18,-1
 1000 900 l 1,19,-1
 1000 1100 l 1,20,-1
 900 1200 l 1,21,-1
 700 1200 l 1,22,-1
 600 1100 l 1,23,-1
 600 0 l 1,24,-1
 400 0 l 1,0,-1
EndSplineSet
EndChar

StartChar: registered
Encoding: 174 174 138
Width: 1600
GlyphClass: 2
Flags: W
LayerCount: 2
Fore
SplineSet
200 300 m 1,0,-1
 200 1100 l 1,1,-1
 500 1400 l 1,2,-1
 1100 1400 l 1,3,-1
 1400 1100 l 1,4,-1
 1400 300 l 1,5,-1
 1100 0 l 1,6,-1
 500 0 l 1,7,-1
 200 300 l 1,0,-1
400 200 m 1,8,-1
 600 200 l 1,9,-1
 600 600 l 1,10,-1
 680 600 l 1,11,-1
 980 200 l 1,12,-1
 1200 200 l 1,13,-1
 900 600 l 1,14,-1
 1000 600 l 1,15,-1
 1200 800 l 1,16,-1
 1200 1000 l 1,17,-1
 1000 1200 l 1,18,-1
 400 1200 l 1,19,-1
 400 200 l 1,8,-1
600 800 m 1,20,-1
 600 1000 l 1,21,-1
 900 1000 l 1,22,-1
 1000 900 l 1,23,-1
 900 800 l 1,24,-1
 600 800 l 1,20,-1
EndSplineSet
EndChar

StartChar: copyright
Encoding: 169 169 139
Width: 1600
GlyphClass: 2
Flags: W
LayerCount: 2
Fore
SplineSet
200 300 m 1,0,-1
 200 1100 l 1,1,-1
 500 1400 l 1,2,-1
 1100 1400 l 1,3,-1
 1400 1100 l 1,4,-1
 1400 300 l 1,5,-1
 1100 0 l 1,6,-1
 500 0 l 1,7,-1
 200 300 l 1,0,-1
400 400 m 1,8,-1
 600 200 l 1,9,-1
 1000 200 l 1,10,-1
 1200 400 l 1,11,-1
 1200 500 l 1,12,-1
 1000 500 l 1,13,-1
 900 400 l 1,14,-1
 700 400 l 1,15,-1
 600 500 l 1,16,-1
 600 900 l 1,17,-1
 700 1000 l 1,18,-1
 900 1000 l 1,19,-1
 1000 900 l 1,20,-1
 1200 900 l 1,21,-1
 1200 1000 l 1,22,-1
 1000 1200 l 1,23,-1
 600 1200 l 1,24,-1
 400 1000 l 1,25,-1
 400 400 l 1,8,-1
EndSplineSet
EndChar

StartChar: trademark
Encoding: 8482 8482 140
Width: 1600
GlyphClass: 2
Flags: W
LayerCount: 2
Fore
SplineSet
100 1200 m 1,0,-1
 100 1400 l 1,1,-1
 900 1400 l 1,2,-1
 1100 820 l 1,3,-1
 1300 1400 l 1,4,-1
 1500 1400 l 1,5,-1
 1500 600 l 1,6,-1
 1300 600 l 1,7,-1
 1300 870 l 1,8,-1
 1200 600 l 1,9,-1
 1000 600 l 1,10,-1
 900 870 l 1,11,-1
 900 600 l 1,12,-1
 700 600 l 1,13,-1
 700 1200 l 1,14,-1
 500 1200 l 1,15,-1
 500 600 l 1,16,-1
 300 600 l 1,17,-1
 300 1200 l 1,18,-1
 100 1200 l 1,0,-1
EndSplineSet
EndChar

StartChar: acute
Encoding: 180 180 141
Width: 1600
GlyphClass: 2
Flags: W
LayerCount: 2
Fore
SplineSet
600 1000 m 1,0,-1
 800 1400 l 1,1,-1
 1000 1400 l 1,2,-1
 800 1000 l 1,3,-1
 600 1000 l 1,0,-1
EndSplineSet
EndChar

StartChar: dieresis
Encoding: 168 168 142
Width: 1600
GlyphClass: 2
Flags: W
LayerCount: 2
Fore
SplineSet
500 1200 m 1,0,-1
 500 1400 l 1,1,-1
 700 1400 l 1,2,-1
 700 1200 l 1,3,-1
 500 1200 l 1,0,-1
900 1200 m 1,4,-1
 900 1400 l 1,5,-1
 1100 1400 l 1,6,-1
 1100 1200 l 1,7,-1
 900 1200 l 1,4,-1
EndSplineSet
EndChar

StartChar: notequal
Encoding: 8800 8800 143
Width: 1600
GlyphClass: 2
Flags: W
LayerCount: 2
Fore
SplineSet
500 400 m 1,0,-1
 500 600 l 1,1,-1
 680 600 l 1,2,-1
 720 800 l 1,3,-1
 500 800 l 1,4,-1
 500 1000 l 1,5,-1
 760 1000 l 1,6,-1
 800 1200 l 1,7,-1
 1000 1200 l 1,8,-1
 960 1000 l 1,9,-1
 1100 1000 l 1,10,-1
 1100 800 l 1,11,-1
 920 800 l 1,12,-1
 880 600 l 1,13,-1
 1100 600 l 1,14,-1
 1100 400 l 1,15,-1
 840 400 l 1,16,-1
 800 200 l 1,17,-1
 600 200 l 1,18,-1
 640 400 l 1,19,-1
 500 400 l 1,0,-1
EndSplineSet
EndChar

StartChar: AE
Encoding: 198 198 144
Width: 1600
GlyphClass: 2
Flags: W
LayerCount: 2
Fore
SplineSet
200 0 m 1,0,-1
 700 1400 l 1,1,-1
 1400 1400 l 1,2,-1
 1400 1200 l 1,3,-1
 1000 1200 l 1,4,-1
 1000 800 l 1,5,-1
 1300 800 l 1,6,-1
 1300 600 l 1,7,-1
 1000 600 l 1,8,-1
 1000 200 l 1,9,-1
 1400 200 l 1,10,-1
 1400 0 l 1,11,-1
 800 0 l 1,12,-1
 800 400 l 1,13,-1
 539 400 l 1,14,-1
 400 0 l 1,15,-1
 200 0 l 1,0,-1
609 600 m 1,16,-1
 800 600 l 1,17,-1
 800 1150 l 1,18,-1
 609 600 l 1,16,-1
EndSplineSet
EndChar

StartChar: Oslash
Encoding: 216 216 145
Width: 1600
GlyphClass: 2
Flags: W
LayerCount: 2
Fore
SplineSet
200 300 m 1,0,-1
 200 1100 l 1,1,-1
 500 1400 l 1,2,-1
 1100 1400 l 1,3,-1
 1400 1100 l 1,4,-1
 1400 300 l 1,5,-1
 1100 0 l 1,6,-1
 500 0 l 1,7,-1
 200 300 l 1,0,-1
400 400 m 1,8,-1
 499 301 l 1,9,-1
 940 1200 l 1,10,-1
 600 1200 l 1,11,-1
 400 1000 l 1,12,-1
 400 400 l 1,8,-1
660 200 m 1,13,-1
 1000 200 l 1,14,-1
 1200 400 l 1,15,-1
 1200 1000 l 1,16,-1
 1101 1099 l 1,17,-1
 660 200 l 1,13,-1
EndSplineSet
EndChar

StartChar: infinity
Encoding: 8734 8734 146
Width: 1600
GlyphClass: 2
Flags: W
LayerCount: 2
Fore
SplineSet
200 600 m 1,0,-1
 200 800 l 1,1,-1
 400 1000 l 1,2,-1
 650 1000 l 1,3,-1
 800 850 l 1,4,-1
 950 1000 l 1,5,-1
 1250 1000 l 1,6,-1
 1400 850 l 1,7,-1
 1400 600 l 1,8,-1
 1200 400 l 1,9,-1
 950 400 l 1,10,-1
 800 550 l 1,11,-1
 650 400 l 1,12,-1
 400 400 l 1,13,-1
 200 600 l 1,0,-1
400 700 m 1,14,-1
 500 600 l 1,15,-1
 550 600 l 1,16,-1
 650 700 l 1,17,-1
 550 800 l 1,18,-1
 500 800 l 1,19,-1
 400 700 l 1,14,-1
950 700 m 1,20,-1
 1050 600 l 1,21,-1
 1100 600 l 1,22,-1
 1200 700 l 1,23,-1
 1100 800 l 1,24,-1
 1050 800 l 1,25,-1
 950 700 l 1,20,-1
EndSplineSet
EndChar

StartChar: plusminus
Encoding: 177 177 147
Width: 1600
GlyphClass: 2
Flags: W
LayerCount: 2
Fore
SplineSet
500 0 m 1,0,-1
 500 200 l 1,1,-1
 1100 200 l 1,2,-1
 1100 0 l 1,3,-1
 500 0 l 1,0,-1
500 600 m 1,4,-1
 500 800 l 1,5,-1
 700 800 l 1,6,-1
 700 1000 l 1,7,-1
 900 1000 l 1,8,-1
 900 800 l 1,9,-1
 1100 800 l 1,10,-1
 1100 600 l 1,11,-1
 900 600 l 1,12,-1
 900 400 l 1,13,-1
 700 400 l 1,14,-1
 700 600 l 1,15,-1
 500 600 l 1,4,-1
EndSplineSet
EndChar

StartChar: lessequal
Encoding: 8804 8804 148
Width: 1600
GlyphClass: 2
Flags: W
LayerCount: 2
Fore
SplineSet
500 0 m 1,0,-1
 500 200 l 1,1,-1
 1100 200 l 1,2,-1
 1100 0 l 1,3,-1
 500 0 l 1,0,-1
500 600 m 1,4,-1
 500 800 l 1,5,-1
 1100 1100 l 1,6,-1
 1100 900 l 1,7,-1
 650 700 l 1,8,-1
 1100 500 l 1,9,-1
 1100 300 l 1,10,-1
 500 600 l 1,4,-1
EndSplineSet
EndChar

StartChar: greaterequal
Encoding: 8805 8805 149
Width: 1600
GlyphClass: 2
Flags: W
LayerCount: 2
Fore
SplineSet
500 0 m 1,0,-1
 500 200 l 1,1,-1
 1100 200 l 1,2,-1
 1100 0 l 1,3,-1
 500 0 l 1,0,-1
500 300 m 1,4,-1
 500 500 l 1,5,-1
 950 700 l 1,6,-1
 500 900 l 1,7,-1
 500 1100 l 1,8,-1
 1100 800 l 1,9,-1
 1100 600 l 1,10,-1
 500 300 l 1,4,-1
EndSplineSet
EndChar

StartChar: yen
Encoding: 165 165 150
Width: 1600
GlyphClass: 2
Flags: W
LayerCount: 2
Fore
SplineSet
200 1400 m 1,0,-1
 450 1400 l 1,1,-1
 800 950 l 1,2,-1
 1150 1400 l 1,3,-1
 1400 1400 l 1,4,-1
 900 800 l 1,5,-1
 1200 800 l 1,6,-1
 1200 600 l 1,7,-1
 900 600 l 1,8,-1
 900 400 l 1,9,-1
 1200 400 l 1,10,-1
 1200 200 l 1,11,-1
 900 200 l 1,12,-1
 900 0 l 1,13,-1
 700 0 l 1,14,-1
 700 200 l 1,15,-1
 400 200 l 1,16,-1
 400 400 l 1,17,-1
 700 400 l 1,18,-1
 700 600 l 1,19,-1
 400 600 l 1,20,-1
 400 800 l 1,21,-1
 700 800 l 1,22,-1
 200 1400 l 1,0,-1
EndSplineSet
EndChar

StartChar: mu
Encoding: 181 181 151
Width: 1600
GlyphClass: 2
Flags: W
LayerCount: 2
Fore
SplineSet
400 -200 m 1,0,-1
 400 1000 l 1,1,-1
 600 1000 l 1,2,-1
 600 200 l 1,3,-1
 900 200 l 1,4,-1
 1000 300 l 1,5,-1
 1000 1000 l 1,6,-1
 1200 1000 l 1,7,-1
 1200 200 l 1,8,-1
 1000 0 l 1,9,-1
 600 0 l 1,10,-1
 600 -200 l 1,11,-1
 400 -200 l 1,0,-1
EndSplineSet
EndChar

StartChar: partialdiff
Encoding: 8706 8706 152
Width: 1600
GlyphClass: 2
Flags: W
LayerCount: 2
Fore
SplineSet
400 200 m 1,0,-1
 400 800 l 1,1,-1
 600 1000 l 1,2,-1
 900 1000 l 1,3,-1
 600 1300 l 1,4,-1
 600 1400 l 1,5,-1
 800 1400 l 1,6,-1
 1200 1000 l 1,7,-1
 1200 200 l 1,8,-1
 1000 0 l 1,9,-1
 600 0 l 1,10,-1
 400 200 l 1,0,-1
600 300 m 1,11,-1
 700 200 l 1,12,-1
 900 200 l 1,13,-1
 1000 300 l 1,14,-1
 1000 800 l 1,15,-1
 700 800 l 1,16,-1
 600 700 l 1,17,-1
 600 300 l 1,11,-1
EndSplineSet
EndChar

StartChar: summation
Encoding: 8721 8721 153
Width: 1600
GlyphClass: 2
Flags: W
LayerCount: 2
Fore
SplineSet
200 0 m 1,0,-1
 700 700 l 1,1,-1
 200 1400 l 1,2,-1
 1400 1400 l 1,3,-1
 1400 1000 l 1,4,-1
 1200 1000 l 1,5,-1
 1200 1200 l 1,6,-1
 593 1200 l 1,7,-1
 950 700 l 1,8,-1
 593 200 l 1,9,-1
 1200 200 l 1,10,-1
 1200 400 l 1,11,-1
 1400 400 l 1,12,-1
 1400 0 l 1,13,-1
 200 0 l 1,0,-1
EndSplineSet
EndChar

StartChar: product
Encoding: 8719 8719 154
Width: 1600
GlyphClass: 2
Flags: W
LayerCount: 2
Fore
SplineSet
200 0 m 1,0,-1
 200 200 l 1,1,-1
 300 200 l 1,2,-1
 300 1200 l 1,3,-1
 200 1200 l 1,4,-1
 200 1400 l 1,5,-1
 1400 1400 l 1,6,-1
 1400 1200 l 1,7,-1
 1300 1200 l 1,8,-1
 1300 200 l 1,9,-1
 1400 200 l 1,10,-1
 1400 0 l 1,11,-1
 1000 0 l 1,12,-1
 1000 200 l 1,13,-1
 1100 200 l 1,14,-1
 1100 1200 l 1,15,-1
 500 1200 l 1,16,-1
 500 200 l 1,17,-1
 600 200 l 1,18,-1
 600 0 l 1,19,-1
 200 0 l 1,0,-1
EndSplineSet
EndChar

StartChar: pi
Encoding: 960 960 155
Width: 1600
GlyphClass: 2
Flags: W
LayerCount: 2
Fore
SplineSet
200 800 m 1,0,-1
 200 1000 l 1,1,-1
 1400 1000 l 1,2,-1
 1400 800 l 1,3,-1
 1200 800 l 1,4,-1
 1200 0 l 1,5,-1
 1000 0 l 1,6,-1
 1000 800 l 1,7,-1
 600 800 l 1,8,-1
 600 0 l 1,9,-1
 400 0 l 1,10,-1
 400 800 l 1,11,-1
 200 800 l 1,0,-1
EndSplineSet
EndChar

StartChar: integral
Encoding: 8747 8747 156
Width: 1600
GlyphClass: 2
Flags: W
LayerCount: 2
Fore
SplineSet
400 0 m 1,0,-1
 600 0 l 1,1,-1
 700 100 l 1,2,-1
 700 1200 l 1,3,-1
 900 1400 l 1,4,-1
 1200 1400 l 1,5,-1
 1200 1200 l 1,6,-1
 1000 1200 l 1,7,-1
 900 1100 l 1,8,-1
 900 0 l 1,9,-1
 700 -200 l 1,10,-1
 400 -200 l 1,11,-1
 400 0 l 1,0,-1
EndSplineSet
EndChar

StartChar: ordfeminine
Encoding: 170 170 157
Width: 1600
GlyphClass: 2
Flags: W
LayerCount: 2
Fore
SplineSet
400 700 m 1,0,-1
 400 1000 l 1,1,-1
 500 1100 l 1,2,-1
 1000 1100 l 1,3,-1
 900 1200 l 1,4,-1
 500 1200 l 1,5,-1
 500 1400 l 1,6,-1
 1000 1400 l 1,7,-1
 1200 1200 l 1,8,-1
 1200 600 l 1,9,-1
 500 600 l 1,10,-1
 400 700 l 1,0,-1
600 200 m 1,11,-1
 600 400 l 1,12,-1
 1000 400 l 1,13,-1
 1000 200 l 1,14,-1
 600 200 l 1,11,-1
600 800 m 1,15,-1
 1000 800 l 1,16,-1
 1000 900 l 1,17,-1
 600 900 l 1,18,-1
 600 800 l 1,15,-1
EndSplineSet
EndChar

StartChar: ordmasculine
Encoding: 186 186 158
Width: 1600
GlyphClass: 2
Flags: W
LayerCount: 2
Fore
SplineSet
400 800 m 1,0,-1
 400 1200 l 1,1,-1
 600 1400 l 1,2,-1
 1000 1400 l 1,3,-1
 1200 1200 l 1,4,-1
 1200 800 l 1,5,-1
 1000 600 l 1,6,-1
 600 600 l 1,7,-1
 400 800 l 1,0,-1
600 200 m 1,8,-1
 600 400 l 1,9,-1
 1000 400 l 1,10,-1
 1000 200 l 1,11,-1
 600 200 l 1,8,-1
600 900 m 1,12,-1
 700 800 l 1,13,-1
 900 800 l 1,14,-1
 1000 900 l 1,15,-1
 1000 1100 l 1,16,-1
 900 1200 l 1,17,-1
 700 1200 l 1,18,-1
 600 1100 l 1,19,-1
 600 900 l 1,12,-1
EndSplineSet
EndChar

StartChar: Omega
Encoding: 8486 8486 159
Width: 1600
GlyphClass: 2
Flags: W
LayerCount: 2
Fore
SplineSet
200 0 m 1,0,-1
 200 200 l 1,1,-1
 400 200 l 1,2,-1
 400 300 l 1,3,-1
 200 500 l 1,4,-1
 200 1100 l 1,5,-1
 500 1400 l 1,6,-1
 1100 1400 l 1,7,-1
 1400 1100 l 1,8,-1
 1400 500 l 1,9,-1
 1200 300 l 1,10,-1
 1200 200 l 1,11,-1
 1400 200 l 1,12,-1
 1400 0 l 1,13,-1
 1000 0 l 1,14,-1
 1000 400 l 1,15,-1
 1200 600 l 1,16,-1
 1200 1000 l 1,17,-1
 1000 1200 l 1,18,-1
 600 1200 l 1,19,-1
 400 1000 l 1,20,-1
 400 600 l 1,21,-1
 600 400 l 1,22,-1
 600 0 l 1,23,-1
 200 0 l 1,0,-1
EndSplineSet
EndChar

StartChar: ae
Encoding: 230 230 160
Width: 1600
GlyphClass: 2
Flags: W
LayerCount: 2
Fore
SplineSet
200 200 m 1,0,-1
 200 400 l 1,1,-1
 400 600 l 1,2,-1
 700 600 l 1,3,-1
 700 700 l 1,4,-1
 600 800 l 1,5,-1
 400 800 l 1,6,-1
 400 1000 l 1,7,-1
 700 1000 l 1,8,-1
 800 900 l 1,9,-1
 900 1000 l 1,10,-1
 1200 1000 l 1,11,-1
 1400 800 l 1,12,-1
 1400 400 l 1,13,-1
 900 400 l 1,14,-1
 900 200 l 1,15,-1
 1400 200 l 1,16,-1
 1400 0 l 1,17,-1
 400 0 l 1,18,-1
 200 200 l 1,0,-1
400 300 m 1,19,-1
 500 200 l 1,20,-1
 700 200 l 1,21,-1
 700 400 l 1,22,-1
 500 400 l 1,23,-1
 400 300 l 1,19,-1
900 600 m 1,24,-1
 1200 600 l 1,25,-1
 1200 700 l 1,26,-1
 1100 800 l 1,27,-1
 1000 800 l 1,28,-1
 900 700 l 1,29,-1
 900 600 l 1,24,-1
EndSplineSet
EndChar

StartChar: oslash
Encoding: 248 248 161
Width: 1600
GlyphClass: 2
Flags: W
LayerCount: 2
Fore
SplineSet
400 200 m 1,0,-1
 400 800 l 1,1,-1
 600 1000 l 1,2,-1
 1000 1000 l 1,3,-1
 1200 800 l 1,4,-1
 1200 200 l 1,5,-1
 1000 0 l 1,6,-1
 600 0 l 1,7,-1
 400 200 l 1,0,-1
600 307 m 1,8,-1
 842 800 l 1,9,-1
 700 800 l 1,10,-1
 600 700 l 1,11,-1
 600 307 l 1,8,-1
758 200 m 1,12,-1
 900 200 l 1,13,-1
 1000 300 l 1,14,-1
 1000 693 l 1,15,-1
 758 200 l 1,12,-1
EndSplineSet
EndChar

StartChar: questiondown
Encoding: 191 191 162
Width: 1600
GlyphClass: 2
Flags: W
LayerCount: 2
Fore
SplineSet
400 0 m 1,0,-1
 400 300 l 1,1,-1
 700 600 l 1,2,-1
 900 600 l 1,3,-1
 900 500 l 1,4,-1
 600 200 l 1,5,-1
 600 100 l 1,6,-1
 700 0 l 1,7,-1
 900 0 l 1,8,-1
 1000 100 l 1,9,-1
 1200 100 l 1,10,-1
 1200 0 l 1,11,-1
 1000 -200 l 1,12,-1
 600 -200 l 1,13,-1
 400 0 l 1,0,-1
700 800 m 1,14,-1
 700 1000 l 1,15,-1
 900 1000 l 1,16,-1
 900 800 l 1,17,-1
 700 800 l 1,14,-1
EndSplineSet
EndChar

StartChar: exclamdown
Encoding: 161 161 163
Width: 1600
GlyphClass: 2
Flags: W
LayerCount: 2
Fore
SplineSet
700 -200 m 1,0,-1
 700 600 l 1,1,-1
 900 600 l 1,2,-1
 900 -200 l 1,3,-1
 700 -200 l 1,0,-1
700 800 m 1,4,-1
 700 1000 l 1,5,-1
 900 1000 l 1,6,-1
 900 800 l 1,7,-1
 700 800 l 1,4,-1
EndSplineSet
EndChar

StartChar: logicalnot
Encoding: 172 172 164
Width: 1600
GlyphClass: 2
Flags: W
LayerCount: 2
Fore
SplineSet
500 700 m 1,0,-1
 500 900 l 1,1,-1
 1100 900 l 1,2,-1
 1100 500 l 1,3,-1
 900 500 l 1,4,-1
 900 700 l 1,5,-1
 500 700 l 1,0,-1
EndSplineSet
EndChar

StartChar: radical
Encoding: 8730 8730 165
Width: 1600
GlyphClass: 2
Flags: W
LayerCount: 2
Fore
SplineSet
200 500 m 1,0,-1
 200 700 l 1,1,-1
 500 800 l 1,2,-1
 783 233 l 1,3,-1
 1200 1400 l 1,4,-1
 1400 1400 l 1,5,-1
 900 0 l 1,6,-1
 700 0 l 1,7,-1
 403 569 l 1,8,-1
 200 500 l 1,0,-1
EndSplineSet
EndChar

StartChar: florin
Encoding: 402 402 166
Width: 1600
GlyphClass: 2
Flags: W
LayerCount: 2
Fore
SplineSet
400 0 m 1,0,-1
 600 0 l 1,1,-1
 700 100 l 1,2,-1
 700 800 l 1,3,-1
 400 800 l 1,4,-1
 400 1000 l 1,5,-1
 700 1000 l 1,6,-1
 700 1200 l 1,7,-1
 900 1400 l 1,8,-1
 1200 1400 l 1,9,-1
 1200 1200 l 1,10,-1
 1000 1200 l 1,11,-1
 900 1100 l 1,12,-1
 900 1000 l 1,13,-1
 1200 1000 l 1,14,-1
 1200 800 l 1,15,-1
 900 800 l 1,16,-1
 900 0 l 1,17,-1
 700 -200 l 1,18,-1
 400 -200 l 1,19,-1
 400 0 l 1,0,-1
EndSplineSet
EndChar

StartChar: approxequal
Encoding: 8776 8776 167
Width: 1600
GlyphClass: 2
Flags: W
LayerCount: 2
Fore
SplineSet
400 300 m 1,0,-1
 400 500 l 1,1,-1
 500 600 l 1,2,-1
 600 600 l 1,3,-1
 1000 400 l 1,4,-1
 1000 500 l 1,5,-1
 1200 500 l 1,6,-1
 1200 300 l 1,7,-1
 1100 200 l 1,8,-1
 1000 200 l 1,9,-1
 600 400 l 1,10,-1
 600 300 l 1,11,-1
 400 300 l 1,0,-1
400 900 m 1,12,-1
 400 1100 l 1,13,-1
 500 1200 l 1,14,-1
 600 1200 l 1,15,-1
 1000 1000 l 1,16,-1
 1000 1100 l 1,17,-1
 1200 1100 l 1,18,-1
 1200 900 l 1,19,-1
 1100 800 l 1,20,-1
 1000 800 l 1,21,-1
 600 1000 l 1,22,-1
 600 900 l 1,23,-1
 400 900 l 1,12,-1
EndSplineSet
EndChar

StartChar: Delta
Encoding: 8710 8710 168
Width: 1600
GlyphClass: 2
Flags: W
LayerCount: 2
Fore
SplineSet
200 0 m 1,0,-1
 700 1400 l 1,1,-1
 900 1400 l 1,2,-1
 1400 0 l 1,3,-1
 200 0 l 1,0,-1
470 200 m 1,4,-1
 1130 200 l 1,5,-1
 800 1150 l 1,6,-1
 470 200 l 1,4,-1
EndSplineSet
EndChar

StartChar: guillemotleft
Encoding: 171 171 169
Width: 1600
GlyphClass: 2
Flags: W
LayerCount: 2
Fore
SplineSet
300 600 m 1,0,-1
 300 800 l 1,1,-1
 700 1000 l 1,2,-1
 700 800 l 1,3,-1
 480 700 l 1,4,-1
 700 600 l 1,5,-1
 700 400 l 1,6,-1
 300 600 l 1,0,-1
900 600 m 1,7,-1
 900 800 l 1,8,-1
 1300 1000 l 1,9,-1
 1300 800 l 1,10,-1
 1080 700 l 1,11,-1
 1300 600 l 1,12,-1
 1300 400 l 1,13,-1
 900 600 l 1,7,-1
EndSplineSet
EndChar

StartChar: guillemotright
Encoding: 187 187 170
Width: 1600
GlyphClass: 2
Flags: W
LayerCount: 2
Fore
SplineSet
300 400 m 1,0,-1
 300 600 l 1,1,-1
 520 700 l 1,2,-1
 300 800 l 1,3,-1
 300 1000 l 1,4,-1
 700 800 l 1,5,-1
 700 600 l 1,6,-1
 300 400 l 1,0,-1
900 400 m 1,7,-1
 900 600 l 1,8,-1
 1120 700 l 1,9,-1
 900 800 l 1,10,-1
 900 1000 l 1,11,-1
 1300 800 l 1,12,-1
 1300 600 l 1,13,-1
 900 400 l 1,7,-1
EndSplineSet
EndChar

StartChar: ellipsis
Encoding: 8230 8230 171
Width: 1600
GlyphClass: 2
Flags: W
LayerCount: 2
Fore
SplineSet
200 0 m 1,0,-1
 200 200 l 1,1,-1
 400 200 l 1,2,-1
 400 0 l 1,3,-1
 200 0 l 1,0,-1
700 0 m 1,4,-1
 700 200 l 1,5,-1
 900 200 l 1,6,-1
 900 0 l 1,7,-1
 700 0 l 1,4,-1
1200 0 m 1,8,-1
 1200 200 l 1,9,-1
 1400 200 l 1,10,-1
 1400 0 l 1,11,-1
 1200 0 l 1,8,-1
EndSplineSet
EndChar

StartChar: Agrave
Encoding: 192 192 173
Width: 1600
GlyphClass: 2
Flags: W
LayerCount: 2
Fore
SplineSet
200 0 m 1,0,-1
 700 1000 l 1,1,-1
 900 1000 l 1,2,-1
 1400 0 l 1,3,-1
 1180 0 l 1,4,-1
 1085 200 l 1,5,-1
 515 200 l 1,6,-1
 420 0 l 1,7,-1
 200 0 l 1,0,-1
500 1400 m 1,8,-1
 700 1400 l 1,9,-1
 880 1100 l 1,10,-1
 720 1100 l 1,11,-1
 500 1400 l 1,8,-1
610 400 m 1,12,-1
 990 400 l 1,13,-1
 800 800 l 1,14,-1
 610 400 l 1,12,-1
EndSplineSet
EndChar

StartChar: Atilde
Encoding: 195 195 174
Width: 1600
GlyphClass: 2
Flags: W
LayerCount: 2
Fore
SplineSet
200 0 m 1,0,-1
 700 1000 l 1,1,-1
 900 1000 l 1,2,-1
 1400 0 l 1,3,-1
 1180 0 l 1,4,-1
 1085 200 l 1,5,-1
 515 200 l 1,6,-1
 420 0 l 1,7,-1
 200 0 l 1,0,-1
400 1100 m 1,8,-1
 400 1300 l 1,9,-1
 500 1400 l 1,10,-1
 600 1400 l 1,11,-1
 1000 1300 l 1,12,-1
 1000 1400 l 1,13,-1
 1200 1400 l 1,14,-1
 1200 1200 l 1,15,-1
 1100 1100 l 1,16,-1
 1000 1100 l 1,17,-1
 600 1200 l 1,18,-1
 600 1100 l 1,19,-1
 400 1100 l 1,8,-1
610 400 m 1,20,-1
 990 400 l 1,21,-1
 800 800 l 1,22,-1
 610 400 l 1,20,-1
EndSplineSet
EndChar

StartChar: Otilde
Encoding: 213 213 175
Width: 1600
GlyphClass: 2
Flags: W
LayerCount: 2
Fore
SplineSet
200 300 m 1,0,-1
 200 700 l 1,1,-1
 500 1000 l 1,2,-1
 1100 1000 l 1,3,-1
 1400 700 l 1,4,-1
 1400 300 l 1,5,-1
 1100 0 l 1,6,-1
 500 0 l 1,7,-1
 200 300 l 1,0,-1
400 400 m 1,8,-1
 600 200 l 1,9,-1
 1000 200 l 1,10,-1
 1200 400 l 1,11,-1
 1200 600 l 1,12,-1
 1000 800 l 1,13,-1
 600 800 l 1,14,-1
 400 600 l 1,15,-1
 400 400 l 1,8,-1
400 1100 m 1,16,-1
 400 1300 l 1,17,-1
 500 1400 l 1,18,-1
 600 1400 l 1,19,-1
 1000 1300 l 1,20,-1
 1000 1400 l 1,21,-1
 1200 1400 l 1,22,-1
 1200 1200 l 1,23,-1
 1100 1100 l 1,24,-1
 1000 1100 l 1,25,-1
 600 1200 l 1,26,-1
 600 1100 l 1,27,-1
 400 1100 l 1,16,-1
EndSplineSet
EndChar

StartChar: OE
Encoding: 338 338 176
Width: 1600
GlyphClass: 2
Flags: W
LayerCount: 2
Fore
SplineSet
200 300 m 1,0,-1
 200 1100 l 1,1,-1
 500 1400 l 1,2,-1
 1400 1400 l 1,3,-1
 1400 1200 l 1,4,-1
 1000 1200 l 1,5,-1
 1000 800 l 1,6,-1
 1300 800 l 1,7,-1
 1300 600 l 1,8,-1
 1000 600 l 1,9,-1
 1000 200 l 1,10,-1
 1400 200 l 1,11,-1
 1400 0 l 1,12,-1
 500 0 l 1,13,-1
 200 300 l 1,0,-1
400 400 m 1,14,-1
 600 200 l 1,15,-1
 800 200 l 1,16,-1
 800 1200 l 1,17,-1
 600 1200 l 1,18,-1
 400 1000 l 1,19,-1
 400 400 l 1,14,-1
EndSplineSet
EndChar

StartChar: oe
Encoding: 339 339 177
Width: 1600
GlyphClass: 2
Flags: W
LayerCount: 2
Fore
SplineSet
200 200 m 1,0,-1
 200 800 l 1,1,-1
 400 1000 l 1,2,-1
 700 1000 l 1,3,-1
 800 900 l 1,4,-1
 900 1000 l 1,5,-1
 1200 1000 l 1,6,-1
 1400 800 l 1,7,-1
 1400 400 l 1,8,-1
 900 400 l 1,9,-1
 900 300 l 1,10,-1
 1000 200 l 1,11,-1
 1400 200 l 1,12,-1
 1400 0 l 1,13,-1
 900 0 l 1,14,-1
 800 100 l 1,15,-1
 700 0 l 1,16,-1
 400 0 l 1,17,-1
 200 200 l 1,0,-1
400 300 m 1,18,-1
 500 200 l 1,19,-1
 600 200 l 1,20,-1
 700 300 l 1,21,-1
 700 700 l 1,22,-1
 600 800 l 1,23,-1
 500 800 l 1,24,-1
 400 700 l 1,25,-1
 400 300 l 1,18,-1
900 600 m 1,26,-1
 1200 600 l 1,27,-1
 1200 700 l 1,28,-1
 1100 800 l 1,29,-1
 1000 800 l 1,30,-1
 900 700 l 1,31,-1
 900 600 l 1,26,-1
EndSplineSet
EndChar

StartChar: endash
Encoding: 8211 8211 178
Width: 1600
GlyphClass: 2
Flags: W
LayerCount: 2
Fore
SplineSet
400 600 m 1,0,-1
 400 800 l 1,1,-1
 1200 800 l 1,2,-1
 1200 600 l 1,3,-1
 400 600 l 1,0,-1
EndSplineSet
EndChar

StartChar: emdash
Encoding: 8212 8212 179
Width: 1600
GlyphClass: 2
Flags: W
LayerCount: 2
Fore
SplineSet
0 600 m 1,0,-1
 0 800 l 1,1,-1
 1600 800 l 1,2,-1
 1600 600 l 1,3,-1
 0 600 l 1,0,-1
EndSplineSet
EndChar

StartChar: quotedblleft
Encoding: 8220 8220 180
Width: 1600
GlyphClass: 2
Flags: W
LayerCount: 2
Fore
SplineSet
400 1000 m 1,0,-1
 400 1200 l 1,1,-1
 470 1400 l 1,2,-1
 600 1400 l 1,3,-1
 530 1200 l 1,4,-1
 600 1200 l 1,5,-1
 600 1000 l 1,6,-1
 400 1000 l 1,0,-1
1000 1000 m 1,7,-1
 1000 1200 l 1,8,-1
 1070 1400 l 1,9,-1
 1200 1400 l 1,10,-1
 1130 1200 l 1,11,-1
 1200 1200 l 1,12,-1
 1200 1000 l 1,13,-1
 1000 1000 l 1,7,-1
EndSplineSet
EndChar

StartChar: quotedblright
Encoding: 8221 8221 181
Width: 1600
GlyphClass: 2
Flags: W
LayerCount: 2
Fore
SplineSet
400 1000 m 1,0,-1
 470 1200 l 1,1,-1
 400 1200 l 1,2,-1
 400 1400 l 1,3,-1
 600 1400 l 1,4,-1
 600 1200 l 1,5,-1
 530 1000 l 1,6,-1
 400 1000 l 1,0,-1
1000 1000 m 1,7,-1
 1070 1200 l 1,8,-1
 1000 1200 l 1,9,-1
 1000 1400 l 1,10,-1
 1200 1400 l 1,11,-1
 1200 1200 l 1,12,-1
 1130 1000 l 1,13,-1
 1000 1000 l 1,7,-1
EndSplineSet
EndChar

StartChar: quoteleft
Encoding: 8216 8216 182
Width: 1600
GlyphClass: 2
Flags: W
LayerCount: 2
Fore
SplineSet
700 1000 m 1,0,-1
 700 1200 l 1,1,-1
 770 1400 l 1,2,-1
 900 1400 l 1,3,-1
 830 1200 l 1,4,-1
 900 1200 l 1,5,-1
 900 1000 l 1,6,-1
 700 1000 l 1,0,-1
EndSplineSet
EndChar

StartChar: quoteright
Encoding: 8217 8217 183
Width: 1600
GlyphClass: 2
Flags: W
LayerCount: 2
Fore
SplineSet
700 1000 m 1,0,-1
 770 1200 l 1,1,-1
 700 1200 l 1,2,-1
 700 1400 l 1,3,-1
 900 1400 l 1,4,-1
 900 1200 l 1,5,-1
 830 1000 l 1,6,-1
 700 1000 l 1,0,-1
EndSplineSet
EndChar

StartChar: divide
Encoding: 247 247 184
Width: 1600
GlyphClass: 2
Flags: W
LayerCount: 2
Fore
SplineSet
500 600 m 1,0,-1
 500 800 l 1,1,-1
 1100 800 l 1,2,-1
 1100 600 l 1,3,-1
 500 600 l 1,0,-1
700 300 m 1,4,-1
 700 500 l 1,5,-1
 900 500 l 1,6,-1
 900 300 l 1,7,-1
 700 300 l 1,4,-1
700 900 m 1,8,-1
 700 1100 l 1,9,-1
 900 1100 l 1,10,-1
 900 900 l 1,11,-1
 700 900 l 1,8,-1
EndSplineSet
EndChar

StartChar: lozenge
Encoding: 9674 9674 185
Width: 1600
GlyphClass: 2
Flags: W
LayerCount: 2
Fore
SplineSet
300 700 m 1,0,-1
 700 1400 l 1,1,-1
 900 1400 l 1,2,-1
 1300 700 l 1,3,-1
 900 0 l 1,4,-1
 700 0 l 1,5,-1
 300 700 l 1,0,-1
500 700 m 1,6,-1
 800 160 l 1,7,-1
 1100 700 l 1,8,-1
 800 1240 l 1,9,-1
 500 700 l 1,6,-1
EndSplineSet
EndChar

StartChar: ydieresis
Encoding: 255 255 186
Width: 1600
GlyphClass: 2
Flags: W
LayerCount: 2
Fore
SplineSet
400 1000 m 1,0,-1
 600 1000 l 1,1,-1
 800 250 l 1,2,-1
 1000 1000 l 1,3,-1
 1200 1000 l 1,4,-1
 840 -200 l 1,5,-1
 640 -200 l 1,6,-1
 700 0 l 1,7,-1
 400 1000 l 1,0,-1
500 1200 m 1,8,-1
 500 1400 l 1,9,-1
 700 1400 l 1,10,-1
 700 1200 l 1,11,-1
 500 1200 l 1,8,-1
900 1200 m 1,12,-1
 900 1400 l 1,13,-1
 1100 1400 l 1,14,-1
 1100 1200 l 1,15,-1
 900 1200 l 1,12,-1
EndSplineSet
EndChar

StartChar: Ydieresis
Encoding: 376 376 187
Width: 1600
GlyphClass: 2
Flags: W
LayerCount: 2
Fore
SplineSet
200 1000 m 1,0,-1
 450 1000 l 1,1,-1
 800 580 l 1,2,-1
 1150 1000 l 1,3,-1
 1400 1000 l 1,4,-1
 900 400 l 1,5,-1
 900 0 l 1,6,-1
 700 0 l 1,7,-1
 700 400 l 1,8,-1
 200 1000 l 1,0,-1
500 1200 m 1,9,-1
 500 1400 l 1,10,-1
 700 1400 l 1,11,-1
 700 1200 l 1,12,-1
 500 1200 l 1,9,-1
900 1200 m 1,13,-1
 900 1400 l 1,14,-1
 1100 1400 l 1,15,-1
 1100 1200 l 1,16,-1
 900 1200 l 1,13,-1
EndSplineSet
EndChar

StartChar: fraction
Encoding: 8260 8260 188
Width: 1600
GlyphClass: 2
Flags: W
LayerCount: 2
Fore
SplineSet
200 200 m 1,0,-1
 1200 1200 l 1,1,-1
 1400 1200 l 1,2,-1
 400 200 l 1,3,-1
 200 200 l 1,0,-1
EndSplineSet
EndChar

StartChar: euro
Encoding: 8364 8364 189
Width: 1600
GlyphClass: 2
Flags: W
LayerCount: 2
Fore
SplineSet
200 400 m 1,0,-1
 200 600 l 1,1,-1
 400 600 l 1,2,-1
 400 800 l 1,3,-1
 200 800 l 1,4,-1
 200 1000 l 1,5,-1
 400 1000 l 1,6,-1
 400 1100 l 1,7,-1
 700 1400 l 1,8,-1
 1100 1400 l 1,9,-1
 1400 1100 l 1,10,-1
 1400 1000 l 1,11,-1
 1200 1000 l 1,12,-1
 1000 1200 l 1,13,-1
 800 1200 l 1,14,-1
 600 1000 l 1,15,-1
 900 1000 l 1,16,-1
 900 800 l 1,17,-1
 600 800 l 1,18,-1
 600 600 l 1,19,-1
 900 600 l 1,20,-1
 900 400 l 1,21,-1
 600 400 l 1,22,-1
 800 200 l 1,23,-1
 1000 200 l 1,24,-1
 1200 400 l 1,25,-1
 1400 400 l 1,26,-1
 1400 300 l 1,27,-1
 1100 0 l 1,28,-1
 700 0 l 1,29,-1
 400 300 l 1,30,-1
 400 400 l 1,31,-1
 200 400 l 1,0,-1
EndSplineSet
EndChar

StartChar: guilsinglleft
Encoding: 8249 8249 190
Width: 1600
GlyphClass: 2
Flags: W
LayerCount: 2
Fore
SplineSet
600 600 m 1,0,-1
 600 800 l 1,1,-1
 1000 1000 l 1,2,-1
 1000 800 l 1,3,-1
 780 700 l 1,4,-1
 1000 600 l 1,5,-1
 1000 400 l 1,6,-1
 600 600 l 1,0,-1
EndSplineSet
EndChar

StartChar: guilsinglright
Encoding: 8250 8250 191
Width: 1600
GlyphClass: 2
Flags: W
LayerCount: 2
Fore
SplineSet
600 400 m 1,0,-1
 600 600 l 1,1,-1
 820 700 l 1,2,-1
 600 800 l 1,3,-1
 600 1000 l 1,4,-1
 1000 800 l 1,5,-1
 1000 600 l 1,6,-1
 600 400 l 1,0,-1
EndSplineSet
EndChar

StartChar: fi
Encoding: 64257 64257 192
Width: 1600
GlyphClass: 2
Flags: W
LayerCount: 2
Fore
SplineSet
200 800 m 1,0,-1
 200 1000 l 1,1,-1
 400 1000 l 1,2,-1
 400 1200 l 1,3,-1
 600 1400 l 1,4,-1
 1000 1400 l 1,5,-1
 1000 1200 l 1,6,-1
 700 1200 l 1,7,-1
 600 1100 l 1,8,-1
 600 1000 l 1,9,-1
 1200 1000 l 1,10,-1
 1200 200 l 1,11,-1
 1400 200 l 1,12,-1
 1400 0 l 1,13,-1
 800 0 l 1,14,-1
 800 200 l 1,15,-1
 1000 200 l 1,16,-1
 1000 800 l 1,17,-1
 600 800 l 1,18,-1
 600 0 l 1,19,-1
 400 0 l 1,20,-1
 400 800 l 1,21,-1
 200 800 l 1,0,-1
EndSplineSet
EndChar

StartChar: fl
Encoding: 64258 64258 193
Width: 1600
GlyphClass: 2
Flags: W
LayerCount: 2
Fore
SplineSet
200 800 m 1,0,-1
 200 1000 l 1,1,-1
 400 1000 l 1,2,-1
 400 1200 l 1,3,-1
 600 1400 l 1,4,-1
 1200 1400 l 1,5,-1
 1200 200 l 1,6,-1
 1400 200 l 1,7,-1
 1400 0 l 1,8,-1
 800 0 l 1,9,-1
 800 200 l 1,10,-1
 1000 200 l 1,11,-1
 1000 1200 l 1,12,-1
 700 1200 l 1,13,-1
 600 1100 l 1,14,-1
 600 1000 l 1,15,-1
 800 1000 l 1,16,-1
 800 800 l 1,17,-1
 600 800 l 1,18,-1
 600 0 l 1,19,-1
 400 0 l 1,20,-1
 400 800 l 1,21,-1
 200 800 l 1,0,-1
EndSplineSet
EndChar

StartChar: daggerdbl
Encoding: 8225 8225 194
Width: 1600
GlyphClass: 2
Flags: W
LayerCount: 2
Fore
SplineSet
500 600 m 1,0,-1
 500 800 l 1,1,-1
 700 800 l 1,2,-1
 700 1000 l 1,3,-1
 500 1000 l 1,4,-1
 500 1200 l 1,5,-1
 700 1200 l 1,6,-1
 700 1400 l 1,7,-1
 900 1400 l 1,8,-1
 900 1200 l 1,9,-1
 1100 1200 l 1,10,-1
 1100 1000 l 1,11,-1
 900 1000 l 1,12,-1
 900 800 l 1,13,-1
 1100 800 l 1,14,-1
 1100 600 l 1,15,-1
 900 600 l 1,16,-1
 900 400 l 1,17,-1
 700 400 l 1,18,-1
 700 600 l 1,19,-1
 500 600 l 1,0,-1
EndSplineSet
EndChar

StartChar: periodcentered
Encoding: 183 183 195
Width: 1600
GlyphClass: 2
Flags: W
LayerCount: 2
Fore
SplineSet
700 600 m 1,0,-1
 700 800 l 1,1,-1
 900 800 l 1,2,-1
 900 600 l 1,3,-1
 700 600 l 1,0,-1
EndSplineSet
Substitution2: "Single Substitution lookup 8 subtable" periodcentered.CATL
Substitution2: "Single Substitution lookup 7 subtable" periodcentered.CATC
EndChar

StartChar: quotesinglbase
Encoding: 8218 8218 196
Width: 1600
GlyphClass: 2
Flags: W
LayerCount: 2
Fore
SplineSet
700 0 m 1,0,-1
 700 200 l 1,1,-1
 900 200 l 1,2,-1
 900 0 l 1,3,-1
 830 -200 l 1,4,-1
 700 -200 l 1,5,-1
 770 0 l 1,6,-1
 700 0 l 1,0,-1
EndSplineSet
EndChar

StartChar: quotedblbase
Encoding: 8222 8222 197
Width: 1600
GlyphClass: 2
Flags: W
LayerCount: 2
Fore
SplineSet
400 0 m 1,0,-1
 400 200 l 1,1,-1
 600 200 l 1,2,-1
 600 0 l 1,3,-1
 530 -200 l 1,4,-1
 400 -200 l 1,5,-1
 470 0 l 1,6,-1
 400 0 l 1,0,-1
1000 0 m 1,7,-1
 1000 200 l 1,8,-1
 1200 200 l 1,9,-1
 1200 0 l 1,10,-1
 1130 -200 l 1,11,-1
 1000 -200 l 1,12,-1
 1070 0 l 1,13,-1
 1000 0 l 1,7,-1
EndSplineSet
EndChar

StartChar: perthousand
Encoding: 8240 8240 198
Width: 1600
GlyphClass: 2
Flags: W
LayerCount: 2
Fore
SplineSet
200 0 m 1,0,-1
 800 1400 l 1,1,-1
 1000 1400 l 1,2,-1
 400 0 l 1,3,-1
 200 0 l 1,0,-1
200 1200 m 1,4,-1
 200 1400 l 1,5,-1
 400 1400 l 1,6,-1
 400 1200 l 1,7,-1
 200 1200 l 1,4,-1
800 0 m 1,8,-1
 800 200 l 1,9,-1
 1000 200 l 1,10,-1
 1000 0 l 1,11,-1
 800 0 l 1,8,-1
1200 0 m 1,12,-1
 1200 200 l 1,13,-1
 1400 200 l 1,14,-1
 1400 0 l 1,15,-1
 1200 0 l 1,12,-1
EndSplineSet
EndChar

StartChar: Acircumflex
Encoding: 194 194 199
Width: 1600
GlyphClass: 2
Flags: W
LayerCount: 2
Fore
SplineSet
200 0 m 1,0,-1
 700 1000 l 1,1,-1
 900 1000 l 1,2,-1
 1400 0 l 1,3,-1
 1180 0 l 1,4,-1
 1085 200 l 1,5,-1
 515 200 l 1,6,-1
 420 0 l 1,7,-1
 200 0 l 1,0,-1
500 1100 m 1,8,-1
 700 1400 l 1,9,-1
 900 1400 l 1,10,-1
 1100 1100 l 1,11,-1
 900 1100 l 1,12,-1
 800 1280 l 1,13,-1
 700 1100 l 1,14,-1
 500 1100 l 1,8,-1
610 400 m 1,15,-1
 990 400 l 1,16,-1
 800 800 l 1,17,-1
 610 400 l 1,15,-1
EndSplineSet
EndChar

StartChar: Ecircumflex
Encoding: 202 202 200
Width: 1600
GlyphClass: 2
Flags: W
LayerCount: 2
Fore
SplineSet
200 0 m 1,0,-1
 200 1000 l 1,1,-1
 1400 1000 l 1,2,-1
 1400 800 l 1,3,-1
 400 800 l 1,4,-1
 400 600 l 1,5,-1
 1200 600 l 1,6,-1
 1200 400 l 1,7,-1
 400 400 l 1,8,-1
 400 200 l 1,9,-1
 1400 200 l 1,10,-1
 1400 0 l 1,11,-1
 200 0 l 1,0,-1
500 1100 m 1,12,-1
 700 1400 l 1,13,-1
 900 1400 l 1,14,-1
 1100 1100 l 1,15,-1
 900 1100 l 1,16,-1
 800 1280 l 1,17,-1
 700 1100 l 1,18,-1
 500 1100 l 1,12,-1
EndSplineSet
EndChar

StartChar: Aacute
Encoding: 193 193 201
Width: 1600
GlyphClass: 2
Flags: W
LayerCount: 2
Fore
SplineSet
200 0 m 1,0,-1
 700 1000 l 1,1,-1
 900 1000 l 1,2,-1
 1400 0 l 1,3,-1
 1180 0 l 1,4,-1
 1085 200 l 1,5,-1
 515 200 l 1,6,-1
 420 0 l 1,7,-1
 200 0 l 1,0,-1
610 400 m 1,8,-1
 990 400 l 1,9,-1
 800 800 l 1,10,-1
 610 400 l 1,8,-1
720 1100 m 1,11,-1
 900 1400 l 1,12,-1
 1100 1400 l 1,13,-1
 880 1100 l 1,14,-1
 720 1100 l 1,11,-1
EndSplineSet
EndChar

StartChar: Edieresis
Encoding: 203 203 202
Width: 1600
GlyphClass: 2
Flags: W
LayerCount: 2
Fore
SplineSet
200 0 m 1,0,-1
 200 1000 l 1,1,-1
 1400 1000 l 1,2,-1
 1400 800 l 1,3,-1
 400 800 l 1,4,-1
 400 600 l 1,5,-1
 1200 600 l 1,6,-1
 1200 400 l 1,7,-1
 400 400 l 1,8,-1
 400 200 l 1,9,-1
 1400 200 l 1,10,-1
 1400 0 l 1,11,-1
 200 0 l 1,0,-1
500 1200 m 1,12,-1
 500 1400 l 1,13,-1
 700 1400 l 1,14,-1
 700 1200 l 1,15,-1
 500 1200 l 1,12,-1
900 1200 m 1,16,-1
 900 1400 l 1,17,-1
 1100 1400 l 1,18,-1
 1100 1200 l 1,19,-1
 900 1200 l 1,16,-1
EndSplineSet
EndChar

StartChar: Egrave
Encoding: 200 200 203
Width: 1600
GlyphClass: 2
Flags: W
LayerCount: 2
Fore
SplineSet
200 0 m 1,0,-1
 200 1000 l 1,1,-1
 1400 1000 l 1,2,-1
 1400 800 l 1,3,-1
 400 800 l 1,4,-1
 400 600 l 1,5,-1
 1200 600 l 1,6,-1
 1200 400 l 1,7,-1
 400 400 l 1,8,-1
 400 200 l 1,9,-1
 1400 200 l 1,10,-1
 1400 0 l 1,11,-1
 200 0 l 1,0,-1
500 1400 m 1,12,-1
 700 1400 l 1,13,-1
 880 1100 l 1,14,-1
 720 1100 l 1,15,-1
 500 1400 l 1,12,-1
EndSplineSet
EndChar

StartChar: Iacute
Encoding: 205 205 204
Width: 1600
GlyphClass: 2
Flags: W
LayerCount: 2
Fore
SplineSet
200 0 m 1,0,-1
 200 200 l 1,1,-1
 700 200 l 1,2,-1
 700 800 l 1,3,-1
 200 800 l 1,4,-1
 200 1000 l 1,5,-1
 1400 1000 l 1,6,-1
 1400 800 l 1,7,-1
 900 800 l 1,8,-1
 900 200 l 1,9,-1
 1400 200 l 1,10,-1
 1400 0 l 1,11,-1
 200 0 l 1,0,-1
720 1100 m 1,12,-1
 900 1400 l 1,13,-1
 1100 1400 l 1,14,-1
 880 1100 l 1,15,-1
 720 1100 l 1,12,-1
EndSplineSet
EndChar

StartChar: Icircumflex
Encoding: 206 206 205
Width: 1600
GlyphClass: 2
Flags: W
LayerCount: 2
Fore
SplineSet
200 0 m 1,0,-1
 200 200 l 1,1,-1
 700 200 l 1,2,-1
 700 800 l 1,3,-1
 200 800 l 1,4,-1
 200 1000 l 1,5,-1
 1400 1000 l 1,6,-1
 1400 800 l 1,7,-1
 900 800 l 1,8,-1
 900 200 l 1,9,-1
 1400 200 l 1,10,-1
 1400 0 l 1,11,-1
 200 0 l 1,0,-1
500 1100 m 1,12,-1
 700 1400 l 1,13,-1
 900 1400 l 1,14,-1
 1100 1100 l 1,15,-1
 900 1100 l 1,16,-1
 800 1280 l 1,17,-1
 700 1100 l 1,18,-1
 500 1100 l 1,12,-1
EndSplineSet
EndChar

StartChar: Idieresis
Encoding: 207 207 206
Width: 1600
GlyphClass: 2
Flags: W
LayerCount: 2
Fore
SplineSet
200 0 m 1,0,-1
 200 200 l 1,1,-1
 700 200 l 1,2,-1
 700 800 l 1,3,-1
 200 800 l 1,4,-1
 200 1000 l 1,5,-1
 1400 1000 l 1,6,-1
 1400 800 l 1,7,-1
 900 800 l 1,8,-1
 900 200 l 1,9,-1
 1400 200 l 1,10,-1
 1400 0 l 1,11,-1
 200 0 l 1,0,-1
500 1200 m 1,12,-1
 500 1400 l 1,13,-1
 700 1400 l 1,14,-1
 700 1200 l 1,15,-1
 500 1200 l 1,12,-1
900 1200 m 1,16,-1
 900 1400 l 1,17,-1
 1100 1400 l 1,18,-1
 1100 1200 l 1,19,-1
 900 1200 l 1,16,-1
EndSplineSet
EndChar

StartChar: Igrave
Encoding: 204 204 207
Width: 1600
GlyphClass: 2
Flags: W
LayerCount: 2
Fore
SplineSet
200 0 m 1,0,-1
 200 200 l 1,1,-1
 700 200 l 1,2,-1
 700 800 l 1,3,-1
 200 800 l 1,4,-1
 200 1000 l 1,5,-1
 1400 1000 l 1,6,-1
 1400 800 l 1,7,-1
 900 800 l 1,8,-1
 900 200 l 1,9,-1
 1400 200 l 1,10,-1
 1400 0 l 1,11,-1
 200 0 l 1,0,-1
500 1400 m 1,12,-1
 700 1400 l 1,13,-1
 880 1100 l 1,14,-1
 720 1100 l 1,15,-1
 500 1400 l 1,12,-1
EndSplineSet
EndChar

StartChar: Oacute
Encoding: 211 211 208
Width: 1600
GlyphClass: 2
Flags: W
LayerCount: 2
Fore
SplineSet
200 300 m 1,0,-1
 200 700 l 1,1,-1
 500 1000 l 1,2,-1
 1100 1000 l 1,3,-1
 1400 700 l 1,4,-1
 1400 300 l 1,5,-1
 1100 0 l 1,6,-1
 500 0 l 1,7,-1
 200 300 l 1,0,-1
400 400 m 1,8,-1
 600 200 l 1,9,-1
 1000 200 l 1,10,-1
 1200 400 l 1,11,-1
 1200 600 l 1,12,-1
 1000 800 l 1,13,-1
 600 800 l 1,14,-1
 400 600 l 1,15,-1
 400 400 l 1,8,-1
720 1100 m 1,16,-1
 900 1400 l 1,17,-1
 1100 1400 l 1,18,-1
 880 1100 l 1,19,-1
 720 1100 l 1,16,-1
EndSplineSet
EndChar

StartChar: Ocircumflex
Encoding: 212 212 209
Width: 1600
GlyphClass: 2
Flags: W
LayerCount: 2
Fore
SplineSet
200 300 m 1,0,-1
 200 700 l 1,1,-1
 500 1000 l 1,2,-1
 1100 1000 l 1,3,-1
 1400 700 l 1,4,-1
 1400 300 l 1,5,-1
 1100 0 l 1,6,-1
 500 0 l 1,7,-1
 200 300 l 1,0,-1
400 400 m 1,8,-1
 600 200 l 1,9,-1
 1000 200 l 1,10,-1
 1200 400 l 1,11,-1
 1200 600 l 1,12,-1
 1000 800 l 1,13,-1
 600 800 l 1,14,-1
 400 600 l 1,15,-1
 400 400 l 1,8,-1
500 1100 m 1,16,-1
 700 1400 l 1,17,-1
 900 1400 l 1,18,-1
 1100 1100 l 1,19,-1
 900 1100 l 1,20,-1
 800 1280 l 1,21,-1
 700 1100 l 1,22,-1
 500 1100 l 1,16,-1
EndSplineSet
EndChar

StartChar: uni0237
Encoding: 567 567 210
Width: 1600
GlyphClass: 2
Flags: W
LayerCount: 2
Fore
SplineSet
400 0 m 1,0,-1
 400 100 l 1,1,-1
 600 100 l 1,2,-1
 700 0 l 1,3,-1
 900 0 l 1,4,-1
 1000 100 l 1,5,-1
 1000 800 l 1,6,-1
 400 800 l 1,7,-1
 400 1000 l 1,8,-1
 1200 1000 l 1,9,-1
 1200 0 l 1,10,-1
 1000 -200 l 1,11,-1
 600 -200 l 1,12,-1
 400 0 l 1,0,-1
EndSplineSet
EndChar

StartChar: Ograve
Encoding: 210 210 211
Width: 1600
GlyphClass: 2
Flags: W
LayerCount: 2
Fore
SplineSet
200 300 m 1,0,-1
 200 700 l 1,1,-1
 500 1000 l 1,2,-1
 1100 1000 l 1,3,-1
 1400 700 l 1,4,-1
 1400 300 l 1,5,-1
 1100 0 l 1,6,-1
 500 0 l 1,7,-1
 200 300 l 1,0,-1
400 400 m 1,8,-1
 600 200 l 1,9,-1
 1000 200 l 1,10,-1
 1200 400 l 1,11,-1
 1200 600 l 1,12,-1
 1000 800 l 1,13,-1
 600 800 l 1,14,-1
 400 600 l 1,15,-1
 400 400 l 1,8,-1
500 1400 m 1,16,-1
 700 1400 l 1,17,-1
 880 1100 l 1,18,-1
 720 1100 l 1,19,-1
 500 1400 l 1,16,-1
EndSplineSet
EndChar

StartChar: Uacute
Encoding: 218 218 212
Width: 1600
GlyphClass: 2
Flags: W
LayerCount: 2
Fore
SplineSet
200 300 m 1,0,-1
 200 1000 l 1,1,-1
 400 1000 l 1,2,-1
 400 400 l 1,3,-1
 600 200 l 1,4,-1
 1000 200 l 1,5,-1
 1200 400 l 1,6,-1
 1200 1000 l 1,7,-1
 1400 1000 l 1,8,-1
 1400 300 l 1,9,-1
 1100 0 l 1,10,-1
 500 0 l 1,11,-1
 200 300 l 1,0,-1
720 1100 m 1,12,-1
 900 1400 l 1,13,-1
 1100 1400 l 1,14,-1
 880 1100 l 1,15,-1
 720 1100 l 1,12,-1
EndSplineSet
EndChar

StartChar: Ucircumflex
Encoding: 219 219 213
Width: 1600
GlyphClass: 2
Flags: W
LayerCount: 2
Fore
SplineSet
200 300 m 1,0,-1
 200 1000 l 1,1,-1
 400 1000 l 1,2,-1
 400 400 l 1,3,-1
 600 200 l 1,4,-1
 1000 200 l 1,5,-1
 1200 400 l 1,6,-1
 1200 1000 l 1,7,-1
 1400 1000 l 1,8,-1
 1400 300 l 1,9,-1
 1100 0 l 1,10,-1
 500 0 l 1,11,-1
 200 300 l 1,0,-1
500 1100 m 1,12,-1
 700 1400 l 1,13,-1
 900 1400 l 1,14,-1
 1100 1100 l 1,15,-1
 900 1100 l 1,16,-1
 800 1280 l 1,17,-1
 700 1100 l 1,18,-1
 500 1100 l 1,12,-1
EndSplineSet
EndChar

StartChar: Ugrave
Encoding: 217 217 214
Width: 1600
GlyphClass: 2
Flags: W
LayerCount: 2
Fore
SplineSet
200 300 m 1,0,-1
 200 1000 l 1,1,-1
 400 1000 l 1,2,-1
 400 400 l 1,3,-1
 600 200 l 1,4,-1
 1000 200 l 1,5,-1
 1200 400 l 1,6,-1
 1200 1000 l 1,7,-1
 1400 1000 l 1,8,-1
 1400 300 l 1,9,-1
 1100 0 l 1,10,-1
 500 0 l 1,11,-1
 200 300 l 1,0,-1
500 1400 m 1,12,-1
 700 1400 l 1,13,-1
 880 1100 l 1,14,-1
 720 1100 l 1,15,-1
 500 1400 l 1,12,-1
EndSplineSet
EndChar

StartChar: dotlessi
Encoding: 305 305 215
Width: 1600
GlyphClass: 2
Flags: W
LayerCount: 2
Fore
SplineSet
400 0 m 1,0,-1
 400 200 l 1,1,-1
 700 200 l 1,2,-1
 700 800 l 1,3,-1
 400 800 l 1,4,-1
 400 1000 l 1,5,-1
 900 1000 l 1,6,-1
 900 200 l 1,7,-1
 1200 200 l 1,8,-1
 1200 0 l 1,9,-1
 400 0 l 1,0,-1
EndSplineSet
EndChar

StartChar: circumflex
Encoding: 710 710 216
Width: 1600
GlyphClass: 2
Flags: W
LayerCount: 2
Fore
SplineSet
500 1100 m 1,0,-1
 700 1400 l 1,1,-1
 900 1400 l 1,2,-1
 1100 1100 l 1,3,-1
 900 1100 l 1,4,-1
 800 1280 l 1,5,-1
 700 1100 l 1,6,-1
 500 1100 l 1,0,-1
EndSplineSet
EndChar

StartChar: tilde
Encoding: 732 732 217
Width: 1600
GlyphClass: 2
Flags: W
LayerCount: 2
Fore
SplineSet
400 1100 m 1,0,-1
 400 1300 l 1,1,-1
 500 1400 l 1,2,-1
 600 1400 l 1,3,-1
 1000 1300 l 1,4,-1
 1000 1400 l 1,5,-1
 1200 1400 l 1,6,-1
 1200 1200 l 1,7,-1
 1100 1100 l 1,8,-1
 1000 1100 l 1,9,-1
 600 1200 l 1,10,-1
 600 1100 l 1,11,-1
 400 1100 l 1,0,-1
EndSplineSet
EndChar

StartChar: macron
Encoding: 175 175 218
Width: 1600
GlyphClass: 2
Flags: W
LayerCount: 2
Fore
SplineSet
500 1200 m 1,0,-1
 500 1400 l 1,1,-1
 1100 1400 l 1,2,-1
 1100 1200 l 1,3,-1
 500 1200 l 1,0,-1
EndSplineSet
EndChar

StartChar: breve
Encoding: 728 728 219
Width: 1600
GlyphClass: 2
Flags: W
LayerCount: 2
Fore
SplineSet
400 1200 m 1,0,-1
 400 1400 l 1,1,-1
 600 1400 l 1,2,-1
 600 1300 l 1,3,-1
 1000 1300 l 1,4,-1
 1000 1400 l 1,5,-1
 1200 1400 l 1,6,-1
 1200 1200 l 1,7,-1
 1100 1100 l 1,8,-1
 500 1100 l 1,9,-1
 400 1200 l 1,0,-1
EndSplineSet
EndChar

StartChar: dotaccent
Encoding: 729 729 220
Width: 1600
GlyphClass: 2
Flags: W
LayerCount: 2
Fore
SplineSet
700 1200 m 1,0,-1
 700 1400 l 1,1,-1
 900 1400 l 1,2,-1
 900 1200 l 1,3,-1
 700 1200 l 1,0,-1
EndSplineSet
EndChar

StartChar: ring
Encoding: 730 730 221
Width: 1600
GlyphClass: 2
Flags: W
LayerCount: 2
Fore
SplineSet
500 1200 m 1,0,-1
 500 1300 l 1,1,-1
 600 1400 l 1,2,-1
 1000 1400 l 1,3,-1
 1100 1300 l 1,4,-1
 1100 1200 l 1,5,-1
 1000 1100 l 1,6,-1
 600 1100 l 1,7,-1
 500 1200 l 1,0,-1
700 1200 m 1,8,-1
 900 1200 l 1,9,-1
 900 1300 l 1,10,-1
 700 1300 l 1,11,-1
 700 1200 l 1,8,-1
EndSplineSet
EndChar

StartChar: cedilla
Encoding: 184 184 222
Width: 1600
GlyphClass: 2
Flags: W
LayerCount: 2
Fore
SplineSet
700 -100 m 1,0,-1
 900 -100 l 1,1,-1
 900 100 l 1,2,-1
 700 100 l 1,3,-1
 700 200 l 1,4,-1
 1000 200 l 1,5,-1
 1100 100 l 1,6,-1
 1100 -100 l 1,7,-1
 1000 -200 l 1,8,-1
 700 -200 l 1,9,-1
 700 -100 l 1,0,-1
EndSplineSet
EndChar

StartChar: hungarumlaut
Encoding: 733 733 223
Width: 1600
GlyphClass: 2
Flags: W
LayerCount: 2
Fore
SplineSet
520 1100 m 1,0,-1
 700 1400 l 1,1,-1
 900 1400 l 1,2,-1
 680 1100 l 1,3,-1
 520 1100 l 1,0,-1
920 1100 m 1,4,-1
 1100 1400 l 1,5,-1
 1300 1400 l 1,6,-1
 1080 1100 l 1,7,-1
 920 1100 l 1,4,-1
EndSplineSet
EndChar

StartChar: ogonek
Encoding: 731 731 224
Width: 1600
GlyphClass: 2
Flags: W
LayerCount: 2
Fore
SplineSet
500 -100 m 1,0,-1
 500 100 l 1,1,-1
 600 200 l 1,2,-1
 900 200 l 1,3,-1
 900 100 l 1,4,-1
 700 100 l 1,5,-1
 700 -100 l 1,6,-1
 900 -100 l 1,7,-1
 900 -200 l 1,8,-1
 600 -200 l 1,9,-1
 500 -100 l 1,0,-1
EndSplineSet
EndChar

StartChar: caron
Encoding: 711 711 225
Width: 1600
GlyphClass: 2
Flags: W
LayerCount: 2
Fore
SplineSet
500 1400 m 1,0,-1
 700 1400 l 1,1,-1
 800 1220 l 1,2,-1
 900 1400 l 1,3,-1
 1100 1400 l 1,4,-1
 900 1100 l 1,5,-1
 700 1100 l 1,6,-1
 500 1400 l 1,0,-1
EndSplineSet
EndChar

StartChar: uni02C8
Encoding: 712 712 226
Width: 1600
GlyphClass: 2
Flags: W
LayerCount: 2
Fore
SplineSet
700 1100 m 1,0,-1
 700 1400 l 1,1,-1
 900 1400 l 1,2,-1
 900 1100 l 1,3,-1
 700 1100 l 1,0,-1
EndSplineSet
EndChar

StartChar: uni02C9
Encoding: 713 713 227
Width: 1600
GlyphClass: 2
Flags: W
LayerCount: 2
Fore
SplineSet
500 1200 m 1,0,-1
 500 1400 l 1,1,-1
 1100 1400 l 1,2,-1
 1100 1200 l 1,3,-1
 500 1200 l 1,0,-1
EndSplineSet
EndChar

StartChar: uni02CA
Encoding: 714 714 228
Width: 1600
GlyphClass: 2
Flags: W
LayerCount: 2
Fore
SplineSet
720 1100 m 1,0,-1
 900 1400 l 1,1,-1
 1100 1400 l 1,2,-1
 880 1100 l 1,3,-1
 720 1100 l 1,0,-1
EndSplineSet
EndChar

StartChar: uni02CB
Encoding: 715 715 229
Width: 1600
GlyphClass: 2
Flags: W
LayerCount: 2
Fore
SplineSet
500 1400 m 1,0,-1
 700 1400 l 1,1,-1
 880 1100 l 1,2,-1
 720 1100 l 1,3,-1
 500 1400 l 1,0,-1
EndSplineSet
EndChar

StartChar: uni02CC
Encoding: 716 716 230
Width: 1600
GlyphClass: 2
Flags: W
LayerCount: 2
Fore
SplineSet
700 100 m 1,0,-1
 900 100 l 1,1,-1
 900 -200 l 1,2,-1
 700 -200 l 1,3,-1
 700 100 l 1,0,-1
EndSplineSet
EndChar

StartChar: uni02CD
Encoding: 717 717 231
Width: 1600
GlyphClass: 2
Flags: W
LayerCount: 2
Fore
SplineSet
500 0 m 1,0,-1
 1100 0 l 1,1,-1
 1100 -200 l 1,2,-1
 500 -200 l 1,3,-1
 500 0 l 1,0,-1
EndSplineSet
EndChar

StartChar: uni02CE
Encoding: 718 718 232
Width: 1600
GlyphClass: 2
Flags: W
LayerCount: 2
Fore
SplineSet
720 100 m 1,0,-1
 880 100 l 1,1,-1
 1100 -200 l 1,2,-1
 900 -200 l 1,3,-1
 720 100 l 1,0,-1
EndSplineSet
EndChar

StartChar: uni02CF
Encoding: 719 719 233
Width: 1600
GlyphClass: 2
Flags: W
LayerCount: 2
Fore
SplineSet
500 -200 m 1,0,-1
 720 100 l 1,1,-1
 880 100 l 1,2,-1
 700 -200 l 1,3,-1
 500 -200 l 1,0,-1
EndSplineSet
EndChar

StartChar: uni02EC
Encoding: 748 748 234
Width: 1600
GlyphClass: 2
Flags: W
LayerCount: 2
Fore
SplineSet
500 100 m 1,0,-1
 700 100 l 1,1,-1
 800 -80 l 1,2,-1
 900 100 l 1,3,-1
 1100 100 l 1,4,-1
 900 -200 l 1,5,-1
 700 -200 l 1,6,-1
 500 100 l 1,0,-1
EndSplineSet
EndChar

StartChar: uni02F3
Encoding: 755 755 235
Width: 1600
GlyphClass: 2
Flags: W
LayerCount: 2
Fore
SplineSet
500 0 m 1,0,-1
 600 100 l 1,1,-1
 1000 100 l 1,2,-1
 1100 0 l 1,3,-1
 1100 -100 l 1,4,-1
 1000 -200 l 1,5,-1
 600 -200 l 1,6,-1
 500 -100 l 1,7,-1
 500 0 l 1,0,-1
700 0 m 1,8,-1
 700 -100 l 1,9,-1
 900 -100 l 1,10,-1
 900 0 l 1,11,-1
 700 0 l 1,8,-1
EndSplineSet
EndChar

StartChar: uni02F7
Encoding: 759 759 236
Width: 1600
GlyphClass: 2
Flags: W
LayerCount: 2
Fore
SplineSet
400 0 m 1,0,-1
 500 100 l 1,1,-1
 600 100 l 1,2,-1
 1000 0 l 1,3,-1
 1000 100 l 1,4,-1
 1200 100 l 1,5,-1
 1200 -100 l 1,6,-1
 1100 -200 l 1,7,-1
 1000 -200 l 1,8,-1
 600 -100 l 1,9,-1
 600 -200 l 1,10,-1
 400 -200 l 1,11,-1
 400 0 l 1,0,-1
EndSplineSet
EndChar

StartChar: i.locl
Encoding: 1114115 -1 237
Width: 1600
GlyphClass: 2
Flags: W
LayerCount: 2
Fore
SplineSet
400 0 m 1,0,-1
 400 200 l 1,1,-1
 700 200 l 1,2,-1
 700 800 l 1,3,-1
 400 800 l 1,4,-1
 400 1000 l 1,5,-1
 900 1000 l 1,6,-1
 900 200 l 1,7,-1
 1200 200 l 1,8,-1
 1200 0 l 1,9,-1
 400 0 l 1,0,-1
700 1200 m 1,10,-1
 700 1400 l 1,11,-1
 900 1400 l 1,12,-1
 900 1200 l 1,13,-1
 700 1200 l 1,10,-1
EndSplineSet
EndChar

StartChar: iacute.locl
Encoding: 1114116 -1 238
Width: 1600
GlyphClass: 2
Flags: W
LayerCount: 2
Fore
SplineSet
400 0 m 1,0,-1
 400 200 l 1,1,-1
 700 200 l 1,2,-1
 700 600 l 1,3,-1
 400 600 l 1,4,-1
 400 800 l 1,5,-1
 900 800 l 1,6,-1
 900 200 l 1,7,-1
 1200 200 l 1,8,-1
 1200 0 l 1,9,-1
 400 0 l 1,0,-1
700 900 m 1,10,-1
 700 1100 l 1,11,-1
 900 1100 l 1,12,-1
 900 900 l 1,13,-1
 700 900 l 1,10,-1
720 1200 m 1,14,-1
 900 1400 l 1,15,-1
 1100 1400 l 1,16,-1
 880 1200 l 1,17,-1
 720 1200 l 1,14,-1
EndSplineSet
EndChar

StartChar: periodcentered.CATC
Encoding: 1114117 -1 239
Width: 0
GlyphClass: 2
Flags: W
LayerCount: 2
Fore
SplineSet
-600 600 m 1,0,-1
 -600 800 l 1,1,-1
 -400 800 l 1,2,-1
 -400 600 l 1,3,-1
 -600 600 l 1,0,-1
EndSplineSet
EndChar

StartChar: periodcentered.CATL
Encoding: 1114118 -1 240
Width: 0
GlyphClass: 2
Flags: W
LayerCount: 2
Fore
SplineSet
-100 600 m 1,0,-1
 -100 800 l 1,1,-1
 100 800 l 1,2,-1
 100 600 l 1,3,-1
 -100 600 l 1,0,-1
EndSplineSet
EndChar

StartChar: Jacute
Encoding: 1114119 -1 241
Width: 1600
GlyphClass: 2
Flags: W
LayerCount: 2
Fore
SplineSet
200 200 m 1,0,-1
 200 300 l 1,1,-1
 400 300 l 1,2,-1
 500 200 l 1,3,-1
 700 200 l 1,4,-1
 900 400 l 1,5,-1
 900 800 l 1,6,-1
 600 800 l 1,7,-1
 600 1000 l 1,8,-1
 1400 1000 l 1,9,-1
 1400 800 l 1,10,-1
 1100 800 l 1,11,-1
 1100 300 l 1,12,-1
 800 0 l 1,13,-1
 400 0 l 1,14,-1
 200 200 l 1,0,-1
920 1100 m 1,15,-1
 1100 1400 l 1,16,-1
 1300 1400 l 1,17,-1
 1080 1100 l 1,18,-1
 920 1100 l 1,15,-1
EndSplineSet
EndChar

StartChar: jacute
Encoding: 1114120 -1 242
Width: 1600
GlyphClass: 2
Flags: W
LayerCount: 2
Fore
SplineSet
400 0 m 1,0,-1
 400 100 l 1,1,-1
 600 100 l 1,2,-1
 700 0 l 1,3,-1
 900 0 l 1,4,-1
 1000 100 l 1,5,-1
 1000 800 l 1,6,-1
 400 800 l 1,7,-1
 400 1000 l 1,8,-1
 1200 1000 l 1,9,-1
 1200 0 l 1,10,-1
 1000 -200 l 1,11,-1
 600 -200 l 1,12,-1
 400 0 l 1,0,-1
720 1100 m 1,13,-1
 900 1400 l 1,14,-1
 1100 1400 l 1,15,-1
 880 1100 l 1,16,-1
 720 1100 l 1,13,-1
EndSplineSet
EndChar

StartChar: franc
Encoding: 8355 8355 243
Width: 1600
GlyphClass: 2
Flags: W
LayerCount: 2
Fore
SplineSet
200 200 m 1,0,-1
 200 400 l 1,1,-1
 400 400 l 1,2,-1
 400 1400 l 1,3,-1
 1400 1400 l 1,4,-1
 1400 1200 l 1,5,-1
 600 1200 l 1,6,-1
 600 800 l 1,7,-1
 1200 800 l 1,8,-1
 1200 600 l 1,9,-1
 600 600 l 1,10,-1
 600 400 l 1,11,-1
 900 400 l 1,12,-1
 900 200 l 1,13,-1
 600 200 l 1,14,-1
 600 0 l 1,15,-1
 400 0 l 1,16,-1
 400 200 l 1,17,-1
 200 200 l 1,0,-1
EndSplineSet
EndChar

StartChar: lira
Encoding: 8356 8356 244
Width: 1600
GlyphClass: 2
Flags: W
LayerCount: 2
Fore
SplineSet
200 100 m 1,0,-1
 200 300 l 1,1,-1
 400 500 l 1,2,-1
 750 500 l 1,3,-1
 700 700 l 1,4,-1
 400 700 l 1,5,-1
 400 800 l 1,6,-1
 675 800 l 1,7,-1
 650 900 l 1,8,-1
 400 900 l 1,9,-1
 400 1000 l 1,10,-1
 625 1000 l 1,11,-1
 600 1100 l 1,12,-1
 600 1200 l 1,13,-1
 800 1400 l 1,14,-1
 1200 1400 l 1,15,-1
 1400 1200 l 1,16,-1
 1400 1100 l 1,17,-1
 1200 1100 l 1,18,-1
 1100 1200 l 1,19,-1
 900 1200 l 1,20,-1
 800 1100 l 1,21,-1
 825 1000 l 1,22,-1
 1100 1000 l 1,23,-1
 1100 900 l 1,24,-1
 850 900 l 1,25,-1
 875 800 l 1,26,-1
 1100 800 l 1,27,-1
 1100 700 l 1,28,-1
 900 700 l 1,29,-1
 950 500 l 1,30,-1
 1200 500 l 1,31,-1
 1400 300 l 1,32,-1
 1400 0 l 1,33,-1
 1200 0 l 1,34,-1
 1200 200 l 1,35,-1
 1100 300 l 1,36,-1
 1000 300 l 1,37,-1
 1000 200 l 1,38,-1
 800 0 l 1,39,-1
 300 0 l 1,40,-1
 200 100 l 1,0,-1
400 200 m 1,41,-1
 700 200 l 1,42,-1
 800 300 l 1,43,-1
 500 300 l 1,44,-1
 400 200 l 1,41,-1
EndSplineSet
EndChar

StartChar: uni2105
Encoding: 8453 8453 245
Width: 1600
GlyphClass: 2
Flags: W
LayerCount: 2
Fore
SplineSet
100 900 m 1,0,-1
 100 1300 l 1,1,-1
 200 1400 l 1,2,-1
 600 1400 l 1,3,-1
 700 1300 l 1,4,-1
 700 1200 l 1,5,-1
 500 1200 l 1,6,-1
 500 1300 l 1,7,-1
 300 1300 l 1,8,-1
 300 900 l 1,9,-1
 500 900 l 1,10,-1
 500 1000 l 1,11,-1
 700 1000 l 1,12,-1
 700 900 l 1,13,-1
 600 800 l 1,14,-1
 200 800 l 1,15,-1
 100 900 l 1,0,-1
200 200 m 1,16,-1
 1200 1200 l 1,17,-1
 1400 1200 l 1,18,-1
 400 200 l 1,19,-1
 200 200 l 1,16,-1
900 100 m 1,20,-1
 900 500 l 1,21,-1
 1000 600 l 1,22,-1
 1400 600 l 1,23,-1
 1500 500 l 1,24,-1
 1500 100 l 1,25,-1
 1400 0 l 1,26,-1
 1000 0 l 1,27,-1
 900 100 l 1,20,-1
1100 100 m 1,28,-1
 1300 100 l 1,29,-1
 1300 500 l 1,30,-1
 1100 500 l 1,31,-1
 1100 100 l 1,28,-1
EndSplineSet
EndChar

StartChar: uni2113
Encoding: 8467 8467 246
Width: 1600
GlyphClass: 2
Flags: W
LayerCount: 2
Fore
SplineSet
400 400 m 1,0,-1
 400 600 l 1,1,-1
 500 600 l 1,2,-1
 500 1200 l 1,3,-1
 700 1400 l 1,4,-1
 1000 1400 l 1,5,-1
 1200 1200 l 1,6,-1
 1200 700 l 1,7,-1
 900 400 l 1,8,-1
 700 400 l 1,9,-1
 700 300 l 1,10,-1
 800 200 l 1,11,-1
 1200 200 l 1,12,-1
 1200 0 l 1,13,-1
 700 0 l 1,14,-1
 500 200 l 1,15,-1
 500 400 l 1,16,-1
 400 400 l 1,0,-1
700 600 m 1,17,-1
 800 600 l 1,18,-1
 1000 800 l 1,19,-1
 1000 1100 l 1,20,-1
 900 1200 l 1,21,-1
 800 1200 l 1,22,-1
 700 1100 l 1,23,-1
 700 600 l 1,17,-1
EndSplineSet
EndChar

StartChar: uni2116
Encoding: 8470 8470 247
Width: 1600
GlyphClass: 2
Flags: W
LayerCount: 2
Fore
SplineSet
100 0 m 1,0,-1
 100 1400 l 1,1,-1
 300 1400 l 1,2,-1
 500 700 l 1,3,-1
 500 1400 l 1,4,-1
 700 1400 l 1,5,-1
 700 0 l 1,6,-1
 500 0 l 1,7,-1
 300 700 l 1,8,-1
 300 0 l 1,9,-1
 100 0 l 1,0,-1
900 500 m 1,10,-1
 900 1100 l 1,11,-1
 1000 1200 l 1,12,-1
 1400 1200 l 1,13,-1
 1500 1100 l 1,14,-1
 1500 500 l 1,15,-1
 1400 400 l 1,16,-1
 1000 400 l 1,17,-1
 900 500 l 1,10,-1
1000 0 m 1,18,-1
 1000 200 l 1,19,-1
 1400 200 l 1,20,-1
 1400 0 l 1,21,-1
 1000 0 l 1,18,-1
1100 600 m 1,22,-1
 1300 600 l 1,23,-1
 1300 1000 l 1,24,-1
 1100 1000 l 1,25,-1
 1100 600 l 1,22,-1
EndSplineSet
EndChar

StartChar: uni2117
Encoding: 8471 8471 248
Width: 1600
GlyphClass: 2
Flags: W
LayerCount: 2
Fore
SplineSet
200 300 m 1,0,-1
 200 1100 l 1,1,-1
 500 1400 l 1,2,-1
 1100 1400 l 1,3,-1
 1400 1100 l 1,4,-1
 1400 300 l 1,5,-1
 1100 0 l 1,6,-1
 500 0 l 1,7,-1
 200 300 l 1,0,-1
400 200 m 1,8,-1
 600 200 l 1,9,-1
 600 600 l 1,10,-1
 1000 600 l 1,11,-1
 1200 800 l 1,12,-1
 1200 1000 l 1,13,-1
 1000 1200 l 1,14,-1
 400 1200 l 1,15,-1
 400 200 l 1,8,-1
600 800 m 1,16,-1
 600 1000 l 1,17,-1
 900 1000 l 1,18,-1
 1000 900 l 1,19,-1
 900 800 l 1,20,-1
 600 800 l 1,16,-1
EndSplineSet
EndChar

StartChar: estimated
Encoding: 8494 8494 249
Width: 1600
GlyphClass: 2
Flags: W
LayerCount: 2
Fore
SplineSet
200 300 m 1,0,-1
 200 1100 l 1,1,-1
 500 1400 l 1,2,-1
 1100 1400 l 1,3,-1
 1400 1100 l 1,4,-1
 1400 600 l 1,5,-1
 600 600 l 1,6,-1
 600 200 l 1,7,-1
 1000 200 l 1,8,-1
 1200 400 l 1,9,-1
 1400 400 l 1,10,-1
 1400 300 l 1,11,-1
 1100 0 l 1,12,-1
 500 0 l 1,13,-1
 200 300 l 1,0,-1
600 800 m 1,14,-1
 1000 800 l 1,15,-1
 1000 1200 l 1,16,-1
 600 1200 l 1,17,-1
 600 800 l 1,14,-1
EndSplineSet
EndChar

StartChar: Scaron
Encoding: 352 352 250
Width: 1600
GlyphClass: 2
Flags: W
LayerCount: 2
Fore
SplineSet
200 200 m 1,0,-1
 200 300 l 1,1,-1
 400 300 l 1,2,-1
 500 200 l 1,3,-1
 1100 200 l 1,4,-1
 1200 300 l 1,5,-1
 1100 400 l 1,6,-1
 400 400 l 1,7,-1
 200 600 l 1,8,-1
 200 800 l 1,9,-1
 400 1000 l 1,10,-1
 1200 1000 l 1,11,-1
 1400 800 l 1,12,-1
 1400 700 l 1,13,-1
 1200 700 l 1,14,-1
 1100 800 l 1,15,-1
 500 800 l 1,16,-1
 400 700 l 1,17,-1
 500 600 l 1,18,-1
 1200 600 l 1,19,-1
 1400 400 l 1,20,-1
 1400 200 l 1,21,-1
 1200 0 l 1,22,-1
 400 0 l 1,23,-1
 200 200 l 1,0,-1
500 1400 m 1,24,-1
 700 1400 l 1,25,-1
 800 1220 l 1,26,-1
 900 1400 l 1,27,-1
 1100 1400 l 1,28,-1
 900 1100 l 1,29,-1
 700 1100 l 1,30,-1
 500 1400 l 1,24,-1
EndSplineSet
EndChar

StartChar: Zcaron
Encoding: 381 381 251
Width: 1600
GlyphClass: 2
Flags: W
LayerCount: 2
Fore
SplineSet
200 0 m 1,0,-1
 950 800 l 1,1,-1
 200 800 l 1,2,-1
 200 1000 l 1,3,-1
 1400 1000 l 1,4,-1
 650 200 l 1,5,-1
 1400 200 l 1,6,-1
 1400 0 l 1,7,-1
 200 0 l 1,0,-1
500 1400 m 1,8,-1
 700 1400 l 1,9,-1
 800 1220 l 1,10,-1
 900 1400 l 1,11,-1
 1100 1400 l 1,12,-1
 900 1100 l 1,13,-1
 700 1100 l 1,14,-1
 500 1400 l 1,8,-1
EndSplineSet
EndChar

StartChar: scaron
Encoding: 353 353 252
Width: 1600
GlyphClass: 2
Flags: W
LayerCount: 2
Fore
SplineSet
400 0 m 1,0,-1
 400 200 l 1,1,-1
 900 200 l 1,2,-1
 1000 300 l 1,3,-1
 900 400 l 1,4,-1
 600 400 l 1,5,-1
 400 600 l 1,6,-1
 400 800 l 1,7,-1
 600 1000 l 1,8,-1
 1200 1000 l 1,9,-1
 1200 800 l 1,10,-1
 700 800 l 1,11,-1
 600 700 l 1,12,-1
 700 600 l 1,13,-1
 1000 600 l 1,14,-1
 1200 400 l 1,15,-1
 1200 200 l 1,16,-1
 1000 0 l 1,17,-1
 400 0 l 1,0,-1
500 1400 m 1,18,-1
 700 1400 l 1,19,-1
 800 1220 l 1,20,-1
 900 1400 l 1,21,-1
 1100 1400 l 1,22,-1
 900 1100 l 1,23,-1
 700 1100 l 1,24,-1
 500 1400 l 1,18,-1
EndSplineSet
EndChar

StartChar: zcaron
Encoding: 382 382 253
Width: 1600
GlyphClass: 2
Flags: W
LayerCount: 2
Fore
SplineSet
400 0 m 1,0,-1
 860 800 l 1,1,-1
 400 800 l 1,2,-1
 400 1000 l 1,3,-1
 1200 1000 l 1,4,-1
 740 200 l 1,5,-1
 1200 200 l 1,6,-1
 1200 0 l 1,7,-1
 400 0 l 1,0,-1
500 1400 m 1,8,-1
 700 1400 l 1,9,-1
 800 1220 l 1,10,-1
 900 1400 l 1,11,-1
 1100 1400 l 1,12,-1
 900 1100 l 1,13,-1
 700 1100 l 1,14,-1
 500 1400 l 1,8,-1
EndSplineSet
EndChar

StartChar: currency
Encoding: 164 164 254
Width: 1600
GlyphClass: 2
Flags: W
LayerCount: 2
Fore
SplineSet
400 0 m 1,0,-1
 533 267 l 1,1,-1
 400 400 l 1,2,-1
 400 1000 l 1,3,-1
 533 1133 l 1,4,-1
 400 1400 l 1,5,-1
 600 1400 l 1,6,-1
 700 1200 l 1,7,-1
 900 1200 l 1,8,-1
 1000 1400 l 1,9,-1
 1200 1400 l 1,10,-1
 1067 1133 l 1,11,-1
 1200 1000 l 1,12,-1
 1200 400 l 1,13,-1
 1067 267 l 1,14,-1
 1200 0 l 1,15,-1
 1000 0 l 1,16,-1
 900 200 l 1,17,-1
 700 200 l 1,18,-1
 600 0 l 1,19,-1
 400 0 l 1,0,-1
600 500 m 1,20,-1
 700 400 l 1,21,-1
 900 400 l 1,22,-1
 1000 500 l 1,23,-1
 1000 900 l 1,24,-1
 900 1000 l 1,25,-1
 700 1000 l 1,26,-1
 600 900 l 1,27,-1
 600 500 l 1,20,-1
EndSplineSet
EndChar

StartChar: brokenbar
Encoding: 166 166 255
Width: 1600
GlyphClass: 2
Flags: W
LayerCount: 2
Fore
SplineSet
700 -200 m 1,0,-1
 700 400 l 1,1,-1
 900 400 l 1,2,-1
 900 -200 l 1,3,-1
 700 -200 l 1,0,-1
700 800 m 1,4,-1
 700 1400 l 1,5,-1
 900 1400 l 1,6,-1
 900 800 l 1,7,-1
 700 800 l 1,4,-1
EndSplineSet
EndChar

StartChar: uni00AD
Encoding: 173 173 256
Width: 1600
GlyphClass: 2
Flags: W
LayerCount: 2
Fore
SplineSet
500 600 m 1,0,-1
 500 800 l 1,1,-1
 1100 800 l 1,2,-1
 1100 600 l 1,3,-1
 500 600 l 1,0,-1
EndSplineSet
EndChar

StartChar: Eth
Encoding: 208 208 257
Width: 1600
GlyphClass: 2
Flags: W
LayerCount: 2
Fore
SplineSet
200 600 m 1,0,-1
 200 800 l 1,1,-1
 400 800 l 1,2,-1
 400 1400 l 1,3,-1
 1000 1400 l 1,4,-1
 1400 1000 l 1,5,-1
 1400 400 l 1,6,-1
 1000 0 l 1,7,-1
 400 0 l 1,8,-1
 400 600 l 1,9,-1
 200 600 l 1,0,-1
600 200 m 1,10,-1
 900 200 l 1,11,-1
 1200 500 l 1,12,-1
 1200 900 l 1,13,-1
 900 1200 l 1,14,-1
 600 1200 l 1,15,-1
 600 800 l 1,16,-1
 900 800 l 1,17,-1
 900 600 l 1,18,-1
 600 600 l 1,19,-1
 600 200 l 1,10,-1
EndSplineSet
EndChar

StartChar: multiply
Encoding: 215 215 258
Width: 1600
GlyphClass: 2
Flags: W
LayerCount: 2
Fore
SplineSet
500 400 m 1,0,-1
 700 700 l 1,1,-1
 500 1000 l 1,2,-1
 700 1000 l 1,3,-1
 800 830 l 1,4,-1
 900 1000 l 1,5,-1
 1100 1000 l 1,6,-1
 900 700 l 1,7,-1
 1100 400 l 1,8,-1
 900 400 l 1,9,-1
 800 570 l 1,10,-1
 700 400 l 1,11,-1
 500 400 l 1,0,-1
EndSplineSet
EndChar

StartChar: Yacute
Encoding: 221 221 259
Width: 1600
GlyphClass: 2
Flags: W
LayerCount: 2
Fore
SplineSet
200 1000 m 1,0,-1
 450 1000 l 1,1,-1
 800 580 l 1,2,-1
 1150 1000 l 1,3,-1
 1400 1000 l 1,4,-1
 900 400 l 1,5,-1
 900 0 l 1,6,-1
 700 0 l 1,7,-1
 700 400 l 1,8,-1
 200 1000 l 1,0,-1
720 1100 m 1,9,-1
 900 1400 l 1,10,-1
 1100 1400 l 1,11,-1
 880 1100 l 1,12,-1
 720 1100 l 1,9,-1
EndSplineSet
EndChar

StartChar: Thorn
Encoding: 222 222 260
Width: 1600
GlyphClass: 2
Flags: W
LayerCount: 2
Fore
SplineSet
200 0 m 1,0,-1
 200 1400 l 1,1,-1
 400 1400 l 1,2,-1
 400 1100 l 1,3,-1
 1200 1100 l 1,4,-1
 1400 900 l 1,5,-1
 1400 500 l 1,6,-1
 1200 300 l 1,7,-1
 400 300 l 1,8,-1
 400 0 l 1,9,-1
 200 0 l 1,0,-1
400 500 m 1,10,-1
 1100 500 l 1,11,-1
 1200 600 l 1,12,-1
 1200 800 l 1,13,-1
 1100 900 l 1,14,-1
 400 900 l 1,15,-1
 400 500 l 1,10,-1
EndSplineSet
EndChar

StartChar: eth
Encoding: 240 240 261
Width: 1600
GlyphClass: 2
Flags: W
LayerCount: 2
Fore
SplineSet
400 200 m 1,0,-1
 400 700 l 1,1,-1
 600 900 l 1,2,-1
 1000 900 l 1,3,-1
 857 1043 l 1,4,-1
 600 1000 l 1,5,-1
 600 1200 l 1,6,-1
 686 1214 l 1,7,-1
 600 1300 l 1,8,-1
 600 1400 l 1,9,-1
 800 1400 l 1,10,-1
 943 1257 l 1,11,-1
 1200 1300 l 1,12,-1
 1200 1100 l 1,13,-1
 1114 1086 l 1,14,-1
 1200 1000 l 1,15,-1
 1200 200 l 1,16,-1
 1000 0 l 1,17,-1
 600 0 l 1,18,-1
 400 200 l 1,0,-1
600 300 m 1,19,-1
 700 200 l 1,20,-1
 900 200 l 1,21,-1
 1000 300 l 1,22,-1
 1000 700 l 1,23,-1
 700 700 l 1,24,-1
 600 600 l 1,25,-1
 600 300 l 1,19,-1
EndSplineSet
EndChar

StartChar: yacute
Encoding: 253 253 262
Width: 1600
GlyphClass: 2
Flags: W
LayerCount: 2
Fore
SplineSet
400 1000 m 1,0,-1
 600 1000 l 1,1,-1
 800 250 l 1,2,-1
 1000 1000 l 1,3,-1
 1200 1000 l 1,4,-1
 840 -200 l 1,5,-1
 640 -200 l 1,6,-1
 700 0 l 1,7,-1
 400 1000 l 1,0,-1
720 1100 m 1,8,-1
 900 1400 l 1,9,-1
 1100 1400 l 1,10,-1
 880 1100 l 1,11,-1
 720 1100 l 1,8,-1
EndSplineSet
EndChar

StartChar: thorn
Encoding: 254 254 263
Width: 1600
GlyphClass: 2
Flags: W
LayerCount: 2
Fore
SplineSet
400 -200 m 1,0,-1
 400 1400 l 1,1,-1
 600 1400 l 1,2,-1
 600 1000 l 1,3,-1
 1000 1000 l 1,4,-1
 1200 800 l 1,5,-1
 1200 400 l 1,6,-1
 1000 200 l 1,7,-1
 600 200 l 1,8,-1
 600 -200 l 1,9,-1
 400 -200 l 1,0,-1
600 400 m 1,10,-1
 900 400 l 1,11,-1
 1000 500 l 1,12,-1
 1000 700 l 1,13,-1
 900 800 l 1,14,-1
 600 800 l 1,15,-1
 600 400 l 1,10,-1
EndSplineSet
EndChar

StartChar: smileface
Encoding: 9786 9786 264
Width: 1600
GlyphClass: 2
Flags: W
LayerCount: 2
Fore
SplineSet
200 300 m 1,0,-1
 200 1100 l 1,1,-1
 500 1400 l 1,2,-1
 1100 1400 l 1,3,-1
 1400 1100 l 1,4,-1
 1400 300 l 1,5,-1
 1100 0 l 1,6,-1
 500 0 l 1,7,-1
 200 300 l 1,0,-1
300 350 m 1,8,-1
 550 100 l 1,9,-1
 1050 100 l 1,10,-1
 1300 350 l 1,11,-1
 1300 1050 l 1,12,-1
 1050 1300 l 1,13,-1
 550 1300 l 1,14,-1
 300 1050 l 1,15,-1
 300 350 l 1,8,-1
400 400 m 1,16,-1
 400 500 l 1,17,-1
 600 500 l 1,18,-1
 700 400 l 1,19,-1
 900 400 l 1,20,-1
 1000 500 l 1,21,-1
 1200 500 l 1,22,-1
 1200 400 l 1,23,-1
 1000 200 l 1,24,-1
 600 200 l 1,25,-1
 400 400 l 1,16,-1
500 800 m 1,26,-1
 500 1100 l 1,27,-1
 700 1100 l 1,28,-1
 700 800 l 1,29,-1
 500 800 l 1,26,-1
900 800 m 1,30,-1
 900 1100 l 1,31,-1
 1100 1100 l 1,32,-1
 1100 800 l 1,33,-1
 900 800 l 1,30,-1
EndSplineSet
EndChar

StartChar: invsmileface
Encoding: 9787 9787 265
Width: 1600
GlyphClass: 2
Flags: W
LayerCount: 2
Fore
SplineSet
200 300 m 1,0,-1
 200 1100 l 1,1,-1
 500 1400 l 1,2,-1
 1100 1400 l 1,3,-1
 1400 1100 l 1,4,-1
 1400 300 l 1,5,-1
 1100 0 l 1,6,-1
 500 0 l 1,7,-1
 200 300 l 1,0,-1
400 400 m 1,8,-1
 600 200 l 1,9,-1
 1000 200 l 1,10,-1
 1200 400 l 1,11,-1
 1200 500 l 1,12,-1
 1000 500 l 1,13,-1
 900 400 l 1,14,-1
 700 400 l 1,15,-1
 600 500 l 1,16,-1
 400 500 l 1,17,-1
 400 400 l 1,8,-1
500 800 m 1,18,-1
 700 800 l 1,19,-1
 700 1100 l 1,20,-1
 500 1100 l 1,21,-1
 500 800 l 1,18,-1
900 800 m 1,22,-1
 1100 800 l 1,23,-1
 1100 1100 l 1,24,-1
 900 1100 l 1,25,-1
 900 800 l 1,22,-1
EndSplineSet
EndChar

StartChar: heart
Encoding: 9829 9829 266
Width: 1600
GlyphClass: 2
Flags: W
LayerCount: 2
Fore
SplineSet
200 800 m 1,0,-1
 200 1200 l 1,1,-1
 400 1400 l 1,2,-1
 600 1400 l 1,3,-1
 800 1200 l 1,4,-1
 1000 1400 l 1,5,-1
 1200 1400 l 1,6,-1
 1400 1200 l 1,7,-1
 1400 800 l 1,8,-1
 800 0 l 1,9,-1
 200 800 l 1,0,-1
EndSplineSet
EndChar

StartChar: diamond
Encoding: 9830 9830 267
Width: 1600
GlyphClass: 2
Flags: W
LayerCount: 2
Fore
SplineSet
200 700 m 1,0,-1
 800 1400 l 1,1,-1
 1400 700 l 1,2,-1
 800 0 l 1,3,-1
 200 700 l 1,0,-1
EndSplineSet
EndChar

StartChar: club
Encoding: 9827 9827 268
Width: 1600
GlyphClass: 2
Flags: W
LayerCount: 2
Fore
SplineSet
200 400 m 1,0,-1
 200 600 l 1,1,-1
 400 800 l 1,2,-1
 600 800 l 1,3,-1
 400 1000 l 1,4,-1
 400 1200 l 1,5,-1
 600 1400 l 1,6,-1
 1000 1400 l 1,7,-1
 1200 1200 l 1,8,-1
 1200 1000 l 1,9,-1
 1000 800 l 1,10,-1
 1200 800 l 1,11,-1
 1400 600 l 1,12,-1
 1400 400 l 1,13,-1
 1200 200 l 1,14,-1
 1000 200 l 1,15,-1
 800 400 l 1,16,-1
 600 200 l 1,17,-1
 400 200 l 1,18,-1
 200 400 l 1,0,-1
700 0 m 1,19,-1
 700 200 l 1,20,-1
 900 200 l 1,21,-1
 900 0 l 1,22,-1
 700 0 l 1,19,-1
EndSplineSet
EndChar

StartChar: spade
Encoding: 9824 9824 269
Width: 1600
GlyphClass: 2
Flags: W
LayerCount: 2
Fore
SplineSet
200 400 m 1,0,-1
 200 600 l 1,1,-1
 800 1400 l 1,2,-1
 1400 600 l 1,3,-1
 1400 400 l 1,4,-1
 1200 200 l 1,5,-1
 1000 200 l 1,6,-1
 800 400 l 1,7,-1
 600 200 l 1,8,-1
 400 200 l 1,9,-1
 200 400 l 1,0,-1
700 0 m 1,10,-1
 700 200 l 1,11,-1
 900 200 l 1,12,-1
 900 0 l 1,13,-1
 700 0 l 1,10,-1
EndSplineSet
EndChar

StartChar: invbullet
Encoding: 9688 9688 270
Width: 1600
GlyphClass: 2
Flags: W
LayerCount: 2
Fore
SplineSet
200 0 m 1,0,-1
 200 1400 l 1,1,-1
 1400 1400 l 1,2,-1
 1400 0 l 1,3,-1
 200 0 l 1,0,-1
700 600 m 1,4,-1
 900 600 l 1,5,-1
 900 800 l 1,6,-1
 700 800 l 1,7,-1
 700 600 l 1,4,-1
EndSplineSet
EndChar

StartChar: circle
Encoding: 9675 9675 271
Width: 1600
GlyphClass: 2
Flags: W
LayerCount: 2
Fore
SplineSet
200 600 m 128,-1,1
 200 763 200 763 280.5 901 c 128,-1,2
 361 1039 361 1039 499 1119.5 c 128,-1,3
 637 1200 637 1200 800 1200 c 128,-1,4
 963 1200 963 1200 1101 1119.5 c 128,-1,5
 1239 1039 1239 1039 1319.5 901 c 128,-1,6
 1400 763 1400 763 1400 600 c 128,-1,7
 1400 437 1400 437 1319.5 299 c 128,-1,8
 1239 161 1239 161 1101 80.5 c 128,-1,9
 963 0 963 0 800 0 c 128,-1,10
 637 0 637 0 499 80.5 c 128,-1,11
 361 161 361 161 280.5 299 c 128,-1,0
 200 437 200 437 200 600 c 128,-1,1
400 600 m 128,-1,13
 400 434 400 434 517 317 c 128,-1,14
 634 200 634 200 800 200 c 128,-1,15
 966 200 966 200 1083 317 c 128,-1,16
 1200 434 1200 434 1200 600 c 128,-1,17
 1200 766 1200 766 1083 883 c 128,-1,18
 966 1000 966 1000 800 1000 c 128,-1,19
 634 1000 634 1000 517 883 c 128,-1,12
 400 766 400 766 400 600 c 128,-1,13
EndSplineSet
EndChar

StartChar: invcircle
Encoding: 9689 9689 272
Width: 1600
GlyphClass: 2
Flags: W
LayerCount: 2
Fore
SplineSet
0 -200 m 1,0,-1
 0 1400 l 1,1,-1
 1600 1400 l 1,2,-1
 1600 -200 l 1,3,-1
 0 -200 l 1,0,-1
200 600 m 128,-1,5
 200 437 200 437 280.5 299 c 128,-1,6
 361 161 361 161 499 80.5 c 128,-1,7
 637 0 637 0 800 0 c 128,-1,8
 963 0 963 0 1101 80.5 c 128,-1,9
 1239 161 1239 161 1319.5 299 c 128,-1,10
 1400 437 1400 437 1400 600 c 128,-1,11
 1400 763 1400 763 1319.5 901 c 128,-1,12
 1239 1039 1239 1039 1101 1119.5 c 128,-1,13
 963 1200 963 1200 800 1200 c 128,-1,14
 637 1200 637 1200 499 1119.5 c 128,-1,15
 361 1039 361 1039 280.5 901 c 128,-1,4
 200 763 200 763 200 600 c 128,-1,5
400 600 m 128,-1,17
 400 766 400 766 517 883 c 128,-1,18
 634 1000 634 1000 800 1000 c 128,-1,19
 966 1000 966 1000 1083 883 c 128,-1,20
 1200 766 1200 766 1200 600 c 128,-1,21
 1200 434 1200 434 1083 317 c 128,-1,22
 966 200 966 200 800 200 c 128,-1,23
 634 200 634 200 517 317 c 128,-1,16
 400 434 400 434 400 600 c 128,-1,17
EndSplineSet
EndChar

StartChar: male
Encoding: 9794 9794 273
Width: 1600
GlyphClass: 2
Flags: W
LayerCount: 2
Fore
SplineSet
400 200 m 1,0,-1
 400 600 l 1,1,-1
 600 800 l 1,2,-1
 700 800 l 1,3,-1
 700 1000 l 1,4,-1
 400 1000 l 1,5,-1
 800 1400 l 1,6,-1
 1200 1000 l 1,7,-1
 900 1000 l 1,8,-1
 900 800 l 1,9,-1
 1000 800 l 1,10,-1
 1200 600 l 1,11,-1
 1200 200 l 1,12,-1
 1000 0 l 1,13,-1
 600 0 l 1,14,-1
 400 200 l 1,0,-1
600 300 m 1,15,-1
 700 200 l 1,16,-1
 900 200 l 1,17,-1
 1000 300 l 1,18,-1
 1000 500 l 1,19,-1
 900 600 l 1,20,-1
 700 600 l 1,21,-1
 600 500 l 1,22,-1
 600 300 l 1,15,-1
EndSplineSet
EndChar

StartChar: female
Encoding: 9792 9792 274
Width: 1600
GlyphClass: 2
Flags: W
LayerCount: 2
Fore
SplineSet
400 200 m 1,0,-1
 400 400 l 1,1,-1
 700 400 l 1,2,-1
 700 600 l 1,3,-1
 600 600 l 1,4,-1
 400 800 l 1,5,-1
 400 1200 l 1,6,-1
 600 1400 l 1,7,-1
 1000 1400 l 1,8,-1
 1200 1200 l 1,9,-1
 1200 800 l 1,10,-1
 1000 600 l 1,11,-1
 900 600 l 1,12,-1
 900 400 l 1,13,-1
 1200 400 l 1,14,-1
 1200 200 l 1,15,-1
 900 200 l 1,16,-1
 900 0 l 1,17,-1
 700 0 l 1,18,-1
 700 200 l 1,19,-1
 400 200 l 1,0,-1
600 900 m 1,20,-1
 700 800 l 1,21,-1
 900 800 l 1,22,-1
 1000 900 l 1,23,-1
 1000 1100 l 1,24,-1
 900 1200 l 1,25,-1
 700 1200 l 1,26,-1
 600 1100 l 1,27,-1
 600 900 l 1,20,-1
EndSplineSet
EndChar

StartChar: musicalnote
Encoding: 9834 9834 275
Width: 1600
GlyphClass: 2
Flags: W
LayerCount: 2
Fore
SplineSet
400 0 m 1,0,-1
 400 400 l 1,1,-1
 800 400 l 1,2,-1
 800 1400 l 1,3,-1
 1000 1400 l 1,4,-1
 1200 1200 l 1,5,-1
 1200 900 l 1,6,-1
 1000 1100 l 1,7,-1
 1000 0 l 1,8,-1
 400 0 l 1,0,-1
EndSplineSet
EndChar

StartChar: musicalnotedbl
Encoding: 9835 9835 276
Width: 1600
GlyphClass: 2
Flags: W
LayerCount: 2
Fore
SplineSet
200 0 m 1,0,-1
 200 400 l 1,1,-1
 400 400 l 1,2,-1
 400 1400 l 1,3,-1
 1400 1400 l 1,4,-1
 1400 200 l 1,5,-1
 1000 200 l 1,6,-1
 1000 600 l 1,7,-1
 1200 600 l 1,8,-1
 1200 1200 l 1,9,-1
 600 1200 l 1,10,-1
 600 0 l 1,11,-1
 200 0 l 1,0,-1
EndSplineSet
EndChar

StartChar: sun
Encoding: 9788 9788 277
Width: 1600
GlyphClass: 2
Flags: W
LayerCount: 2
Fore
SplineSet
100 600 m 1,0,-1
 100 800 l 1,1,-1
 300 800 l 1,2,-1
 300 900 l 1,3,-1
 379 979 l 1,4,-1
 200 1158 l 1,5,-1
 342 1300 l 1,6,-1
 521 1121 l 1,7,-1
 600 1200 l 1,8,-1
 700 1200 l 1,9,-1
 700 1400 l 1,10,-1
 900 1400 l 1,11,-1
 900 1200 l 1,12,-1
 1000 1200 l 1,13,-1
 1079 1121 l 1,14,-1
 1258 1300 l 1,15,-1
 1400 1158 l 1,16,-1
 1221 979 l 1,17,-1
 1300 900 l 1,18,-1
 1300 800 l 1,19,-1
 1500 800 l 1,20,-1
 1500 600 l 1,21,-1
 1300 600 l 1,22,-1
 1300 500 l 1,23,-1
 1221 421 l 1,24,-1
 1400 242 l 1,25,-1
 1258 100 l 1,26,-1
 1079 279 l 1,27,-1
 1000 200 l 1,28,-1
 900 200 l 1,29,-1
 900 0 l 1,30,-1
 700 0 l 1,31,-1
 700 200 l 1,32,-1
 600 200 l 1,33,-1
 521 279 l 1,34,-1
 342 100 l 1,35,-1
 200 242 l 1,36,-1
 379 421 l 1,37,-1
 300 500 l 1,38,-1
 300 600 l 1,39,-1
 100 600 l 1,0,-1
500 600 m 1,40,-1
 700 400 l 1,41,-1
 900 400 l 1,42,-1
 1100 600 l 1,43,-1
 1100 800 l 1,44,-1
 900 1000 l 1,45,-1
 696 1000 l 1,46,-1
 500 800 l 1,47,-1
 500 600 l 1,40,-1
EndSplineSet
EndChar

StartChar: triagrt
Encoding: 9658 9658 278
Width: 1600
GlyphClass: 2
Flags: W
LayerCount: 2
Fore
SplineSet
200 300 m 1,0,-1
 200 1100 l 1,1,-1
 1400 700 l 1,2,-1
 200 300 l 1,0,-1
EndSplineSet
EndChar

StartChar: triaglf
Encoding: 9668 9668 279
Width: 1600
GlyphClass: 2
Flags: W
LayerCount: 2
Fore
SplineSet
200 700 m 1,0,-1
 1400 1100 l 1,1,-1
 1400 300 l 1,2,-1
 200 700 l 1,0,-1
EndSplineSet
EndChar

StartChar: arrowupdn
Encoding: 8597 8597 280
Width: 1600
GlyphClass: 2
Flags: W
LayerCount: 2
Fore
SplineSet
400 400 m 1,0,-1
 700 400 l 1,1,-1
 700 1000 l 1,2,-1
 400 1000 l 1,3,-1
 800 1400 l 1,4,-1
 1200 1000 l 1,5,-1
 900 1000 l 1,6,-1
 900 400 l 1,7,-1
 1200 400 l 1,8,-1
 800 0 l 1,9,-1
 400 400 l 1,0,-1
EndSplineSet
EndChar

StartChar: exclamdbl
Encoding: 8252 8252 281
Width: 1600
GlyphClass: 2
Flags: W
LayerCount: 2
Fore
SplineSet
400 0 m 1,0,-1
 400 200 l 1,1,-1
 600 200 l 1,2,-1
 600 0 l 1,3,-1
 400 0 l 1,0,-1
400 400 m 1,4,-1
 400 1400 l 1,5,-1
 600 1400 l 1,6,-1
 600 400 l 1,7,-1
 400 400 l 1,4,-1
1000 0 m 1,8,-1
 1000 200 l 1,9,-1
 1200 200 l 1,10,-1
 1200 0 l 1,11,-1
 1000 0 l 1,8,-1
1000 400 m 1,12,-1
 1000 1400 l 1,13,-1
 1200 1400 l 1,14,-1
 1200 400 l 1,15,-1
 1000 400 l 1,12,-1
EndSplineSet
EndChar

StartChar: filledrect
Encoding: 9644 9644 282
Width: 1600
GlyphClass: 2
Flags: W
LayerCount: 2
Fore
SplineSet
0 200 m 1,0,-1
 0 1000 l 1,1,-1
 1600 1000 l 1,2,-1
 1600 200 l 1,3,-1
 0 200 l 1,0,-1
EndSplineSet
EndChar

StartChar: arrowupdnbse
Encoding: 8616 8616 283
Width: 1600
GlyphClass: 2
Flags: W
LayerCount: 2
Fore
SplineSet
400 0 m 1,0,-1
 1200 0 l 1,1,-1
 1200 -200 l 1,2,-1
 400 -200 l 1,3,-1
 400 0 l 1,0,-1
400 400 m 1,4,-1
 700 400 l 1,5,-1
 700 1000 l 1,6,-1
 400 1000 l 1,7,-1
 800 1400 l 1,8,-1
 1200 1000 l 1,9,-1
 900 1000 l 1,10,-1
 900 400 l 1,11,-1
 1200 400 l 1,12,-1
 800 0 l 1,13,-1
 400 400 l 1,4,-1
EndSplineSet
EndChar

StartChar: arrowup
Encoding: 8593 8593 284
Width: 1600
GlyphClass: 2
Flags: W
LayerCount: 2
Fore
SplineSet
400 1000 m 1,0,-1
 800 1400 l 1,1,-1
 1200 1000 l 1,2,-1
 900 1000 l 1,3,-1
 900 0 l 1,4,-1
 700 0 l 1,5,-1
 700 1000 l 1,6,-1
 400 1000 l 1,0,-1
EndSplineSet
EndChar

StartChar: arrowdown
Encoding: 8595 8595 285
Width: 1600
GlyphClass: 2
Flags: W
LayerCount: 2
Fore
SplineSet
400 400 m 1,0,-1
 700 400 l 1,1,-1
 700 1400 l 1,2,-1
 900 1400 l 1,3,-1
 900 400 l 1,4,-1
 1200 400 l 1,5,-1
 800 0 l 1,6,-1
 400 400 l 1,0,-1
EndSplineSet
EndChar

StartChar: arrowright
Encoding: 8594 8594 286
Width: 1600
GlyphClass: 2
Flags: W
LayerCount: 2
Fore
SplineSet
200 600 m 1,0,-1
 200 800 l 1,1,-1
 1000 800 l 1,2,-1
 1000 1100 l 1,3,-1
 1400 700 l 1,4,-1
 1000 300 l 1,5,-1
 1000 600 l 1,6,-1
 200 600 l 1,0,-1
EndSplineSet
EndChar

StartChar: arrowleft
Encoding: 8592 8592 287
Width: 1600
GlyphClass: 2
Flags: W
LayerCount: 2
Fore
SplineSet
200 700 m 1,0,-1
 600 1100 l 1,1,-1
 600 800 l 1,2,-1
 1400 800 l 1,3,-1
 1400 600 l 1,4,-1
 600 600 l 1,5,-1
 600 300 l 1,6,-1
 200 700 l 1,0,-1
EndSplineSet
EndChar

StartChar: orthogonal
Encoding: 8735 8735 288
Width: 1600
GlyphClass: 2
Flags: W
LayerCount: 2
Fore
SplineSet
300 0 m 1,0,-1
 300 1000 l 1,1,-1
 500 1000 l 1,2,-1
 500 200 l 1,3,-1
 1300 200 l 1,4,-1
 1300 0 l 1,5,-1
 300 0 l 1,0,-1
EndSplineSet
EndChar

StartChar: arrowboth
Encoding: 8596 8596 289
Width: 1600
GlyphClass: 2
Flags: W
LayerCount: 2
Fore
SplineSet
200 700 m 1,0,-1
 600 1100 l 1,1,-1
 600 800 l 1,2,-1
 1000 800 l 1,3,-1
 1000 1100 l 1,4,-1
 1400 700 l 1,5,-1
 1000 300 l 1,6,-1
 1000 600 l 1,7,-1
 600 600 l 1,8,-1
 600 300 l 1,9,-1
 200 700 l 1,0,-1
EndSplineSet
EndChar

StartChar: triagup
Encoding: 9650 9650 290
Width: 1600
GlyphClass: 2
Flags: W
LayerCount: 2
Fore
SplineSet
200 0 m 1,0,-1
 800 1200 l 1,1,-1
 1400 0 l 1,2,-1
 200 0 l 1,0,-1
EndSplineSet
EndChar

StartChar: triagdn
Encoding: 9660 9660 291
Width: 1600
GlyphClass: 2
Flags: W
LayerCount: 2
Fore
SplineSet
200 1200 m 1,0,-1
 1400 1200 l 1,1,-1
 800 0 l 1,2,-1
 200 1200 l 1,0,-1
EndSplineSet
EndChar

StartChar: house
Encoding: 8962 8962 292
Width: 1600
GlyphClass: 2
Flags: W
LayerCount: 2
Fore
SplineSet
300 0 m 1,0,-1
 300 500 l 1,1,-1
 800 1000 l 1,2,-1
 1300 500 l 1,3,-1
 1300 0 l 1,4,-1
 300 0 l 1,0,-1
500 200 m 1,5,-1
 1100 200 l 1,6,-1
 1100 400 l 1,7,-1
 800 700 l 1,8,-1
 500 400 l 1,9,-1
 500 200 l 1,5,-1
EndSplineSet
EndChar

StartChar: peseta
Encoding: 8359 8359 293
Width: 1600
GlyphClass: 2
Flags: W
LayerCount: 2
Fore
SplineSet
100 0 m 1,0,-1
 100 1400 l 1,1,-1
 500 1400 l 1,2,-1
 700 1200 l 1,3,-1
 700 800 l 1,4,-1
 500 600 l 1,5,-1
 300 600 l 1,6,-1
 300 0 l 1,7,-1
 100 0 l 1,0,-1
300 800 m 1,8,-1
 400 800 l 1,9,-1
 500 900 l 1,10,-1
 500 1100 l 1,11,-1
 400 1200 l 1,12,-1
 300 1200 l 1,13,-1
 300 800 l 1,8,-1
900 800 m 1,14,-1
 900 1000 l 1,15,-1
 1100 1000 l 1,16,-1
 1100 1400 l 1,17,-1
 1300 1400 l 1,18,-1
 1300 1000 l 1,19,-1
 1500 1000 l 1,20,-1
 1500 800 l 1,21,-1
 1300 800 l 1,22,-1
 1300 0 l 1,23,-1
 1100 0 l 1,24,-1
 1100 800 l 1,25,-1
 900 800 l 1,14,-1
EndSplineSet
EndChar

StartChar: revlogicalnot
Encoding: 8976 8976 294
Width: 1600
GlyphClass: 2
Flags: W
LayerCount: 2
Fore
SplineSet
500 500 m 1,0,-1
 500 900 l 1,1,-1
 1100 900 l 1,2,-1
 1100 700 l 1,3,-1
 700 700 l 1,4,-1
 700 500 l 1,5,-1
 500 500 l 1,0,-1
EndSplineSet
EndChar

StartChar: onehalf
Encoding: 189 189 295
Width: 1600
GlyphClass: 2
Flags: W
LayerCount: 2
Fore
SplineSet
100 800 m 1,0,-1
 100 900 l 1,1,-1
 300 900 l 1,2,-1
 300 1200 l 1,3,-1
 100 1200 l 1,4,-1
 100 1300 l 1,5,-1
 300 1300 l 1,6,-1
 300 1400 l 1,7,-1
 500 1400 l 1,8,-1
 500 900 l 1,9,-1
 700 900 l 1,10,-1
 700 800 l 1,11,-1
 100 800 l 1,0,-1
200 200 m 1,12,-1
 1200 1200 l 1,13,-1
 1400 1200 l 1,14,-1
 400 200 l 1,15,-1
 200 200 l 1,12,-1
900 0 m 1,16,-1
 900 100 l 1,17,-1
 1300 400 l 1,18,-1
 1300 500 l 1,19,-1
 1100 500 l 1,20,-1
 1100 400 l 1,21,-1
 900 400 l 1,22,-1
 900 500 l 1,23,-1
 1000 600 l 1,24,-1
 1400 600 l 1,25,-1
 1500 500 l 1,26,-1
 1500 350 l 1,27,-1
 1167 100 l 1,28,-1
 1500 100 l 1,29,-1
 1500 0 l 1,30,-1
 900 0 l 1,16,-1
EndSplineSet
EndChar

StartChar: onequarter
Encoding: 188 188 296
Width: 1600
GlyphClass: 2
Flags: W
LayerCount: 2
Fore
SplineSet
1100 200 m 1,0,-1
 1200 200 l 1,1,-1
 1200 333 l 1,2,-1
 1100 200 l 1,0,-1
900 100 m 1,3,-1
 900 200 l 1,4,-1
 1200 600 l 1,5,-1
 1400 600 l 1,6,-1
 1400 200 l 1,7,-1
 1500 200 l 1,8,-1
 1500 100 l 1,9,-1
 1400 100 l 1,10,-1
 1400 0 l 1,11,-1
 1200 0 l 1,12,-1
 1200 100 l 1,13,-1
 900 100 l 1,3,-1
200 200 m 1,14,-1
 1200 1200 l 1,15,-1
 1400 1200 l 1,16,-1
 400 200 l 1,17,-1
 200 200 l 1,14,-1
100 800 m 1,18,-1
 100 900 l 1,19,-1
 300 900 l 1,20,-1
 300 1200 l 1,21,-1
 100 1200 l 1,22,-1
 100 1300 l 1,23,-1
 300 1300 l 1,24,-1
 300 1400 l 1,25,-1
 500 1400 l 1,26,-1
 500 900 l 1,27,-1
 700 900 l 1,28,-1
 700 800 l 1,29,-1
 100 800 l 1,18,-1
EndSplineSet
EndChar

StartChar: ltshade
Encoding: 9617 9617 297
Width: 1600
GlyphClass: 2
Flags: W
LayerCount: 2
Fore
SplineSet
0 400 m 1,0,-1
 0 600 l 1,1,-1
 200 600 l 1,2,-1
 200 400 l 1,3,-1
 0 400 l 1,0,-1
0 1200 m 1,4,-1
 0 1400 l 1,5,-1
 200 1400 l 1,6,-1
 200 1200 l 1,7,-1
 0 1200 l 1,4,-1
200 0 m 1,8,-1
 200 200 l 1,9,-1
 400 200 l 1,10,-1
 400 0 l 1,11,-1
 200 0 l 1,8,-1
200 800 m 1,12,-1
 200 1000 l 1,13,-1
 400 1000 l 1,14,-1
 400 800 l 1,15,-1
 200 800 l 1,12,-1
400 400 m 1,16,-1
 400 600 l 1,17,-1
 600 600 l 1,18,-1
 600 400 l 1,19,-1
 400 400 l 1,16,-1
400 1200 m 1,20,-1
 400 1400 l 1,21,-1
 600 1400 l 1,22,-1
 600 1200 l 1,23,-1
 400 1200 l 1,20,-1
600 0 m 1,24,-1
 600 200 l 1,25,-1
 800 200 l 1,26,-1
 800 0 l 1,27,-1
 600 0 l 1,24,-1
600 800 m 1,28,-1
 600 1000 l 1,29,-1
 800 1000 l 1,30,-1
 800 800 l 1,31,-1
 600 800 l 1,28,-1
800 400 m 1,32,-1
 800 600 l 1,33,-1
 1000 600 l 1,34,-1
 1000 400 l 1,35,-1
 800 400 l 1,32,-1
800 1200 m 1,36,-1
 800 1400 l 1,37,-1
 1000 1400 l 1,38,-1
 1000 1200 l 1,39,-1
 800 1200 l 1,36,-1
1000 0 m 1,40,-1
 1000 200 l 1,41,-1
 1200 200 l 1,42,-1
 1200 0 l 1,43,-1
 1000 0 l 1,40,-1
1000 800 m 1,44,-1
 1000 1000 l 1,45,-1
 1200 1000 l 1,46,-1
 1200 800 l 1,47,-1
 1000 800 l 1,44,-1
1200 400 m 1,48,-1
 1200 600 l 1,49,-1
 1400 600 l 1,50,-1
 1400 400 l 1,51,-1
 1200 400 l 1,48,-1
1200 1200 m 1,52,-1
 1200 1400 l 1,53,-1
 1400 1400 l 1,54,-1
 1400 1200 l 1,55,-1
 1200 1200 l 1,52,-1
1400 0 m 1,56,-1
 1400 200 l 1,57,-1
 1600 200 l 1,58,-1
 1600 0 l 1,59,-1
 1400 0 l 1,56,-1
1400 800 m 1,60,-1
 1400 1000 l 1,61,-1
 1600 1000 l 1,62,-1
 1600 800 l 1,63,-1
 1400 800 l 1,60,-1
EndSplineSet
EndChar

StartChar: shade
Encoding: 9618 9618 298
Width: 1600
GlyphClass: 2
Flags: W
LayerCount: 2
Fore
SplineSet
0 0 m 1,0,-1
 0 200 l 1,1,-1
 200 200 l 1,2,-1
 200 0 l 1,3,-1
 0 0 l 1,0,-1
0 400 m 1,4,-1
 0 600 l 1,5,-1
 200 600 l 1,6,-1
 200 400 l 1,7,-1
 0 400 l 1,4,-1
0 800 m 1,8,-1
 0 1000 l 1,9,-1
 200 1000 l 1,10,-1
 200 800 l 1,11,-1
 0 800 l 1,8,-1
0 1200 m 1,12,-1
 0 1400 l 1,13,-1
 200 1400 l 1,14,-1
 200 1200 l 1,15,-1
 0 1200 l 1,12,-1
200 0 m 1,16,-1
 400 0 l 1,17,-1
 400 -200 l 1,18,-1
 200 -200 l 1,19,-1
 200 0 l 1,16,-1
200 200 m 1,20,-1
 200 400 l 1,21,-1
 400 400 l 1,22,-1
 400 200 l 1,23,-1
 200 200 l 1,20,-1
200 600 m 1,24,-1
 200 800 l 1,25,-1
 400 800 l 1,26,-1
 400 600 l 1,27,-1
 200 600 l 1,24,-1
200 1000 m 1,28,-1
 200 1200 l 1,29,-1
 400 1200 l 1,30,-1
 400 1000 l 1,31,-1
 200 1000 l 1,28,-1
400 0 m 1,32,-1
 400 200 l 1,33,-1
 600 200 l 1,34,-1
 600 0 l 1,35,-1
 400 0 l 1,32,-1
400 400 m 1,36,-1
 400 600 l 1,37,-1
 600 600 l 1,38,-1
 600 400 l 1,39,-1
 400 400 l 1,36,-1
400 800 m 1,40,-1
 400 1000 l 1,41,-1
 600 1000 l 1,42,-1
 600 800 l 1,43,-1
 400 800 l 1,40,-1
400 1200 m 1,44,-1
 400 1400 l 1,45,-1
 600 1400 l 1,46,-1
 600 1200 l 1,47,-1
 400 1200 l 1,44,-1
600 0 m 1,48,-1
 800 0 l 1,49,-1
 800 -200 l 1,50,-1
 600 -200 l 1,51,-1
 600 0 l 1,48,-1
600 200 m 1,52,-1
 600 400 l 1,53,-1
 800 400 l 1,54,-1
 800 200 l 1,55,-1
 600 200 l 1,52,-1
600 600 m 1,56,-1
 600 800 l 1,57,-1
 800 800 l 1,58,-1
 800 600 l 1,59,-1
 600 600 l 1,56,-1
600 1000 m 1,60,-1
 600 1200 l 1,61,-1
 800 1200 l 1,62,-1
 800 1000 l 1,63,-1
 600 1000 l 1,60,-1
800 0 m 1,64,-1
 800 200 l 1,65,-1
 1000 200 l 1,66,-1
 1000 0 l 1,67,-1
 800 0 l 1,64,-1
800 400 m 1,68,-1
 800 600 l 1,69,-1
 1000 600 l 1,70,-1
 1000 400 l 1,71,-1
 800 400 l 1,68,-1
800 800 m 1,72,-1
 800 1000 l 1,73,-1
 1000 1000 l 1,74,-1
 1000 800 l 1,75,-1
 800 800 l 1,72,-1
800 1200 m 1,76,-1
 800 1400 l 1,77,-1
 1000 1400 l 1,78,-1
 1000 1200 l 1,79,-1
 800 1200 l 1,76,-1
1000 0 m 1,80,-1
 1200 0 l 1,81,-1
 1200 -200 l 1,82,-1
 1000 -200 l 1,83,-1
 1000 0 l 1,80,-1
1000 200 m 1,84,-1
 1000 400 l 1,85,-1
 1200 400 l 1,86,-1
 1200 200 l 1,87,-1
 1000 200 l 1,84,-1
1000 600 m 1,88,-1
 1000 800 l 1,89,-1
 1200 800 l 1,90,-1
 1200 600 l 1,91,-1
 1000 600 l 1,88,-1
1000 1000 m 1,92,-1
 1000 1200 l 1,93,-1
 1200 1200 l 1,94,-1
 1200 1000 l 1,95,-1
 1000 1000 l 1,92,-1
1200 0 m 1,96,-1
 1200 200 l 1,97,-1
 1400 200 l 1,98,-1
 1400 0 l 1,99,-1
 1200 0 l 1,96,-1
1200 400 m 1,100,-1
 1200 600 l 1,101,-1
 1400 600 l 1,102,-1
 1400 400 l 1,103,-1
 1200 400 l 1,100,-1
1200 800 m 1,104,-1
 1200 1000 l 1,105,-1
 1400 1000 l 1,106,-1
 1400 800 l 1,107,-1
 1200 800 l 1,104,-1
1200 1200 m 1,108,-1
 1200 1400 l 1,109,-1
 1400 1400 l 1,110,-1
 1400 1200 l 1,111,-1
 1200 1200 l 1,108,-1
1400 0 m 1,112,-1
 1600 0 l 1,113,-1
 1600 -200 l 1,114,-1
 1400 -200 l 1,115,-1
 1400 0 l 1,112,-1
1400 200 m 1,116,-1
 1400 400 l 1,117,-1
 1600 400 l 1,118,-1
 1600 200 l 1,119,-1
 1400 200 l 1,116,-1
1400 600 m 1,120,-1
 1400 800 l 1,121,-1
 1600 800 l 1,122,-1
 1600 600 l 1,123,-1
 1400 600 l 1,120,-1
1400 1000 m 1,124,-1
 1400 1200 l 1,125,-1
 1600 1200 l 1,126,-1
 1600 1000 l 1,127,-1
 1400 1000 l 1,124,-1
EndSplineSet
EndChar

StartChar: dkshade
Encoding: 9619 9619 299
Width: 1600
GlyphClass: 2
Flags: W
LayerCount: 2
Fore
SplineSet
0 0 m 1,0,-1
 0 600 l 1,1,-1
 200 600 l 1,2,-1
 200 800 l 1,3,-1
 0 800 l 1,4,-1
 0 1400 l 1,5,-1
 1600 1400 l 1,6,-1
 1600 1200 l 1,7,-1
 1400 1200 l 1,8,-1
 1400 1000 l 1,9,-1
 1600 1000 l 1,10,-1
 1600 400 l 1,11,-1
 1400 400 l 1,12,-1
 1400 200 l 1,13,-1
 1600 200 l 1,14,-1
 1600 -200 l 1,15,-1
 1400 -200 l 1,16,-1
 1400 0 l 1,17,-1
 1200 0 l 1,18,-1
 1200 -200 l 1,19,-1
 1000 -200 l 1,20,-1
 1000 0 l 1,21,-1
 800 0 l 1,22,-1
 800 -200 l 1,23,-1
 600 -200 l 1,24,-1
 600 0 l 1,25,-1
 400 0 l 1,26,-1
 400 -200 l 1,27,-1
 200 -200 l 1,28,-1
 200 0 l 1,29,-1
 0 0 l 1,0,-1
200 200 m 1,30,-1
 400 200 l 1,31,-1
 400 400 l 1,32,-1
 200 400 l 1,33,-1
 200 200 l 1,30,-1
200 1000 m 1,34,-1
 400 1000 l 1,35,-1
 400 1200 l 1,36,-1
 200 1200 l 1,37,-1
 200 1000 l 1,34,-1
400 600 m 1,38,-1
 600 600 l 1,39,-1
 600 800 l 1,40,-1
 400 800 l 1,41,-1
 400 600 l 1,38,-1
600 200 m 1,42,-1
 800 200 l 1,43,-1
 800 400 l 1,44,-1
 600 400 l 1,45,-1
 600 200 l 1,42,-1
600 1000 m 1,46,-1
 800 1000 l 1,47,-1
 800 1200 l 1,48,-1
 600 1200 l 1,49,-1
 600 1000 l 1,46,-1
800 600 m 1,50,-1
 1000 600 l 1,51,-1
 1000 800 l 1,52,-1
 800 800 l 1,53,-1
 800 600 l 1,50,-1
1000 200 m 1,54,-1
 1200 200 l 1,55,-1
 1200 400 l 1,56,-1
 1000 400 l 1,57,-1
 1000 200 l 1,54,-1
1000 1000 m 1,58,-1
 1200 1000 l 1,59,-1
 1200 1200 l 1,60,-1
 1000 1200 l 1,61,-1
 1000 1000 l 1,58,-1
1200 600 m 1,62,-1
 1400 600 l 1,63,-1
 1400 800 l 1,64,-1
 1200 800 l 1,65,-1
 1200 600 l 1,62,-1
EndSplineSet
EndChar

StartChar: SF110000
Encoding: 9474 9474 300
Width: 1600
GlyphClass: 2
Flags: W
LayerCount: 2
Fore
SplineSet
700 -200 m 1,0,-1
 700 1400 l 1,1,-1
 900 1400 l 1,2,-1
 900 -200 l 1,3,-1
 700 -200 l 1,0,-1
EndSplineSet
EndChar

StartChar: SF090000
Encoding: 9508 9508 301
Width: 1600
GlyphClass: 2
Flags: W
LayerCount: 2
Fore
SplineSet
0 500 m 1,0,-1
 0 700 l 1,1,-1
 700 700 l 1,2,-1
 700 1400 l 1,3,-1
 900 1400 l 1,4,-1
 900 -200 l 1,5,-1
 700 -200 l 1,6,-1
 700 500 l 1,7,-1
 0 500 l 1,0,-1
EndSplineSet
EndChar

StartChar: SF190000
Encoding: 9569 9569 302
Width: 1600
GlyphClass: 2
Flags: W
LayerCount: 2
Fore
SplineSet
0 300 m 1,0,-1
 0 500 l 1,1,-1
 700 500 l 1,2,-1
 700 700 l 1,3,-1
 0 700 l 1,4,-1
 0 900 l 1,5,-1
 700 900 l 1,6,-1
 700 1400 l 1,7,-1
 900 1400 l 1,8,-1
 900 -200 l 1,9,-1
 700 -200 l 1,10,-1
 700 300 l 1,11,-1
 0 300 l 1,0,-1
EndSplineSet
EndChar

StartChar: SF200000
Encoding: 9570 9570 303
Width: 1600
GlyphClass: 2
Flags: W
LayerCount: 2
Fore
SplineSet
0 500 m 1,0,-1
 0 700 l 1,1,-1
 500 700 l 1,2,-1
 500 1400 l 1,3,-1
 700 1400 l 1,4,-1
 700 -200 l 1,5,-1
 500 -200 l 1,6,-1
 500 500 l 1,7,-1
 0 500 l 1,0,-1
900 -200 m 1,8,-1
 900 1400 l 1,9,-1
 1100 1400 l 1,10,-1
 1100 -200 l 1,11,-1
 900 -200 l 1,8,-1
EndSplineSet
EndChar

StartChar: SF210000
Encoding: 9558 9558 304
Width: 1600
GlyphClass: 2
Flags: W
LayerCount: 2
Fore
SplineSet
0 500 m 1,0,-1
 0 700 l 1,1,-1
 1100 700 l 1,2,-1
 1100 -200 l 1,3,-1
 900 -200 l 1,4,-1
 900 500 l 1,5,-1
 700 500 l 1,6,-1
 700 -200 l 1,7,-1
 500 -200 l 1,8,-1
 500 500 l 1,9,-1
 0 500 l 1,0,-1
EndSplineSet
EndChar

StartChar: SF220000
Encoding: 9557 9557 305
Width: 1600
GlyphClass: 2
Flags: W
LayerCount: 2
Fore
SplineSet
0 300 m 1,0,-1
 0 500 l 1,1,-1
 700 500 l 1,2,-1
 700 700 l 1,3,-1
 0 700 l 1,4,-1
 0 900 l 1,5,-1
 900 900 l 1,6,-1
 900 -200 l 1,7,-1
 700 -200 l 1,8,-1
 700 300 l 1,9,-1
 0 300 l 1,0,-1
EndSplineSet
EndChar

StartChar: SF230000
Encoding: 9571 9571 306
Width: 1600
GlyphClass: 2
Flags: W
LayerCount: 2
Fore
SplineSet
0 300 m 1,0,-1
 0 500 l 1,1,-1
 700 500 l 1,2,-1
 700 -200 l 1,3,-1
 500 -200 l 1,4,-1
 500 300 l 1,5,-1
 0 300 l 1,0,-1
0 700 m 1,6,-1
 0 900 l 1,7,-1
 500 900 l 1,8,-1
 500 1400 l 1,9,-1
 700 1400 l 1,10,-1
 700 700 l 1,11,-1
 0 700 l 1,6,-1
900 -200 m 1,12,-1
 900 1400 l 1,13,-1
 1100 1400 l 1,14,-1
 1100 -200 l 1,15,-1
 900 -200 l 1,12,-1
EndSplineSet
EndChar

StartChar: SF240000
Encoding: 9553 9553 307
Width: 1600
GlyphClass: 2
Flags: W
LayerCount: 2
Fore
SplineSet
500 -200 m 1,0,-1
 500 1400 l 1,1,-1
 700 1400 l 1,2,-1
 700 -200 l 1,3,-1
 500 -200 l 1,0,-1
900 -200 m 1,4,-1
 900 1400 l 1,5,-1
 1100 1400 l 1,6,-1
 1100 -200 l 1,7,-1
 900 -200 l 1,4,-1
EndSplineSet
EndChar

StartChar: SF250000
Encoding: 9559 9559 308
Width: 1600
GlyphClass: 2
Flags: W
LayerCount: 2
Fore
SplineSet
0 300 m 1,0,-1
 0 500 l 1,1,-1
 700 500 l 1,2,-1
 700 -200 l 1,3,-1
 500 -200 l 1,4,-1
 500 300 l 1,5,-1
 0 300 l 1,0,-1
0 700 m 1,6,-1
 0 900 l 1,7,-1
 1100 900 l 1,8,-1
 1100 -200 l 1,9,-1
 900 -200 l 1,10,-1
 900 700 l 1,11,-1
 0 700 l 1,6,-1
EndSplineSet
EndChar

StartChar: SF260000
Encoding: 9565 9565 309
Width: 1600
GlyphClass: 2
Flags: W
LayerCount: 2
Fore
SplineSet
0 300 m 1,0,-1
 0 500 l 1,1,-1
 900 500 l 1,2,-1
 900 1400 l 1,3,-1
 1100 1400 l 1,4,-1
 1100 300 l 1,5,-1
 0 300 l 1,0,-1
0 700 m 1,6,-1
 0 900 l 1,7,-1
 500 900 l 1,8,-1
 500 1400 l 1,9,-1
 700 1400 l 1,10,-1
 700 700 l 1,11,-1
 0 700 l 1,6,-1
EndSplineSet
EndChar

StartChar: SF270000
Encoding: 9564 9564 310
Width: 1600
GlyphClass: 2
Flags: W
LayerCount: 2
Fore
SplineSet
0 500 m 1,0,-1
 0 700 l 1,1,-1
 500 700 l 1,2,-1
 500 1400 l 1,3,-1
 700 1400 l 1,4,-1
 700 700 l 1,5,-1
 900 700 l 1,6,-1
 900 1400 l 1,7,-1
 1100 1400 l 1,8,-1
 1100 500 l 1,9,-1
 0 500 l 1,0,-1
EndSplineSet
EndChar

StartChar: SF280000
Encoding: 9563 9563 311
Width: 1600
GlyphClass: 2
Flags: W
LayerCount: 2
Fore
SplineSet
0 300 m 1,0,-1
 0 500 l 1,1,-1
 700 500 l 1,2,-1
 700 700 l 1,3,-1
 0 700 l 1,4,-1
 0 900 l 1,5,-1
 700 900 l 1,6,-1
 700 1400 l 1,7,-1
 900 1400 l 1,8,-1
 900 300 l 1,9,-1
 0 300 l 1,0,-1
EndSplineSet
EndChar

StartChar: SF030000
Encoding: 9488 9488 312
Width: 1600
GlyphClass: 2
Flags: W
LayerCount: 2
Fore
SplineSet
0 500 m 1,0,-1
 0 700 l 1,1,-1
 900 700 l 1,2,-1
 900 -200 l 1,3,-1
 700 -200 l 1,4,-1
 700 500 l 1,5,-1
 0 500 l 1,0,-1
EndSplineSet
EndChar

StartChar: SF020000
Encoding: 9492 9492 313
Width: 1600
GlyphClass: 2
Flags: W
LayerCount: 2
Fore
SplineSet
700 500 m 1,0,-1
 700 1400 l 1,1,-1
 900 1400 l 1,2,-1
 900 700 l 1,3,-1
 1600 700 l 1,4,-1
 1600 500 l 1,5,-1
 700 500 l 1,0,-1
EndSplineSet
EndChar

StartChar: SF070000
Encoding: 9524 9524 314
Width: 1600
GlyphClass: 2
Flags: W
LayerCount: 2
Fore
SplineSet
0 500 m 1,0,-1
 0 700 l 1,1,-1
 700 700 l 1,2,-1
 700 1400 l 1,3,-1
 900 1400 l 1,4,-1
 900 700 l 1,5,-1
 1600 700 l 1,6,-1
 1600 500 l 1,7,-1
 0 500 l 1,0,-1
EndSplineSet
EndChar

StartChar: SF060000
Encoding: 9516 9516 315
Width: 1600
GlyphClass: 2
Flags: W
LayerCount: 2
Fore
SplineSet
0 500 m 1,0,-1
 0 700 l 1,1,-1
 1600 700 l 1,2,-1
 1600 500 l 1,3,-1
 900 500 l 1,4,-1
 900 -200 l 1,5,-1
 700 -200 l 1,6,-1
 700 500 l 1,7,-1
 0 500 l 1,0,-1
EndSplineSet
EndChar

StartChar: SF080000
Encoding: 9500 9500 316
Width: 1600
GlyphClass: 2
Flags: W
LayerCount: 2
Fore
SplineSet
700 -200 m 1,0,-1
 700 1400 l 1,1,-1
 900 1400 l 1,2,-1
 900 700 l 1,3,-1
 1600 700 l 1,4,-1
 1600 500 l 1,5,-1
 900 500 l 1,6,-1
 900 -200 l 1,7,-1
 700 -200 l 1,0,-1
EndSplineSet
EndChar

StartChar: SF100000
Encoding: 9472 9472 317
Width: 1600
GlyphClass: 2
Flags: W
LayerCount: 2
Fore
SplineSet
0 500 m 1,0,-1
 0 700 l 1,1,-1
 1600 700 l 1,2,-1
 1600 500 l 1,3,-1
 0 500 l 1,0,-1
EndSplineSet
EndChar

StartChar: SF050000
Encoding: 9532 9532 318
Width: 1600
GlyphClass: 2
Flags: W
LayerCount: 2
Fore
SplineSet
0 500 m 1,0,-1
 0 700 l 1,1,-1
 700 700 l 1,2,-1
 700 1400 l 1,3,-1
 900 1400 l 1,4,-1
 900 700 l 1,5,-1
 1600 700 l 1,6,-1
 1600 500 l 1,7,-1
 900 500 l 1,8,-1
 900 -200 l 1,9,-1
 700 -200 l 1,10,-1
 700 500 l 1,11,-1
 0 500 l 1,0,-1
EndSplineSet
EndChar

StartChar: SF360000
Encoding: 9566 9566 319
Width: 1600
GlyphClass: 2
Flags: W
LayerCount: 2
Fore
SplineSet
700 -200 m 1,0,-1
 700 1400 l 1,1,-1
 900 1400 l 1,2,-1
 900 900 l 1,3,-1
 1600 900 l 1,4,-1
 1600 700 l 1,5,-1
 900 700 l 1,6,-1
 900 500 l 1,7,-1
 1600 500 l 1,8,-1
 1600 300 l 1,9,-1
 900 300 l 1,10,-1
 900 -200 l 1,11,-1
 700 -200 l 1,0,-1
EndSplineSet
EndChar

StartChar: SF370000
Encoding: 9567 9567 320
Width: 1600
GlyphClass: 2
Flags: W
LayerCount: 2
Fore
SplineSet
500 -200 m 1,0,-1
 500 1400 l 1,1,-1
 700 1400 l 1,2,-1
 700 -200 l 1,3,-1
 500 -200 l 1,0,-1
900 -200 m 1,4,-1
 900 1400 l 1,5,-1
 1100 1400 l 1,6,-1
 1100 700 l 1,7,-1
 1600 700 l 1,8,-1
 1600 500 l 1,9,-1
 1100 500 l 1,10,-1
 1100 -200 l 1,11,-1
 900 -200 l 1,4,-1
EndSplineSet
EndChar

StartChar: SF380000
Encoding: 9562 9562 321
Width: 1600
GlyphClass: 2
Flags: W
LayerCount: 2
Fore
SplineSet
500 300 m 1,0,-1
 500 1400 l 1,1,-1
 700 1400 l 1,2,-1
 700 500 l 1,3,-1
 1600 500 l 1,4,-1
 1600 300 l 1,5,-1
 500 300 l 1,0,-1
900 700 m 1,6,-1
 900 1400 l 1,7,-1
 1100 1400 l 1,8,-1
 1100 900 l 1,9,-1
 1600 900 l 1,10,-1
 1600 700 l 1,11,-1
 900 700 l 1,6,-1
EndSplineSet
EndChar

StartChar: SF390000
Encoding: 9556 9556 322
Width: 1600
GlyphClass: 2
Flags: W
LayerCount: 2
Fore
SplineSet
500 -200 m 1,0,-1
 500 900 l 1,1,-1
 1600 900 l 1,2,-1
 1600 700 l 1,3,-1
 700 700 l 1,4,-1
 700 -200 l 1,5,-1
 500 -200 l 1,0,-1
900 -200 m 1,6,-1
 900 500 l 1,7,-1
 1600 500 l 1,8,-1
 1600 300 l 1,9,-1
 1100 300 l 1,10,-1
 1100 -200 l 1,11,-1
 900 -200 l 1,6,-1
EndSplineSet
EndChar

StartChar: SF400000
Encoding: 9577 9577 323
Width: 1600
GlyphClass: 2
Flags: W
LayerCount: 2
Fore
SplineSet
0 300 m 1,0,-1
 0 500 l 1,1,-1
 1600 500 l 1,2,-1
 1600 300 l 1,3,-1
 0 300 l 1,0,-1
0 700 m 1,4,-1
 0 900 l 1,5,-1
 500 900 l 1,6,-1
 500 1400 l 1,7,-1
 700 1400 l 1,8,-1
 700 700 l 1,9,-1
 0 700 l 1,4,-1
900 700 m 1,10,-1
 900 1400 l 1,11,-1
 1100 1400 l 1,12,-1
 1100 900 l 1,13,-1
 1600 900 l 1,14,-1
 1600 700 l 1,15,-1
 900 700 l 1,10,-1
EndSplineSet
EndChar

StartChar: SF410000
Encoding: 9574 9574 324
Width: 1600
GlyphClass: 2
Flags: W
LayerCount: 2
Fore
SplineSet
0 300 m 1,0,-1
 0 500 l 1,1,-1
 700 500 l 1,2,-1
 700 -200 l 1,3,-1
 500 -200 l 1,4,-1
 500 300 l 1,5,-1
 0 300 l 1,0,-1
0 700 m 1,6,-1
 0 900 l 1,7,-1
 1600 900 l 1,8,-1
 1600 700 l 1,9,-1
 0 700 l 1,6,-1
900 -200 m 1,10,-1
 900 500 l 1,11,-1
 1600 500 l 1,12,-1
 1600 300 l 1,13,-1
 1100 300 l 1,14,-1
 1100 -200 l 1,15,-1
 900 -200 l 1,10,-1
EndSplineSet
EndChar

StartChar: SF420000
Encoding: 9568 9568 325
Width: 1600
GlyphClass: 2
Flags: W
LayerCount: 2
Fore
SplineSet
500 -200 m 1,0,-1
 500 1400 l 1,1,-1
 700 1400 l 1,2,-1
 700 -200 l 1,3,-1
 500 -200 l 1,0,-1
900 -200 m 1,4,-1
 900 500 l 1,5,-1
 1600 500 l 1,6,-1
 1600 300 l 1,7,-1
 1100 300 l 1,8,-1
 1100 -200 l 1,9,-1
 900 -200 l 1,4,-1
900 700 m 1,10,-1
 900 1400 l 1,11,-1
 1100 1400 l 1,12,-1
 1100 900 l 1,13,-1
 1600 900 l 1,14,-1
 1600 700 l 1,15,-1
 900 700 l 1,10,-1
EndSplineSet
EndChar

StartChar: SF430000
Encoding: 9552 9552 326
Width: 1600
GlyphClass: 2
Flags: W
LayerCount: 2
Fore
SplineSet
0 300 m 1,0,-1
 0 500 l 1,1,-1
 1600 500 l 1,2,-1
 1600 300 l 1,3,-1
 0 300 l 1,0,-1
0 700 m 1,4,-1
 0 900 l 1,5,-1
 1600 900 l 1,6,-1
 1600 700 l 1,7,-1
 0 700 l 1,4,-1
EndSplineSet
EndChar

StartChar: SF440000
Encoding: 9580 9580 327
Width: 1600
GlyphClass: 2
Flags: W
LayerCount: 2
Fore
SplineSet
0 300 m 1,0,-1
 0 500 l 1,1,-1
 700 500 l 1,2,-1
 700 -200 l 1,3,-1
 500 -200 l 1,4,-1
 500 300 l 1,5,-1
 0 300 l 1,0,-1
0 700 m 1,6,-1
 0 900 l 1,7,-1
 500 900 l 1,8,-1
 500 1400 l 1,9,-1
 700 1400 l 1,10,-1
 700 700 l 1,11,-1
 0 700 l 1,6,-1
900 -200 m 1,12,-1
 900 500 l 1,13,-1
 1600 500 l 1,14,-1
 1600 300 l 1,15,-1
 1100 300 l 1,16,-1
 1100 -200 l 1,17,-1
 900 -200 l 1,12,-1
900 700 m 1,18,-1
 900 1400 l 1,19,-1
 1100 1400 l 1,20,-1
 1100 900 l 1,21,-1
 1600 900 l 1,22,-1
 1600 700 l 1,23,-1
 900 700 l 1,18,-1
EndSplineSet
EndChar

StartChar: SF450000
Encoding: 9575 9575 328
Width: 1600
GlyphClass: 2
Flags: W
LayerCount: 2
Fore
SplineSet
0 300 m 1,0,-1
 0 500 l 1,1,-1
 1600 500 l 1,2,-1
 1600 300 l 1,3,-1
 0 300 l 1,0,-1
0 700 m 1,4,-1
 0 900 l 1,5,-1
 700 900 l 1,6,-1
 700 1400 l 1,7,-1
 900 1400 l 1,8,-1
 900 900 l 1,9,-1
 1600 900 l 1,10,-1
 1600 700 l 1,11,-1
 0 700 l 1,4,-1
EndSplineSet
EndChar

StartChar: SF460000
Encoding: 9576 9576 329
Width: 1600
GlyphClass: 2
Flags: W
LayerCount: 2
Fore
SplineSet
0 500 m 1,0,-1
 0 700 l 1,1,-1
 500 700 l 1,2,-1
 500 1400 l 1,3,-1
 700 1400 l 1,4,-1
 700 700 l 1,5,-1
 900 700 l 1,6,-1
 900 1400 l 1,7,-1
 1100 1400 l 1,8,-1
 1100 700 l 1,9,-1
 1600 700 l 1,10,-1
 1600 500 l 1,11,-1
 0 500 l 1,0,-1
EndSplineSet
EndChar

StartChar: SF470000
Encoding: 9572 9572 330
Width: 1600
GlyphClass: 2
Flags: W
LayerCount: 2
Fore
SplineSet
0 300 m 1,0,-1
 0 500 l 1,1,-1
 1600 500 l 1,2,-1
 1600 300 l 1,3,-1
 900 300 l 1,4,-1
 900 -200 l 1,5,-1
 700 -200 l 1,6,-1
 700 300 l 1,7,-1
 0 300 l 1,0,-1
0 700 m 1,8,-1
 0 900 l 1,9,-1
 1600 900 l 1,10,-1
 1600 700 l 1,11,-1
 0 700 l 1,8,-1
EndSplineSet
EndChar

StartChar: SF480000
Encoding: 9573 9573 331
Width: 1600
GlyphClass: 2
Flags: W
LayerCount: 2
Fore
SplineSet
0 500 m 1,0,-1
 0 700 l 1,1,-1
 1600 700 l 1,2,-1
 1600 500 l 1,3,-1
 1100 500 l 1,4,-1
 1100 -200 l 1,5,-1
 900 -200 l 1,6,-1
 900 500 l 1,7,-1
 700 500 l 1,8,-1
 700 -200 l 1,9,-1
 500 -200 l 1,10,-1
 500 500 l 1,11,-1
 0 500 l 1,0,-1
EndSplineSet
EndChar

StartChar: SF490000
Encoding: 9561 9561 332
Width: 1600
GlyphClass: 2
Flags: W
LayerCount: 2
Fore
SplineSet
500 500 m 1,0,-1
 500 1400 l 1,1,-1
 700 1400 l 1,2,-1
 700 700 l 1,3,-1
 900 700 l 1,4,-1
 900 1400 l 1,5,-1
 1100 1400 l 1,6,-1
 1100 700 l 1,7,-1
 1600 700 l 1,8,-1
 1600 500 l 1,9,-1
 500 500 l 1,0,-1
EndSplineSet
EndChar

StartChar: SF500000
Encoding: 9560 9560 333
Width: 1600
GlyphClass: 2
Flags: W
LayerCount: 2
Fore
SplineSet
700 300 m 1,0,-1
 700 1400 l 1,1,-1
 900 1400 l 1,2,-1
 900 900 l 1,3,-1
 1600 900 l 1,4,-1
 1600 700 l 1,5,-1
 900 700 l 1,6,-1
 900 500 l 1,7,-1
 1600 500 l 1,8,-1
 1600 300 l 1,9,-1
 700 300 l 1,0,-1
EndSplineSet
EndChar

StartChar: SF510000
Encoding: 9554 9554 334
Width: 1600
GlyphClass: 2
Flags: W
LayerCount: 2
Fore
SplineSet
700 -200 m 1,0,-1
 700 900 l 1,1,-1
 1600 900 l 1,2,-1
 1600 700 l 1,3,-1
 900 700 l 1,4,-1
 900 500 l 1,5,-1
 1600 500 l 1,6,-1
 1600 300 l 1,7,-1
 900 300 l 1,8,-1
 900 -200 l 1,9,-1
 700 -200 l 1,0,-1
EndSplineSet
EndChar

StartChar: SF520000
Encoding: 9555 9555 335
Width: 1600
GlyphClass: 2
Flags: W
LayerCount: 2
Fore
SplineSet
500 -200 m 1,0,-1
 500 700 l 1,1,-1
 1600 700 l 1,2,-1
 1600 500 l 1,3,-1
 1100 500 l 1,4,-1
 1100 -200 l 1,5,-1
 900 -200 l 1,6,-1
 900 500 l 1,7,-1
 700 500 l 1,8,-1
 700 -200 l 1,9,-1
 500 -200 l 1,0,-1
EndSplineSet
EndChar

StartChar: SF530000
Encoding: 9579 9579 336
Width: 1600
GlyphClass: 2
Flags: W
LayerCount: 2
Fore
SplineSet
0 500 m 1,0,-1
 0 700 l 1,1,-1
 500 700 l 1,2,-1
 500 1400 l 1,3,-1
 700 1400 l 1,4,-1
 700 -200 l 1,5,-1
 500 -200 l 1,6,-1
 500 500 l 1,7,-1
 0 500 l 1,0,-1
900 -200 m 1,8,-1
 900 1400 l 1,9,-1
 1100 1400 l 1,10,-1
 1100 700 l 1,11,-1
 1600 700 l 1,12,-1
 1600 500 l 1,13,-1
 1100 500 l 1,14,-1
 1100 -200 l 1,15,-1
 900 -200 l 1,8,-1
EndSplineSet
EndChar

StartChar: SF540000
Encoding: 9578 9578 337
Width: 1600
GlyphClass: 2
Flags: W
LayerCount: 2
Fore
SplineSet
0 300 m 1,0,-1
 0 500 l 1,1,-1
 1600 500 l 1,2,-1
 1600 300 l 1,3,-1
 900 300 l 1,4,-1
 900 -200 l 1,5,-1
 700 -200 l 1,6,-1
 700 300 l 1,7,-1
 0 300 l 1,0,-1
0 700 m 1,8,-1
 0 900 l 1,9,-1
 700 900 l 1,10,-1
 700 1400 l 1,11,-1
 900 1400 l 1,12,-1
 900 900 l 1,13,-1
 1600 900 l 1,14,-1
 1600 700 l 1,15,-1
 0 700 l 1,8,-1
EndSplineSet
EndChar

StartChar: SF040000
Encoding: 9496 9496 338
Width: 1600
GlyphClass: 2
Flags: W
LayerCount: 2
Fore
SplineSet
0 500 m 1,0,-1
 0 700 l 1,1,-1
 700 700 l 1,2,-1
 700 1400 l 1,3,-1
 900 1400 l 1,4,-1
 900 500 l 1,5,-1
 0 500 l 1,0,-1
EndSplineSet
EndChar

StartChar: SF010000
Encoding: 9484 9484 339
Width: 1600
GlyphClass: 2
Flags: W
LayerCount: 2
Fore
SplineSet
700 -200 m 1,0,-1
 700 700 l 1,1,-1
 1600 700 l 1,2,-1
 1600 500 l 1,3,-1
 900 500 l 1,4,-1
 900 -200 l 1,5,-1
 700 -200 l 1,0,-1
EndSplineSet
EndChar

StartChar: block
Encoding: 9608 9608 340
Width: 1600
GlyphClass: 2
Flags: W
LayerCount: 2
Fore
SplineSet
0 -200 m 1,0,-1
 0 1400 l 1,1,-1
 1600 1400 l 1,2,-1
 1600 -200 l 1,3,-1
 0 -200 l 1,0,-1
EndSplineSet
EndChar

StartChar: dnblock
Encoding: 9604 9604 341
Width: 1600
GlyphClass: 2
Flags: W
LayerCount: 2
Fore
SplineSet
0 -200 m 1,0,-1
 0 600 l 1,1,-1
 1600 600 l 1,2,-1
 1600 -200 l 1,3,-1
 0 -200 l 1,0,-1
EndSplineSet
EndChar

StartChar: lfblock
Encoding: 9612 9612 342
Width: 1600
GlyphClass: 2
Flags: W
LayerCount: 2
Fore
SplineSet
0 -200 m 1,0,-1
 0 1400 l 1,1,-1
 800 1400 l 1,2,-1
 800 -200 l 1,3,-1
 0 -200 l 1,0,-1
EndSplineSet
EndChar

StartChar: rtblock
Encoding: 9616 9616 343
Width: 1600
GlyphClass: 2
Flags: W
LayerCount: 2
Fore
SplineSet
800 -200 m 1,0,-1
 800 1400 l 1,1,-1
 1600 1400 l 1,2,-1
 1600 -200 l 1,3,-1
 800 -200 l 1,0,-1
EndSplineSet
EndChar

StartChar: upblock
Encoding: 9600 9600 344
Width: 1600
GlyphClass: 2
Flags: W
LayerCount: 2
Fore
SplineSet
0 600 m 1,0,-1
 0 1400 l 1,1,-1
 1600 1400 l 1,2,-1
 1600 600 l 1,3,-1
 0 600 l 1,0,-1
EndSplineSet
EndChar

StartChar: alpha
Encoding: 945 945 345
Width: 1600
GlyphClass: 2
Flags: W
LayerCount: 2
Fore
SplineSet
400 200 m 1,0,-1
 400 800 l 1,1,-1
 600 1000 l 1,2,-1
 1200 1000 l 1,3,-1
 1200 0 l 1,4,-1
 600 0 l 1,5,-1
 400 200 l 1,0,-1
600 300 m 1,6,-1
 700 200 l 1,7,-1
 1000 200 l 1,8,-1
 1000 800 l 1,9,-1
 700 800 l 1,10,-1
 600 700 l 1,11,-1
 600 300 l 1,6,-1
EndSplineSet
EndChar

StartChar: Gamma
Encoding: 915 915 346
Width: 1600
GlyphClass: 2
Flags: W
LayerCount: 2
Fore
SplineSet
200 0 m 1,0,-1
 200 1400 l 1,1,-1
 1400 1400 l 1,2,-1
 1400 1200 l 1,3,-1
 400 1200 l 1,4,-1
 400 0 l 1,5,-1
 200 0 l 1,0,-1
EndSplineSet
EndChar

StartChar: Sigma
Encoding: 931 931 347
Width: 1600
GlyphClass: 2
Flags: W
LayerCount: 2
Fore
SplineSet
200 0 m 1,0,-1
 700 700 l 1,1,-1
 200 1400 l 1,2,-1
 1400 1400 l 1,3,-1
 1400 1200 l 1,4,-1
 593 1200 l 1,5,-1
 950 700 l 1,6,-1
 593 200 l 1,7,-1
 1400 200 l 1,8,-1
 1400 0 l 1,9,-1
 200 0 l 1,0,-1
EndSplineSet
EndChar

StartChar: sigma
Encoding: 963 963 348
Width: 1600
GlyphClass: 2
Flags: W
LayerCount: 2
Fore
SplineSet
400 200 m 1,0,-1
 400 800 l 1,1,-1
 600 1000 l 1,2,-1
 1200 1000 l 1,3,-1
 1200 800 l 1,4,-1
 1100 800 l 1,5,-1
 1200 700 l 1,6,-1
 1200 200 l 1,7,-1
 1000 0 l 1,8,-1
 600 0 l 1,9,-1
 400 200 l 1,0,-1
600 300 m 1,10,-1
 700 200 l 1,11,-1
 900 200 l 1,12,-1
 1000 300 l 1,13,-1
 1000 600 l 1,14,-1
 800 800 l 1,15,-1
 700 800 l 1,16,-1
 600 700 l 1,17,-1
 600 300 l 1,10,-1
EndSplineSet
EndChar

StartChar: tau
Encoding: 964 964 349
Width: 1600
GlyphClass: 2
Flags: W
LayerCount: 2
Fore
SplineSet
400 800 m 1,0,-1
 400 1000 l 1,1,-1
 1200 1000 l 1,2,-1
 1200 800 l 1,3,-1
 900 800 l 1,4,-1
 900 0 l 1,5,-1
 700 0 l 1,6,-1
 700 800 l 1,7,-1
 400 800 l 1,0,-1
EndSplineSet
EndChar

StartChar: Phi
Encoding: 934 934 350
Width: 1600
GlyphClass: 2
Flags: W
LayerCount: 2
Fore
SplineSet
200 500 m 1,0,-1
 200 900 l 1,1,-1
 500 1200 l 1,2,-1
 700 1200 l 1,3,-1
 700 1400 l 1,4,-1
 900 1400 l 1,5,-1
 900 1200 l 1,6,-1
 1100 1200 l 1,7,-1
 1400 900 l 1,8,-1
 1400 500 l 1,9,-1
 1100 200 l 1,10,-1
 900 200 l 1,11,-1
 900 0 l 1,12,-1
 700 0 l 1,13,-1
 700 200 l 1,14,-1
 500 200 l 1,15,-1
 200 500 l 1,0,-1
400 600 m 1,16,-1
 600 400 l 1,17,-1
 700 400 l 1,18,-1
 700 1000 l 1,19,-1
 600 1000 l 1,20,-1
 400 800 l 1,21,-1
 400 600 l 1,16,-1
900 400 m 1,22,-1
 1000 400 l 1,23,-1
 1200 600 l 1,24,-1
 1200 800 l 1,25,-1
 1000 1000 l 1,26,-1
 900 1000 l 1,27,-1
 900 400 l 1,22,-1
EndSplineSet
EndChar

StartChar: Theta
Encoding: 920 920 351
Width: 1600
GlyphClass: 2
Flags: W
LayerCount: 2
Fore
SplineSet
200 300 m 1,0,-1
 200 1100 l 1,1,-1
 500 1400 l 1,2,-1
 1100 1400 l 1,3,-1
 1400 1100 l 1,4,-1
 1400 300 l 1,5,-1
 1100 0 l 1,6,-1
 500 0 l 1,7,-1
 200 300 l 1,0,-1
400 400 m 1,8,-1
 600 200 l 1,9,-1
 1000 200 l 1,10,-1
 1200 400 l 1,11,-1
 1200 1000 l 1,12,-1
 1000 1200 l 1,13,-1
 600 1200 l 1,14,-1
 400 1000 l 1,15,-1
 400 400 l 1,8,-1
500 600 m 1,16,-1
 500 800 l 1,17,-1
 1100 800 l 1,18,-1
 1100 600 l 1,19,-1
 500 600 l 1,16,-1
EndSplineSet
EndChar

StartChar: uni03A9
Encoding: 937 937 352
Width: 1600
GlyphClass: 2
Flags: W
LayerCount: 2
Fore
SplineSet
200 0 m 1,0,-1
 200 200 l 1,1,-1
 400 200 l 1,2,-1
 400 300 l 1,3,-1
 200 500 l 1,4,-1
 200 1100 l 1,5,-1
 500 1400 l 1,6,-1
 1100 1400 l 1,7,-1
 1400 1100 l 1,8,-1
 1400 500 l 1,9,-1
 1200 300 l 1,10,-1
 1200 200 l 1,11,-1
 1400 200 l 1,12,-1
 1400 0 l 1,13,-1
 1000 0 l 1,14,-1
 1000 400 l 1,15,-1
 1200 600 l 1,16,-1
 1200 1000 l 1,17,-1
 1000 1200 l 1,18,-1
 600 1200 l 1,19,-1
 400 1000 l 1,20,-1
 400 600 l 1,21,-1
 600 400 l 1,22,-1
 600 0 l 1,23,-1
 200 0 l 1,0,-1
EndSplineSet
EndChar

StartChar: delta
Encoding: 948 948 353
Width: 1600
GlyphClass: 2
Flags: W
LayerCount: 2
Fore
SplineSet
400 200 m 1,0,-1
 400 800 l 1,1,-1
 600 1000 l 1,2,-1
 900 1000 l 1,3,-1
 600 1300 l 1,4,-1
 600 1400 l 1,5,-1
 1200 1400 l 1,6,-1
 1200 1200 l 1,7,-1
 1000 1200 l 1,8,-1
 1200 1000 l 1,9,-1
 1200 200 l 1,10,-1
 1000 0 l 1,11,-1
 600 0 l 1,12,-1
 400 200 l 1,0,-1
600 300 m 1,13,-1
 700 200 l 1,14,-1
 900 200 l 1,15,-1
 1000 300 l 1,16,-1
 1000 800 l 1,17,-1
 700 800 l 1,18,-1
 600 700 l 1,19,-1
 600 300 l 1,13,-1
EndSplineSet
EndChar

StartChar: phi
Encoding: 966 966 354
Width: 1600
GlyphClass: 2
Flags: W
LayerCount: 2
Fore
SplineSet
200 400 m 1,0,-1
 200 1000 l 1,1,-1
 400 1000 l 1,2,-1
 400 500 l 1,3,-1
 500 400 l 1,4,-1
 700 400 l 1,5,-1
 700 1000 l 1,6,-1
 1200 1000 l 1,7,-1
 1400 800 l 1,8,-1
 1400 400 l 1,9,-1
 1200 200 l 1,10,-1
 900 200 l 1,11,-1
 900 -200 l 1,12,-1
 700 -200 l 1,13,-1
 700 200 l 1,14,-1
 400 200 l 1,15,-1
 200 400 l 1,0,-1
900 400 m 1,16,-1
 1100 400 l 1,17,-1
 1200 500 l 1,18,-1
 1200 700 l 1,19,-1
 1100 800 l 1,20,-1
 900 800 l 1,21,-1
 900 400 l 1,16,-1
EndSplineSet
EndChar

StartChar: epsilon
Encoding: 949 949 355
Width: 1600
GlyphClass: 2
Flags: W
LayerCount: 2
Fore
SplineSet
400 200 m 1,0,-1
 400 400 l 1,1,-1
 500 500 l 1,2,-1
 400 600 l 1,3,-1
 400 800 l 1,4,-1
 600 1000 l 1,5,-1
 1000 1000 l 1,6,-1
 1200 800 l 1,7,-1
 1200 700 l 1,8,-1
 1000 700 l 1,9,-1
 900 800 l 1,10,-1
 700 800 l 1,11,-1
 600 700 l 1,12,-1
 700 600 l 1,13,-1
 900 600 l 1,14,-1
 900 400 l 1,15,-1
 700 400 l 1,16,-1
 600 300 l 1,17,-1
 700 200 l 1,18,-1
 900 200 l 1,19,-1
 1000 300 l 1,20,-1
 1200 300 l 1,21,-1
 1200 200 l 1,22,-1
 1000 0 l 1,23,-1
 600 0 l 1,24,-1
 400 200 l 1,0,-1
EndSplineSet
EndChar

StartChar: intersection
Encoding: 8745 8745 356
Width: 1600
GlyphClass: 2
Flags: W
LayerCount: 2
Fore
SplineSet
200 0 m 1,0,-1
 200 1100 l 1,1,-1
 500 1400 l 1,2,-1
 1100 1400 l 1,3,-1
 1400 1100 l 1,4,-1
 1400 0 l 1,5,-1
 1200 0 l 1,6,-1
 1200 1000 l 1,7,-1
 1000 1200 l 1,8,-1
 600 1200 l 1,9,-1
 400 1000 l 1,10,-1
 400 0 l 1,11,-1
 200 0 l 1,0,-1
EndSplineSet
EndChar

StartChar: equivalence
Encoding: 8801 8801 357
Width: 1600
GlyphClass: 2
Flags: W
LayerCount: 2
Fore
SplineSet
500 100 m 1,0,-1
 500 300 l 1,1,-1
 1100 300 l 1,2,-1
 1100 100 l 1,3,-1
 500 100 l 1,0,-1
500 500 m 1,4,-1
 500 700 l 1,5,-1
 1100 700 l 1,6,-1
 1100 500 l 1,7,-1
 500 500 l 1,4,-1
500 900 m 1,8,-1
 500 1100 l 1,9,-1
 1100 1100 l 1,10,-1
 1100 900 l 1,11,-1
 500 900 l 1,8,-1
EndSplineSet
EndChar

StartChar: integraltp
Encoding: 8992 8992 358
Width: 1600
GlyphClass: 2
Flags: W
LayerCount: 2
Fore
SplineSet
700 -200 m 1,0,-1
 700 1000 l 1,1,-1
 1100 1400 l 1,2,-1
 1400 1400 l 1,3,-1
 1400 1200 l 1,4,-1
 1200 1200 l 1,5,-1
 900 900 l 1,6,-1
 900 -200 l 1,7,-1
 700 -200 l 1,0,-1
EndSplineSet
EndChar

StartChar: integralbt
Encoding: 8993 8993 359
Width: 1600
GlyphClass: 2
Flags: W
LayerCount: 2
Fore
SplineSet
200 0 m 1,0,-1
 400 0 l 1,1,-1
 700 300 l 1,2,-1
 700 1400 l 1,3,-1
 900 1400 l 1,4,-1
 900 200 l 1,5,-1
 500 -200 l 1,6,-1
 200 -200 l 1,7,-1
 200 0 l 1,0,-1
EndSplineSet
EndChar

StartChar: uni2219
Encoding: 8729 8729 360
Width: 1600
GlyphClass: 2
Flags: W
LayerCount: 2
Fore
SplineSet
700 600 m 1,0,-1
 700 800 l 1,1,-1
 900 800 l 1,2,-1
 900 600 l 1,3,-1
 700 600 l 1,0,-1
EndSplineSet
EndChar

StartChar: uni207F
Encoding: 8319 8319 361
Width: 1600
GlyphClass: 2
Flags: W
LayerCount: 2
Fore
SplineSet
400 600 m 1,0,-1
 400 1400 l 1,1,-1
 1000 1400 l 1,2,-1
 1200 1200 l 1,3,-1
 1200 600 l 1,4,-1
 1000 600 l 1,5,-1
 1000 1100 l 1,6,-1
 900 1200 l 1,7,-1
 600 1200 l 1,8,-1
 600 600 l 1,9,-1
 400 600 l 1,0,-1
EndSplineSet
EndChar

StartChar: uni00B2
Encoding: 178 178 362
Width: 1600
GlyphClass: 2
Flags: W
LayerCount: 2
Fore
SplineSet
400 400 m 1,0,-1
 400 600 l 1,1,-1
 1000 1100 l 1,2,-1
 900 1200 l 1,3,-1
 700 1200 l 1,4,-1
 600 1100 l 1,5,-1
 400 1100 l 1,6,-1
 400 1200 l 1,7,-1
 600 1400 l 1,8,-1
 1000 1400 l 1,9,-1
 1200 1200 l 1,10,-1
 1200 1000 l 1,11,-1
 720 600 l 1,12,-1
 1200 600 l 1,13,-1
 1200 400 l 1,14,-1
 400 400 l 1,0,-1
EndSplineSet
EndChar

StartChar: filledbox
Encoding: 9632 9632 363
Width: 1600
GlyphClass: 2
Flags: W
LayerCount: 2
Fore
SplineSet
200 0 m 1,0,-1
 200 1200 l 1,1,-1
 1400 1200 l 1,2,-1
 1400 0 l 1,3,-1
 200 0 l 1,0,-1
EndSplineSet
EndChar

StartChar: Lslash
Encoding: 321 321 364
Width: 1600
GlyphClass: 2
Flags: W
LayerCount: 2
Fore
SplineSet
200 525 m 1,0,-1
 200 725 l 1,1,-1
 400 775 l 1,2,-1
 400 1400 l 1,3,-1
 600 1400 l 1,4,-1
 600 825 l 1,5,-1
 900 900 l 1,6,-1
 900 700 l 1,7,-1
 600 625 l 1,8,-1
 600 200 l 1,9,-1
 1400 200 l 1,10,-1
 1400 0 l 1,11,-1
 400 0 l 1,12,-1
 400 575 l 1,13,-1
 200 525 l 1,0,-1
EndSplineSet
EndChar

StartChar: lslash
Encoding: 322 322 365
Width: 1600
GlyphClass: 2
Flags: W
LayerCount: 2
Fore
SplineSet
400 0 m 1,0,-1
 400 200 l 1,1,-1
 700 200 l 1,2,-1
 700 575 l 1,3,-1
 400 500 l 1,4,-1
 400 700 l 1,5,-1
 700 775 l 1,6,-1
 700 1200 l 1,7,-1
 400 1200 l 1,8,-1
 400 1400 l 1,9,-1
 900 1400 l 1,10,-1
 900 825 l 1,11,-1
 1200 900 l 1,12,-1
 1200 700 l 1,13,-1
 900 625 l 1,14,-1
 900 200 l 1,15,-1
 1200 200 l 1,16,-1
 1200 0 l 1,17,-1
 400 0 l 1,0,-1
EndSplineSet
EndChar

StartChar: minus
Encoding: 8722 8722 366
Width: 1600
GlyphClass: 2
Flags: W
LayerCount: 2
Fore
SplineSet
500 600 m 1,0,-1
 500 800 l 1,1,-1
 1100 800 l 1,2,-1
 1100 600 l 1,3,-1
 500 600 l 1,0,-1
EndSplineSet
EndChar

StartChar: Aogonek
Encoding: 260 260 367
Width: 1600
GlyphClass: 2
Flags: W
LayerCount: 2
Fore
SplineSet
200 200 m 1,0,-1
 700 1400 l 1,1,-1
 900 1400 l 1,2,-1
 1400 200 l 1,3,-1
 1400 100 l 1,4,-1
 1200 100 l 1,5,-1
 1200 -100 l 1,6,-1
 1400 -100 l 1,7,-1
 1400 -200 l 1,8,-1
 1100 -200 l 1,9,-1
 1000 -100 l 1,10,-1
 1000 100 l 1,11,-1
 1100 200 l 1,12,-1
 1200 200 l 1,13,-1
 1118 400 l 1,14,-1
 482 400 l 1,15,-1
 400 200 l 1,16,-1
 200 200 l 1,0,-1
563 600 m 1,17,-1
 1037 600 l 1,18,-1
 800 1180 l 1,19,-1
 563 600 l 1,17,-1
EndSplineSet
EndChar

StartChar: Lcaron
Encoding: 317 317 368
Width: 1600
GlyphClass: 2
Flags: W
LayerCount: 2
Fore
SplineSet
200 0 m 1,0,-1
 200 1400 l 1,1,-1
 400 1400 l 1,2,-1
 400 200 l 1,3,-1
 1400 200 l 1,4,-1
 1400 0 l 1,5,-1
 200 0 l 1,0,-1
1200 1000 m 1,6,-1
 1270 1200 l 1,7,-1
 1200 1200 l 1,8,-1
 1200 1400 l 1,9,-1
 1400 1400 l 1,10,-1
 1400 1200 l 1,11,-1
 1330 1000 l 1,12,-1
 1200 1000 l 1,6,-1
EndSplineSet
EndChar

StartChar: Sacute
Encoding: 346 346 369
Width: 1600
GlyphClass: 2
Flags: W
LayerCount: 2
Fore
SplineSet
200 200 m 1,0,-1
 200 300 l 1,1,-1
 400 300 l 1,2,-1
 500 200 l 1,3,-1
 1100 200 l 1,4,-1
 1200 300 l 1,5,-1
 1100 400 l 1,6,-1
 400 400 l 1,7,-1
 200 600 l 1,8,-1
 200 800 l 1,9,-1
 400 1000 l 1,10,-1
 1200 1000 l 1,11,-1
 1400 800 l 1,12,-1
 1400 700 l 1,13,-1
 1200 700 l 1,14,-1
 1100 800 l 1,15,-1
 500 800 l 1,16,-1
 400 700 l 1,17,-1
 500 600 l 1,18,-1
 1200 600 l 1,19,-1
 1400 400 l 1,20,-1
 1400 200 l 1,21,-1
 1200 0 l 1,22,-1
 400 0 l 1,23,-1
 200 200 l 1,0,-1
720 1100 m 1,24,-1
 900 1400 l 1,25,-1
 1100 1400 l 1,26,-1
 880 1100 l 1,27,-1
 720 1100 l 1,24,-1
EndSplineSet
EndChar

StartChar: Scedilla
Encoding: 350 350 370
Width: 1600
GlyphClass: 2
Flags: W
LayerCount: 2
Fore
SplineSet
200 400 m 1,0,-1
 200 500 l 1,1,-1
 400 500 l 1,2,-1
 500 400 l 1,3,-1
 1100 400 l 1,4,-1
 1200 500 l 1,5,-1
 1200 600 l 1,6,-1
 1100 700 l 1,7,-1
 400 700 l 1,8,-1
 200 900 l 1,9,-1
 200 1200 l 1,10,-1
 400 1400 l 1,11,-1
 1200 1400 l 1,12,-1
 1400 1200 l 1,13,-1
 1400 1100 l 1,14,-1
 1200 1100 l 1,15,-1
 1100 1200 l 1,16,-1
 500 1200 l 1,17,-1
 400 1100 l 1,18,-1
 400 1000 l 1,19,-1
 500 900 l 1,20,-1
 1200 900 l 1,21,-1
 1400 700 l 1,22,-1
 1400 400 l 1,23,-1
 1200 200 l 1,24,-1
 1000 200 l 1,25,-1
 1100 100 l 1,26,-1
 1100 -100 l 1,27,-1
 1000 -200 l 1,28,-1
 700 -200 l 1,29,-1
 700 -100 l 1,30,-1
 900 -100 l 1,31,-1
 900 100 l 1,32,-1
 700 100 l 1,33,-1
 700 200 l 1,34,-1
 400 200 l 1,35,-1
 200 400 l 1,0,-1
EndSplineSet
Substitution2: "'locl' Localized Forms in Latin lookup 2 subtable" uni0218
EndChar

StartChar: Tcaron
Encoding: 356 356 371
Width: 1600
GlyphClass: 2
Flags: W
LayerCount: 2
Fore
SplineSet
200 800 m 1,0,-1
 200 1000 l 1,1,-1
 1400 1000 l 1,2,-1
 1400 800 l 1,3,-1
 900 800 l 1,4,-1
 900 0 l 1,5,-1
 700 0 l 1,6,-1
 700 800 l 1,7,-1
 200 800 l 1,0,-1
500 1400 m 1,8,-1
 700 1400 l 1,9,-1
 800 1220 l 1,10,-1
 900 1400 l 1,11,-1
 1100 1400 l 1,12,-1
 900 1100 l 1,13,-1
 700 1100 l 1,14,-1
 500 1400 l 1,8,-1
EndSplineSet
EndChar

StartChar: Zacute
Encoding: 377 377 372
Width: 1600
GlyphClass: 2
Flags: W
LayerCount: 2
Fore
SplineSet
200 0 m 1,0,-1
 950 800 l 1,1,-1
 200 800 l 1,2,-1
 200 1000 l 1,3,-1
 1400 1000 l 1,4,-1
 650 200 l 1,5,-1
 1400 200 l 1,6,-1
 1400 0 l 1,7,-1
 200 0 l 1,0,-1
720 1100 m 1,8,-1
 900 1400 l 1,9,-1
 1100 1400 l 1,10,-1
 880 1100 l 1,11,-1
 720 1100 l 1,8,-1
EndSplineSet
EndChar

StartChar: Zdotaccent
Encoding: 379 379 373
Width: 1600
GlyphClass: 2
Flags: W
LayerCount: 2
Fore
SplineSet
200 0 m 1,0,-1
 950 800 l 1,1,-1
 200 800 l 1,2,-1
 200 1000 l 1,3,-1
 1400 1000 l 1,4,-1
 650 200 l 1,5,-1
 1400 200 l 1,6,-1
 1400 0 l 1,7,-1
 200 0 l 1,0,-1
700 1200 m 1,8,-1
 700 1400 l 1,9,-1
 900 1400 l 1,10,-1
 900 1200 l 1,11,-1
 700 1200 l 1,8,-1
EndSplineSet
EndChar

StartChar: aogonek
Encoding: 261 261 374
Width: 1600
GlyphClass: 2
Flags: W
LayerCount: 2
Fore
SplineSet
400 400 m 1,0,-1
 400 600 l 1,1,-1
 600 800 l 1,2,-1
 1000 800 l 1,3,-1
 1000 900 l 1,4,-1
 900 1000 l 1,5,-1
 600 1000 l 1,6,-1
 600 1200 l 1,7,-1
 1000 1200 l 1,8,-1
 1200 1000 l 1,9,-1
 1200 100 l 1,10,-1
 1000 100 l 1,11,-1
 1000 -100 l 1,12,-1
 1200 -100 l 1,13,-1
 1200 -200 l 1,14,-1
 900 -200 l 1,15,-1
 800 -100 l 1,16,-1
 800 100 l 1,17,-1
 900 200 l 1,18,-1
 600 200 l 1,19,-1
 400 400 l 1,0,-1
600 500 m 1,20,-1
 700 400 l 1,21,-1
 1000 400 l 1,22,-1
 1000 600 l 1,23,-1
 700 600 l 1,24,-1
 600 500 l 1,20,-1
EndSplineSet
EndChar

StartChar: lcaron
Encoding: 318 318 375
Width: 1600
GlyphClass: 2
Flags: W
LayerCount: 2
Fore
SplineSet
400 0 m 1,0,-1
 400 200 l 1,1,-1
 700 200 l 1,2,-1
 700 1200 l 1,3,-1
 400 1200 l 1,4,-1
 400 1400 l 1,5,-1
 900 1400 l 1,6,-1
 900 200 l 1,7,-1
 1200 200 l 1,8,-1
 1200 0 l 1,9,-1
 400 0 l 1,0,-1
1100 1000 m 1,10,-1
 1170 1200 l 1,11,-1
 1100 1200 l 1,12,-1
 1100 1400 l 1,13,-1
 1300 1400 l 1,14,-1
 1300 1200 l 1,15,-1
 1230 1000 l 1,16,-1
 1100 1000 l 1,10,-1
EndSplineSet
EndChar

StartChar: sacute
Encoding: 347 347 376
Width: 1600
GlyphClass: 2
Flags: W
LayerCount: 2
Fore
SplineSet
400 0 m 1,0,-1
 400 200 l 1,1,-1
 900 200 l 1,2,-1
 1000 300 l 1,3,-1
 900 400 l 1,4,-1
 600 400 l 1,5,-1
 400 600 l 1,6,-1
 400 800 l 1,7,-1
 600 1000 l 1,8,-1
 1200 1000 l 1,9,-1
 1200 800 l 1,10,-1
 700 800 l 1,11,-1
 600 700 l 1,12,-1
 700 600 l 1,13,-1
 1000 600 l 1,14,-1
 1200 400 l 1,15,-1
 1200 200 l 1,16,-1
 1000 0 l 1,17,-1
 400 0 l 1,0,-1
720 1100 m 1,18,-1
 900 1400 l 1,19,-1
 1100 1400 l 1,20,-1
 880 1100 l 1,21,-1
 720 1100 l 1,18,-1
EndSplineSet
EndChar

StartChar: scedilla
Encoding: 351 351 377
Width: 1600
GlyphClass: 2
Flags: W
LayerCount: 2
Fore
SplineSet
400 200 m 1,0,-1
 400 400 l 1,1,-1
 900 400 l 1,2,-1
 1000 500 l 1,3,-1
 900 600 l 1,4,-1
 600 600 l 1,5,-1
 400 800 l 1,6,-1
 400 1000 l 1,7,-1
 600 1200 l 1,8,-1
 1200 1200 l 1,9,-1
 1200 1000 l 1,10,-1
 700 1000 l 1,11,-1
 600 900 l 1,12,-1
 700 800 l 1,13,-1
 1000 800 l 1,14,-1
 1200 600 l 1,15,-1
 1200 400 l 1,16,-1
 1000 200 l 1,17,-1
 1100 100 l 1,18,-1
 1100 -100 l 1,19,-1
 1000 -200 l 1,20,-1
 700 -200 l 1,21,-1
 700 -100 l 1,22,-1
 900 -100 l 1,23,-1
 900 100 l 1,24,-1
 700 100 l 1,25,-1
 700 200 l 1,26,-1
 400 200 l 1,0,-1
EndSplineSet
Substitution2: "'locl' Localized Forms in Latin lookup 2 subtable" uni0219
EndChar

StartChar: tcaron
Encoding: 357 357 378
Width: 1600
GlyphClass: 2
Flags: W
LayerCount: 2
Fore
SplineSet
200 800 m 1,0,-1
 200 1000 l 1,1,-1
 500 1000 l 1,2,-1
 500 1400 l 1,3,-1
 700 1400 l 1,4,-1
 700 1000 l 1,5,-1
 1000 1000 l 1,6,-1
 1000 800 l 1,7,-1
 700 800 l 1,8,-1
 700 0 l 1,9,-1
 500 0 l 1,10,-1
 500 800 l 1,11,-1
 200 800 l 1,0,-1
1200 1000 m 1,12,-1
 1270 1200 l 1,13,-1
 1200 1200 l 1,14,-1
 1200 1400 l 1,15,-1
 1400 1400 l 1,16,-1
 1400 1200 l 1,17,-1
 1330 1000 l 1,18,-1
 1200 1000 l 1,12,-1
EndSplineSet
EndChar

StartChar: zacute
Encoding: 378 378 379
Width: 1600
GlyphClass: 2
Flags: W
LayerCount: 2
Fore
SplineSet
400 0 m 1,0,-1
 860 800 l 1,1,-1
 400 800 l 1,2,-1
 400 1000 l 1,3,-1
 1200 1000 l 1,4,-1
 740 200 l 1,5,-1
 1200 200 l 1,6,-1
 1200 0 l 1,7,-1
 400 0 l 1,0,-1
720 1100 m 1,8,-1
 900 1400 l 1,9,-1
 1100 1400 l 1,10,-1
 880 1100 l 1,11,-1
 720 1100 l 1,8,-1
EndSplineSet
EndChar

StartChar: zdotaccent
Encoding: 380 380 380
Width: 1600
GlyphClass: 2
Flags: W
LayerCount: 2
Fore
SplineSet
400 0 m 1,0,-1
 860 800 l 1,1,-1
 400 800 l 1,2,-1
 400 1000 l 1,3,-1
 1200 1000 l 1,4,-1
 740 200 l 1,5,-1
 1200 200 l 1,6,-1
 1200 0 l 1,7,-1
 400 0 l 1,0,-1
700 1200 m 1,8,-1
 700 1400 l 1,9,-1
 900 1400 l 1,10,-1
 900 1200 l 1,11,-1
 700 1200 l 1,8,-1
EndSplineSet
EndChar

StartChar: Racute
Encoding: 340 340 381
Width: 1600
GlyphClass: 2
Flags: W
LayerCount: 2
Fore
SplineSet
200 0 m 1,0,-1
 200 1000 l 1,1,-1
 1200 1000 l 1,2,-1
 1400 800 l 1,3,-1
 1400 600 l 1,4,-1
 1200 400 l 1,5,-1
 1000 400 l 1,6,-1
 1400 0 l 1,7,-1
 1120 0 l 1,8,-1
 720 400 l 1,9,-1
 400 400 l 1,10,-1
 400 0 l 1,11,-1
 200 0 l 1,0,-1
400 600 m 1,12,-1
 1100 600 l 1,13,-1
 1200 700 l 1,14,-1
 1100 800 l 1,15,-1
 400 800 l 1,16,-1
 400 600 l 1,12,-1
720 1100 m 1,17,-1
 900 1400 l 1,18,-1
 1100 1400 l 1,19,-1
 880 1100 l 1,20,-1
 720 1100 l 1,17,-1
EndSplineSet
EndChar

StartChar: Abreve
Encoding: 258 258 382
Width: 1600
GlyphClass: 2
Flags: W
LayerCount: 2
Fore
SplineSet
200 0 m 1,0,-1
 700 1000 l 1,1,-1
 900 1000 l 1,2,-1
 1400 0 l 1,3,-1
 1180 0 l 1,4,-1
 1085 200 l 1,5,-1
 515 200 l 1,6,-1
 420 0 l 1,7,-1
 200 0 l 1,0,-1
400 1200 m 1,8,-1
 400 1400 l 1,9,-1
 600 1400 l 1,10,-1
 600 1300 l 1,11,-1
 1000 1300 l 1,12,-1
 1000 1400 l 1,13,-1
 1200 1400 l 1,14,-1
 1200 1200 l 1,15,-1
 1100 1100 l 1,16,-1
 500 1100 l 1,17,-1
 400 1200 l 1,8,-1
610 400 m 1,18,-1
 990 400 l 1,19,-1
 800 800 l 1,20,-1
 610 400 l 1,18,-1
EndSplineSet
EndChar

StartChar: Lacute
Encoding: 313 313 383
Width: 1600
GlyphClass: 2
Flags: W
LayerCount: 2
Fore
SplineSet
200 0 m 1,0,-1
 200 1000 l 1,1,-1
 400 1000 l 1,2,-1
 400 200 l 1,3,-1
 1400 200 l 1,4,-1
 1400 0 l 1,5,-1
 200 0 l 1,0,-1
220 1100 m 1,6,-1
 400 1400 l 1,7,-1
 600 1400 l 1,8,-1
 380 1100 l 1,9,-1
 220 1100 l 1,6,-1
EndSplineSet
EndChar

StartChar: Cacute
Encoding: 262 262 384
Width: 1600
GlyphClass: 2
Flags: W
LayerCount: 2
Fore
SplineSet
200 300 m 1,0,-1
 200 700 l 1,1,-1
 500 1000 l 1,2,-1
 1100 1000 l 1,3,-1
 1400 700 l 1,4,-1
 1400 600 l 1,5,-1
 1200 600 l 1,6,-1
 1000 800 l 1,7,-1
 600 800 l 1,8,-1
 400 600 l 1,9,-1
 400 400 l 1,10,-1
 600 200 l 1,11,-1
 1000 200 l 1,12,-1
 1200 400 l 1,13,-1
 1400 400 l 1,14,-1
 1400 300 l 1,15,-1
 1100 0 l 1,16,-1
 500 0 l 1,17,-1
 200 300 l 1,0,-1
720 1100 m 1,18,-1
 900 1400 l 1,19,-1
 1100 1400 l 1,20,-1
 880 1100 l 1,21,-1
 720 1100 l 1,18,-1
EndSplineSet
EndChar

StartChar: Ccaron
Encoding: 268 268 385
Width: 1600
GlyphClass: 2
Flags: W
LayerCount: 2
Fore
SplineSet
200 300 m 1,0,-1
 200 700 l 1,1,-1
 500 1000 l 1,2,-1
 1100 1000 l 1,3,-1
 1400 700 l 1,4,-1
 1400 600 l 1,5,-1
 1200 600 l 1,6,-1
 1000 800 l 1,7,-1
 600 800 l 1,8,-1
 400 600 l 1,9,-1
 400 400 l 1,10,-1
 600 200 l 1,11,-1
 1000 200 l 1,12,-1
 1200 400 l 1,13,-1
 1400 400 l 1,14,-1
 1400 300 l 1,15,-1
 1100 0 l 1,16,-1
 500 0 l 1,17,-1
 200 300 l 1,0,-1
500 1400 m 1,18,-1
 700 1400 l 1,19,-1
 800 1220 l 1,20,-1
 900 1400 l 1,21,-1
 1100 1400 l 1,22,-1
 900 1100 l 1,23,-1
 700 1100 l 1,24,-1
 500 1400 l 1,18,-1
EndSplineSet
EndChar

StartChar: Eogonek
Encoding: 280 280 386
Width: 1600
GlyphClass: 2
Flags: W
LayerCount: 2
Fore
SplineSet
200 200 m 1,0,-1
 200 1400 l 1,1,-1
 1400 1400 l 1,2,-1
 1400 1200 l 1,3,-1
 400 1200 l 1,4,-1
 400 900 l 1,5,-1
 1200 900 l 1,6,-1
 1200 700 l 1,7,-1
 400 700 l 1,8,-1
 400 400 l 1,9,-1
 1400 400 l 1,10,-1
 1400 100 l 1,11,-1
 1200 100 l 1,12,-1
 1200 -100 l 1,13,-1
 1400 -100 l 1,14,-1
 1400 -200 l 1,15,-1
 1100 -200 l 1,16,-1
 1000 -100 l 1,17,-1
 1000 100 l 1,18,-1
 1100 200 l 1,19,-1
 200 200 l 1,0,-1
EndSplineSet
EndChar

StartChar: Ecaron
Encoding: 282 282 387
Width: 1600
GlyphClass: 2
Flags: W
LayerCount: 2
Fore
SplineSet
200 0 m 1,0,-1
 200 1000 l 1,1,-1
 1400 1000 l 1,2,-1
 1400 800 l 1,3,-1
 400 800 l 1,4,-1
 400 600 l 1,5,-1
 1200 600 l 1,6,-1
 1200 400 l 1,7,-1
 400 400 l 1,8,-1
 400 200 l 1,9,-1
 1400 200 l 1,10,-1
 1400 0 l 1,11,-1
 200 0 l 1,0,-1
500 1400 m 1,12,-1
 700 1400 l 1,13,-1
 800 1220 l 1,14,-1
 900 1400 l 1,15,-1
 1100 1400 l 1,16,-1
 900 1100 l 1,17,-1
 700 1100 l 1,18,-1
 500 1400 l 1,12,-1
EndSplineSet
EndChar

StartChar: Dcaron
Encoding: 270 270 388
Width: 1600
GlyphClass: 2
Flags: W
LayerCount: 2
Fore
SplineSet
200 0 m 1,0,-1
 200 1000 l 1,1,-1
 1000 1000 l 1,2,-1
 1400 600 l 1,3,-1
 1400 400 l 1,4,-1
 1000 0 l 1,5,-1
 200 0 l 1,0,-1
400 200 m 1,6,-1
 900 200 l 1,7,-1
 1200 500 l 1,8,-1
 900 800 l 1,9,-1
 400 800 l 1,10,-1
 400 200 l 1,6,-1
500 1400 m 1,11,-1
 700 1400 l 1,12,-1
 800 1220 l 1,13,-1
 900 1400 l 1,14,-1
 1100 1400 l 1,15,-1
 900 1100 l 1,16,-1
 700 1100 l 1,17,-1
 500 1400 l 1,11,-1
EndSplineSet
EndChar

StartChar: Dcroat
Encoding: 272 272 389
Width: 1600
GlyphClass: 2
Flags: W
LayerCount: 2
Fore
SplineSet
200 600 m 1,0,-1
 200 800 l 1,1,-1
 400 800 l 1,2,-1
 400 1400 l 1,3,-1
 1000 1400 l 1,4,-1
 1400 1000 l 1,5,-1
 1400 400 l 1,6,-1
 1000 0 l 1,7,-1
 400 0 l 1,8,-1
 400 600 l 1,9,-1
 200 600 l 1,0,-1
600 200 m 1,10,-1
 900 200 l 1,11,-1
 1200 500 l 1,12,-1
 1200 900 l 1,13,-1
 900 1200 l 1,14,-1
 600 1200 l 1,15,-1
 600 800 l 1,16,-1
 900 800 l 1,17,-1
 900 600 l 1,18,-1
 600 600 l 1,19,-1
 600 200 l 1,10,-1
EndSplineSet
EndChar

StartChar: Nacute
Encoding: 323 323 390
Width: 1600
GlyphClass: 2
Flags: W
LayerCount: 2
Fore
SplineSet
200 0 m 1,0,-1
 200 1000 l 1,1,-1
 450 1000 l 1,2,-1
 1200 240 l 1,3,-1
 1200 1000 l 1,4,-1
 1400 1000 l 1,5,-1
 1400 0 l 1,6,-1
 1150 0 l 1,7,-1
 400 760 l 1,8,-1
 400 0 l 1,9,-1
 200 0 l 1,0,-1
720 1100 m 1,10,-1
 900 1400 l 1,11,-1
 1100 1400 l 1,12,-1
 880 1100 l 1,13,-1
 720 1100 l 1,10,-1
EndSplineSet
EndChar

StartChar: Ncaron
Encoding: 327 327 391
Width: 1600
GlyphClass: 2
Flags: W
LayerCount: 2
Fore
SplineSet
200 0 m 1,0,-1
 200 1000 l 1,1,-1
 450 1000 l 1,2,-1
 1200 240 l 1,3,-1
 1200 1000 l 1,4,-1
 1400 1000 l 1,5,-1
 1400 0 l 1,6,-1
 1150 0 l 1,7,-1
 400 760 l 1,8,-1
 400 0 l 1,9,-1
 200 0 l 1,0,-1
500 1400 m 1,10,-1
 700 1400 l 1,11,-1
 800 1220 l 1,12,-1
 900 1400 l 1,13,-1
 1100 1400 l 1,14,-1
 900 1100 l 1,15,-1
 700 1100 l 1,16,-1
 500 1400 l 1,10,-1
EndSplineSet
EndChar

StartChar: Ohungarumlaut
Encoding: 336 336 392
Width: 1600
GlyphClass: 2
Flags: W
LayerCount: 2
Fore
SplineSet
200 300 m 1,0,-1
 200 700 l 1,1,-1
 500 1000 l 1,2,-1
 1100 1000 l 1,3,-1
 1400 700 l 1,4,-1
 1400 300 l 1,5,-1
 1100 0 l 1,6,-1
 500 0 l 1,7,-1
 200 300 l 1,0,-1
400 400 m 1,8,-1
 600 200 l 1,9,-1
 1000 200 l 1,10,-1
 1200 400 l 1,11,-1
 1200 600 l 1,12,-1
 1000 800 l 1,13,-1
 600 800 l 1,14,-1
 400 600 l 1,15,-1
 400 400 l 1,8,-1
520 1100 m 1,16,-1
 700 1400 l 1,17,-1
 900 1400 l 1,18,-1
 680 1100 l 1,19,-1
 520 1100 l 1,16,-1
920 1100 m 1,20,-1
 1100 1400 l 1,21,-1
 1300 1400 l 1,22,-1
 1080 1100 l 1,23,-1
 920 1100 l 1,20,-1
EndSplineSet
EndChar

StartChar: Rcaron
Encoding: 344 344 393
Width: 1600
GlyphClass: 2
Flags: W
LayerCount: 2
Fore
SplineSet
200 0 m 1,0,-1
 200 1000 l 1,1,-1
 1200 1000 l 1,2,-1
 1400 800 l 1,3,-1
 1400 600 l 1,4,-1
 1200 400 l 1,5,-1
 1000 400 l 1,6,-1
 1400 0 l 1,7,-1
 1120 0 l 1,8,-1
 720 400 l 1,9,-1
 400 400 l 1,10,-1
 400 0 l 1,11,-1
 200 0 l 1,0,-1
400 600 m 1,12,-1
 1100 600 l 1,13,-1
 1200 700 l 1,14,-1
 1100 800 l 1,15,-1
 400 800 l 1,16,-1
 400 600 l 1,12,-1
500 1400 m 1,17,-1
 700 1400 l 1,18,-1
 800 1220 l 1,19,-1
 900 1400 l 1,20,-1
 1100 1400 l 1,21,-1
 900 1100 l 1,22,-1
 700 1100 l 1,23,-1
 500 1400 l 1,17,-1
EndSplineSet
EndChar

StartChar: Uring
Encoding: 366 366 394
Width: 1600
GlyphClass: 2
Flags: W
LayerCount: 2
Fore
SplineSet
200 300 m 1,0,-1
 200 1000 l 1,1,-1
 400 1000 l 1,2,-1
 400 400 l 1,3,-1
 600 200 l 1,4,-1
 1000 200 l 1,5,-1
 1200 400 l 1,6,-1
 1200 1000 l 1,7,-1
 1400 1000 l 1,8,-1
 1400 300 l 1,9,-1
 1100 0 l 1,10,-1
 500 0 l 1,11,-1
 200 300 l 1,0,-1
500 1200 m 1,12,-1
 500 1300 l 1,13,-1
 600 1400 l 1,14,-1
 1000 1400 l 1,15,-1
 1100 1300 l 1,16,-1
 1100 1200 l 1,17,-1
 1000 1100 l 1,18,-1
 600 1100 l 1,19,-1
 500 1200 l 1,12,-1
700 1200 m 1,20,-1
 900 1200 l 1,21,-1
 900 1300 l 1,22,-1
 700 1300 l 1,23,-1
 700 1200 l 1,20,-1
EndSplineSet
EndChar

StartChar: Uhungarumlaut
Encoding: 368 368 395
Width: 1600
GlyphClass: 2
Flags: W
LayerCount: 2
Fore
SplineSet
200 300 m 1,0,-1
 200 1000 l 1,1,-1
 400 1000 l 1,2,-1
 400 400 l 1,3,-1
 600 200 l 1,4,-1
 1000 200 l 1,5,-1
 1200 400 l 1,6,-1
 1200 1000 l 1,7,-1
 1400 1000 l 1,8,-1
 1400 300 l 1,9,-1
 1100 0 l 1,10,-1
 500 0 l 1,11,-1
 200 300 l 1,0,-1
520 1100 m 1,12,-1
 700 1400 l 1,13,-1
 900 1400 l 1,14,-1
 680 1100 l 1,15,-1
 520 1100 l 1,12,-1
920 1100 m 1,16,-1
 1100 1400 l 1,17,-1
 1300 1400 l 1,18,-1
 1080 1100 l 1,19,-1
 920 1100 l 1,16,-1
EndSplineSet
EndChar

StartChar: uni0162
Encoding: 354 354 396
Width: 1600
GlyphClass: 2
Flags: W
LayerCount: 2
Fore
SplineSet
200 1200 m 1,0,-1
 200 1400 l 1,1,-1
 1400 1400 l 1,2,-1
 1400 1200 l 1,3,-1
 900 1200 l 1,4,-1
 900 200 l 1,5,-1
 1000 200 l 1,6,-1
 1100 100 l 1,7,-1
 1100 -100 l 1,8,-1
 1000 -200 l 1,9,-1
 700 -200 l 1,10,-1
 700 -100 l 1,11,-1
 900 -100 l 1,12,-1
 900 100 l 1,13,-1
 700 100 l 1,14,-1
 700 1200 l 1,15,-1
 200 1200 l 1,0,-1
EndSplineSet
Substitution2: "'locl' Localized Forms in Latin lookup 2 subtable" uni021A
EndChar

StartChar: racute
Encoding: 341 341 397
Width: 1600
GlyphClass: 2
Flags: W
LayerCount: 2
Fore
SplineSet
400 0 m 1,0,-1
 400 200 l 1,1,-1
 600 200 l 1,2,-1
 600 800 l 1,3,-1
 400 800 l 1,4,-1
 400 1000 l 1,5,-1
 800 1000 l 1,6,-1
 800 800 l 1,7,-1
 1000 1000 l 1,8,-1
 1200 1000 l 1,9,-1
 1200 800 l 1,10,-1
 1100 800 l 1,11,-1
 800 500 l 1,12,-1
 800 200 l 1,13,-1
 1000 200 l 1,14,-1
 1000 0 l 1,15,-1
 400 0 l 1,0,-1
720 1100 m 1,16,-1
 900 1400 l 1,17,-1
 1100 1400 l 1,18,-1
 880 1100 l 1,19,-1
 720 1100 l 1,16,-1
EndSplineSet
EndChar

StartChar: abreve
Encoding: 259 259 398
Width: 1600
GlyphClass: 2
Flags: W
LayerCount: 2
Fore
SplineSet
400 200 m 1,0,-1
 400 400 l 1,1,-1
 600 600 l 1,2,-1
 1000 600 l 1,3,-1
 1000 700 l 1,4,-1
 900 800 l 1,5,-1
 600 800 l 1,6,-1
 600 1000 l 1,7,-1
 1000 1000 l 1,8,-1
 1200 800 l 1,9,-1
 1200 0 l 1,10,-1
 600 0 l 1,11,-1
 400 200 l 1,0,-1
400 1200 m 1,12,-1
 400 1400 l 1,13,-1
 600 1400 l 1,14,-1
 600 1300 l 1,15,-1
 1000 1300 l 1,16,-1
 1000 1400 l 1,17,-1
 1200 1400 l 1,18,-1
 1200 1200 l 1,19,-1
 1100 1100 l 1,20,-1
 500 1100 l 1,21,-1
 400 1200 l 1,12,-1
600 300 m 1,22,-1
 700 200 l 1,23,-1
 1000 200 l 1,24,-1
 1000 400 l 1,25,-1
 700 400 l 1,26,-1
 600 300 l 1,22,-1
EndSplineSet
EndChar

StartChar: lacute
Encoding: 314 314 399
Width: 1600
GlyphClass: 2
Flags: W
LayerCount: 2
Fore
SplineSet
400 0 m 1,0,-1
 400 200 l 1,1,-1
 700 200 l 1,2,-1
 700 1200 l 1,3,-1
 400 1200 l 1,4,-1
 400 1400 l 1,5,-1
 900 1400 l 1,6,-1
 900 200 l 1,7,-1
 1200 200 l 1,8,-1
 1200 0 l 1,9,-1
 400 0 l 1,0,-1
1020 1100 m 1,10,-1
 1200 1400 l 1,11,-1
 1400 1400 l 1,12,-1
 1180 1100 l 1,13,-1
 1020 1100 l 1,10,-1
EndSplineSet
EndChar

StartChar: cacute
Encoding: 263 263 400
Width: 1600
GlyphClass: 2
Flags: W
LayerCount: 2
Fore
SplineSet
400 200 m 1,0,-1
 400 800 l 1,1,-1
 600 1000 l 1,2,-1
 1000 1000 l 1,3,-1
 1200 800 l 1,4,-1
 1200 700 l 1,5,-1
 1000 700 l 1,6,-1
 900 800 l 1,7,-1
 700 800 l 1,8,-1
 600 700 l 1,9,-1
 600 300 l 1,10,-1
 700 200 l 1,11,-1
 900 200 l 1,12,-1
 1000 300 l 1,13,-1
 1200 300 l 1,14,-1
 1200 200 l 1,15,-1
 1000 0 l 1,16,-1
 600 0 l 1,17,-1
 400 200 l 1,0,-1
720 1100 m 1,18,-1
 900 1400 l 1,19,-1
 1100 1400 l 1,20,-1
 880 1100 l 1,21,-1
 720 1100 l 1,18,-1
EndSplineSet
EndChar

StartChar: ccaron
Encoding: 269 269 401
Width: 1600
GlyphClass: 2
Flags: W
LayerCount: 2
Fore
SplineSet
400 200 m 1,0,-1
 400 800 l 1,1,-1
 600 1000 l 1,2,-1
 1000 1000 l 1,3,-1
 1200 800 l 1,4,-1
 1200 700 l 1,5,-1
 1000 700 l 1,6,-1
 900 800 l 1,7,-1
 700 800 l 1,8,-1
 600 700 l 1,9,-1
 600 300 l 1,10,-1
 700 200 l 1,11,-1
 900 200 l 1,12,-1
 1000 300 l 1,13,-1
 1200 300 l 1,14,-1
 1200 200 l 1,15,-1
 1000 0 l 1,16,-1
 600 0 l 1,17,-1
 400 200 l 1,0,-1
500 1400 m 1,18,-1
 700 1400 l 1,19,-1
 800 1220 l 1,20,-1
 900 1400 l 1,21,-1
 1100 1400 l 1,22,-1
 900 1100 l 1,23,-1
 700 1100 l 1,24,-1
 500 1400 l 1,18,-1
EndSplineSet
EndChar

StartChar: eogonek
Encoding: 281 281 402
Width: 1600
GlyphClass: 2
Flags: W
LayerCount: 2
Fore
SplineSet
400 400 m 1,0,-1
 400 1000 l 1,1,-1
 600 1200 l 1,2,-1
 1000 1200 l 1,3,-1
 1200 1000 l 1,4,-1
 1200 600 l 1,5,-1
 600 600 l 1,6,-1
 600 500 l 1,7,-1
 700 400 l 1,8,-1
 1200 400 l 1,9,-1
 1200 100 l 1,10,-1
 1000 100 l 1,11,-1
 1000 -100 l 1,12,-1
 1200 -100 l 1,13,-1
 1200 -200 l 1,14,-1
 900 -200 l 1,15,-1
 800 -100 l 1,16,-1
 800 100 l 1,17,-1
 900 200 l 1,18,-1
 600 200 l 1,19,-1
 400 400 l 1,0,-1
600 800 m 1,20,-1
 1000 800 l 1,21,-1
 1000 900 l 1,22,-1
 900 1000 l 1,23,-1
 700 1000 l 1,24,-1
 600 900 l 1,25,-1
 600 800 l 1,20,-1
EndSplineSet
EndChar

StartChar: ecaron
Encoding: 283 283 403
Width: 1600
GlyphClass: 2
Flags: W
LayerCount: 2
Fore
SplineSet
400 200 m 1,0,-1
 400 800 l 1,1,-1
 600 1000 l 1,2,-1
 1000 1000 l 1,3,-1
 1200 800 l 1,4,-1
 1200 400 l 1,5,-1
 600 400 l 1,6,-1
 600 300 l 1,7,-1
 700 200 l 1,8,-1
 1200 200 l 1,9,-1
 1200 0 l 1,10,-1
 600 0 l 1,11,-1
 400 200 l 1,0,-1
500 1400 m 1,12,-1
 700 1400 l 1,13,-1
 800 1220 l 1,14,-1
 900 1400 l 1,15,-1
 1100 1400 l 1,16,-1
 900 1100 l 1,17,-1
 700 1100 l 1,18,-1
 500 1400 l 1,12,-1
600 600 m 1,19,-1
 1000 600 l 1,20,-1
 1000 700 l 1,21,-1
 900 800 l 1,22,-1
 700 800 l 1,23,-1
 600 700 l 1,24,-1
 600 600 l 1,19,-1
EndSplineSet
EndChar

StartChar: dcaron
Encoding: 271 271 404
Width: 1600
GlyphClass: 2
Flags: W
LayerCount: 2
Fore
SplineSet
200 200 m 1,0,-1
 200 800 l 1,1,-1
 400 1000 l 1,2,-1
 800 1000 l 1,3,-1
 800 1400 l 1,4,-1
 1000 1400 l 1,5,-1
 1000 0 l 1,6,-1
 400 0 l 1,7,-1
 200 200 l 1,0,-1
400 300 m 1,8,-1
 500 200 l 1,9,-1
 800 200 l 1,10,-1
 800 800 l 1,11,-1
 500 800 l 1,12,-1
 400 700 l 1,13,-1
 400 300 l 1,8,-1
1200 1000 m 1,14,-1
 1270 1200 l 1,15,-1
 1200 1200 l 1,16,-1
 1200 1400 l 1,17,-1
 1400 1400 l 1,18,-1
 1400 1200 l 1,19,-1
 1330 1000 l 1,20,-1
 1200 1000 l 1,14,-1
EndSplineSet
EndChar

StartChar: dcroat
Encoding: 273 273 405
Width: 1600
GlyphClass: 2
Flags: W
LayerCount: 2
Fore
SplineSet
300 200 m 1,0,-1
 300 800 l 1,1,-1
 500 1000 l 1,2,-1
 900 1000 l 1,3,-1
 900 1100 l 1,4,-1
 600 1100 l 1,5,-1
 600 1300 l 1,6,-1
 900 1300 l 1,7,-1
 900 1400 l 1,8,-1
 1100 1400 l 1,9,-1
 1100 1300 l 1,10,-1
 1300 1300 l 1,11,-1
 1300 1100 l 1,12,-1
 1100 1100 l 1,13,-1
 1100 0 l 1,14,-1
 500 0 l 1,15,-1
 300 200 l 1,0,-1
500 300 m 1,16,-1
 600 200 l 1,17,-1
 900 200 l 1,18,-1
 900 800 l 1,19,-1
 600 800 l 1,20,-1
 500 700 l 1,21,-1
 500 300 l 1,16,-1
EndSplineSet
EndChar

StartChar: nacute
Encoding: 324 324 406
Width: 1600
GlyphClass: 2
Flags: W
LayerCount: 2
Fore
SplineSet
400 0 m 1,0,-1
 400 1000 l 1,1,-1
 1000 1000 l 1,2,-1
 1200 800 l 1,3,-1
 1200 0 l 1,4,-1
 1000 0 l 1,5,-1
 1000 700 l 1,6,-1
 900 800 l 1,7,-1
 600 800 l 1,8,-1
 600 0 l 1,9,-1
 400 0 l 1,0,-1
720 1100 m 1,10,-1
 900 1400 l 1,11,-1
 1100 1400 l 1,12,-1
 880 1100 l 1,13,-1
 720 1100 l 1,10,-1
EndSplineSet
EndChar

StartChar: ncaron
Encoding: 328 328 407
Width: 1600
GlyphClass: 2
Flags: W
LayerCount: 2
Fore
SplineSet
400 0 m 1,0,-1
 400 1000 l 1,1,-1
 1000 1000 l 1,2,-1
 1200 800 l 1,3,-1
 1200 0 l 1,4,-1
 1000 0 l 1,5,-1
 1000 700 l 1,6,-1
 900 800 l 1,7,-1
 600 800 l 1,8,-1
 600 0 l 1,9,-1
 400 0 l 1,0,-1
500 1400 m 1,10,-1
 700 1400 l 1,11,-1
 800 1220 l 1,12,-1
 900 1400 l 1,13,-1
 1100 1400 l 1,14,-1
 900 1100 l 1,15,-1
 700 1100 l 1,16,-1
 500 1400 l 1,10,-1
EndSplineSet
EndChar

StartChar: ohungarumlaut
Encoding: 337 337 408
Width: 1600
GlyphClass: 2
Flags: W
LayerCount: 2
Fore
SplineSet
400 200 m 1,0,-1
 400 800 l 1,1,-1
 600 1000 l 1,2,-1
 1000 1000 l 1,3,-1
 1200 800 l 1,4,-1
 1200 200 l 1,5,-1
 1000 0 l 1,6,-1
 600 0 l 1,7,-1
 400 200 l 1,0,-1
520 1100 m 1,8,-1
 700 1400 l 1,9,-1
 900 1400 l 1,10,-1
 680 1100 l 1,11,-1
 520 1100 l 1,8,-1
600 300 m 1,12,-1
 700 200 l 1,13,-1
 900 200 l 1,14,-1
 1000 300 l 1,15,-1
 1000 700 l 1,16,-1
 900 800 l 1,17,-1
 700 800 l 1,18,-1
 600 700 l 1,19,-1
 600 300 l 1,12,-1
920 1100 m 1,20,-1
 1100 1400 l 1,21,-1
 1300 1400 l 1,22,-1
 1080 1100 l 1,23,-1
 920 1100 l 1,20,-1
EndSplineSet
EndChar

StartChar: rcaron
Encoding: 345 345 409
Width: 1600
GlyphClass: 2
Flags: W
LayerCount: 2
Fore
SplineSet
400 0 m 1,0,-1
 400 200 l 1,1,-1
 600 200 l 1,2,-1
 600 800 l 1,3,-1
 400 800 l 1,4,-1
 400 1000 l 1,5,-1
 800 1000 l 1,6,-1
 800 800 l 1,7,-1
 1000 1000 l 1,8,-1
 1200 1000 l 1,9,-1
 1200 800 l 1,10,-1
 1100 800 l 1,11,-1
 800 500 l 1,12,-1
 800 200 l 1,13,-1
 1000 200 l 1,14,-1
 1000 0 l 1,15,-1
 400 0 l 1,0,-1
500 1400 m 1,16,-1
 700 1400 l 1,17,-1
 800 1220 l 1,18,-1
 900 1400 l 1,19,-1
 1100 1400 l 1,20,-1
 900 1100 l 1,21,-1
 700 1100 l 1,22,-1
 500 1400 l 1,16,-1
EndSplineSet
EndChar

StartChar: uring
Encoding: 367 367 410
Width: 1600
GlyphClass: 2
Flags: W
LayerCount: 2
Fore
SplineSet
400 200 m 1,0,-1
 400 1000 l 1,1,-1
 600 1000 l 1,2,-1
 600 300 l 1,3,-1
 700 200 l 1,4,-1
 1000 200 l 1,5,-1
 1000 1000 l 1,6,-1
 1200 1000 l 1,7,-1
 1200 0 l 1,8,-1
 600 0 l 1,9,-1
 400 200 l 1,0,-1
500 1200 m 1,10,-1
 500 1300 l 1,11,-1
 600 1400 l 1,12,-1
 1000 1400 l 1,13,-1
 1100 1300 l 1,14,-1
 1100 1200 l 1,15,-1
 1000 1100 l 1,16,-1
 600 1100 l 1,17,-1
 500 1200 l 1,10,-1
700 1200 m 1,18,-1
 900 1200 l 1,19,-1
 900 1300 l 1,20,-1
 700 1300 l 1,21,-1
 700 1200 l 1,18,-1
EndSplineSet
EndChar

StartChar: uhungarumlaut
Encoding: 369 369 411
Width: 1600
GlyphClass: 2
Flags: W
LayerCount: 2
Fore
SplineSet
400 200 m 1,0,-1
 400 1000 l 1,1,-1
 600 1000 l 1,2,-1
 600 300 l 1,3,-1
 700 200 l 1,4,-1
 1000 200 l 1,5,-1
 1000 1000 l 1,6,-1
 1200 1000 l 1,7,-1
 1200 0 l 1,8,-1
 600 0 l 1,9,-1
 400 200 l 1,0,-1
520 1100 m 1,10,-1
 700 1400 l 1,11,-1
 900 1400 l 1,12,-1
 680 1100 l 1,13,-1
 520 1100 l 1,10,-1
920 1100 m 1,14,-1
 1100 1400 l 1,15,-1
 1300 1400 l 1,16,-1
 1080 1100 l 1,17,-1
 920 1100 l 1,14,-1
EndSplineSet
EndChar

StartChar: uni0163
Encoding: 355 355 412
Width: 1600
GlyphClass: 2
Flags: W
LayerCount: 2
Fore
SplineSet
400 800 m 1,0,-1
 400 1000 l 1,1,-1
 700 1000 l 1,2,-1
 700 1400 l 1,3,-1
 900 1400 l 1,4,-1
 900 1000 l 1,5,-1
 1200 1000 l 1,6,-1
 1200 800 l 1,7,-1
 900 800 l 1,8,-1
 900 200 l 1,9,-1
 1000 200 l 1,10,-1
 1100 100 l 1,11,-1
 1100 -100 l 1,12,-1
 1000 -200 l 1,13,-1
 700 -200 l 1,14,-1
 700 -100 l 1,15,-1
 900 -100 l 1,16,-1
 900 100 l 1,17,-1
 700 100 l 1,18,-1
 700 800 l 1,19,-1
 400 800 l 1,0,-1
EndSplineSet
Substitution2: "'locl' Localized Forms in Latin lookup 2 subtable" uni021B
EndChar

StartChar: kgreenlandic
Encoding: 312 312 413
Width: 1600
GlyphClass: 2
Flags: W
LayerCount: 2
Fore
SplineSet
400 0 m 1,0,-1
 400 1000 l 1,1,-1
 600 1000 l 1,2,-1
 600 667 l 1,3,-1
 850 1000 l 1,4,-1
 1100 1000 l 1,5,-1
 775 567 l 1,6,-1
 1200 0 l 1,7,-1
 950 0 l 1,8,-1
 650 400 l 1,9,-1
 600 333 l 1,10,-1
 600 0 l 1,11,-1
 400 0 l 1,0,-1
EndSplineSet
EndChar

StartChar: uni0156
Encoding: 342 342 414
Width: 1600
GlyphClass: 2
Flags: W
LayerCount: 2
Fore
SplineSet
200 200 m 1,0,-1
 200 1400 l 1,1,-1
 1200 1400 l 1,2,-1
 1400 1200 l 1,3,-1
 1400 900 l 1,4,-1
 1200 700 l 1,5,-1
 900 700 l 1,6,-1
 1400 200 l 1,7,-1
 1120 200 l 1,8,-1
 620 700 l 1,9,-1
 400 700 l 1,10,-1
 400 200 l 1,11,-1
 200 200 l 1,0,-1
400 900 m 1,12,-1
 1100 900 l 1,13,-1
 1200 1000 l 1,14,-1
 1200 1100 l 1,15,-1
 1100 1200 l 1,16,-1
 400 1200 l 1,17,-1
 400 900 l 1,12,-1
700 0 m 1,18,-1
 700 100 l 1,19,-1
 900 100 l 1,20,-1
 900 0 l 1,21,-1
 830 -200 l 1,22,-1
 700 -200 l 1,23,-1
 770 0 l 1,24,-1
 700 0 l 1,18,-1
EndSplineSet
EndChar

StartChar: Itilde
Encoding: 296 296 415
Width: 1600
GlyphClass: 2
Flags: W
LayerCount: 2
Fore
SplineSet
200 0 m 1,0,-1
 200 200 l 1,1,-1
 700 200 l 1,2,-1
 700 800 l 1,3,-1
 200 800 l 1,4,-1
 200 1000 l 1,5,-1
 1400 1000 l 1,6,-1
 1400 800 l 1,7,-1
 900 800 l 1,8,-1
 900 200 l 1,9,-1
 1400 200 l 1,10,-1
 1400 0 l 1,11,-1
 200 0 l 1,0,-1
400 1100 m 1,12,-1
 400 1300 l 1,13,-1
 500 1400 l 1,14,-1
 600 1400 l 1,15,-1
 1000 1300 l 1,16,-1
 1000 1400 l 1,17,-1
 1200 1400 l 1,18,-1
 1200 1200 l 1,19,-1
 1100 1100 l 1,20,-1
 1000 1100 l 1,21,-1
 600 1200 l 1,22,-1
 600 1100 l 1,23,-1
 400 1100 l 1,12,-1
EndSplineSet
EndChar

StartChar: uni013B
Encoding: 315 315 416
Width: 1600
GlyphClass: 2
Flags: W
LayerCount: 2
Fore
SplineSet
200 200 m 1,0,-1
 200 1400 l 1,1,-1
 400 1400 l 1,2,-1
 400 400 l 1,3,-1
 1400 400 l 1,4,-1
 1400 200 l 1,5,-1
 200 200 l 1,0,-1
700 0 m 1,6,-1
 700 100 l 1,7,-1
 900 100 l 1,8,-1
 900 0 l 1,9,-1
 830 -200 l 1,10,-1
 700 -200 l 1,11,-1
 770 0 l 1,12,-1
 700 0 l 1,6,-1
EndSplineSet
EndChar

StartChar: Emacron
Encoding: 274 274 417
Width: 1600
GlyphClass: 2
Flags: W
LayerCount: 2
Fore
SplineSet
200 0 m 1,0,-1
 200 1000 l 1,1,-1
 1400 1000 l 1,2,-1
 1400 800 l 1,3,-1
 400 800 l 1,4,-1
 400 600 l 1,5,-1
 1200 600 l 1,6,-1
 1200 400 l 1,7,-1
 400 400 l 1,8,-1
 400 200 l 1,9,-1
 1400 200 l 1,10,-1
 1400 0 l 1,11,-1
 200 0 l 1,0,-1
500 1200 m 1,12,-1
 500 1400 l 1,13,-1
 1100 1400 l 1,14,-1
 1100 1200 l 1,15,-1
 500 1200 l 1,12,-1
EndSplineSet
EndChar

StartChar: uni0122
Encoding: 290 290 418
Width: 1600
GlyphClass: 2
Flags: W
LayerCount: 2
Fore
SplineSet
200 500 m 1,0,-1
 200 1100 l 1,1,-1
 500 1400 l 1,2,-1
 1100 1400 l 1,3,-1
 1400 1100 l 1,4,-1
 1400 1000 l 1,5,-1
 1200 1000 l 1,6,-1
 1000 1200 l 1,7,-1
 600 1200 l 1,8,-1
 400 1000 l 1,9,-1
 400 600 l 1,10,-1
 600 400 l 1,11,-1
 1200 400 l 1,12,-1
 1200 700 l 1,13,-1
 800 700 l 1,14,-1
 800 900 l 1,15,-1
 1400 900 l 1,16,-1
 1400 200 l 1,17,-1
 500 200 l 1,18,-1
 200 500 l 1,0,-1
700 0 m 1,19,-1
 700 100 l 1,20,-1
 900 100 l 1,21,-1
 900 0 l 1,22,-1
 830 -200 l 1,23,-1
 700 -200 l 1,24,-1
 770 0 l 1,25,-1
 700 0 l 1,19,-1
EndSplineSet
EndChar

StartChar: Tbar
Encoding: 358 358 419
Width: 1600
GlyphClass: 2
Flags: W
LayerCount: 2
Fore
SplineSet
200 1200 m 1,0,-1
 200 1400 l 1,1,-1
 1400 1400 l 1,2,-1
 1400 1200 l 1,3,-1
 900 1200 l 1,4,-1
 900 800 l 1,5,-1
 1200 800 l 1,6,-1
 1200 600 l 1,7,-1
 900 600 l 1,8,-1
 900 0 l 1,9,-1
 700 0 l 1,10,-1
 700 600 l 1,11,-1
 400 600 l 1,12,-1
 400 800 l 1,13,-1
 700 800 l 1,14,-1
 700 1200 l 1,15,-1
 200 1200 l 1,0,-1
EndSplineSet
EndChar

StartChar: uni0157
Encoding: 343 343 420
Width: 1600
GlyphClass: 2
Flags: W
LayerCount: 2
Fore
SplineSet
400 200 m 1,0,-1
 400 400 l 1,1,-1
 600 400 l 1,2,-1
 600 1000 l 1,3,-1
 400 1000 l 1,4,-1
 400 1200 l 1,5,-1
 800 1200 l 1,6,-1
 800 1000 l 1,7,-1
 1000 1200 l 1,8,-1
 1200 1200 l 1,9,-1
 1200 1000 l 1,10,-1
 1100 1000 l 1,11,-1
 800 700 l 1,12,-1
 800 400 l 1,13,-1
 1000 400 l 1,14,-1
 1000 200 l 1,15,-1
 400 200 l 1,0,-1
600 0 m 1,16,-1
 600 100 l 1,17,-1
 800 100 l 1,18,-1
 800 0 l 1,19,-1
 730 -200 l 1,20,-1
 600 -200 l 1,21,-1
 670 0 l 1,22,-1
 600 0 l 1,16,-1
EndSplineSet
EndChar

StartChar: itilde
Encoding: 297 297 421
Width: 1600
GlyphClass: 2
Flags: W
LayerCount: 2
Fore
SplineSet
400 0 m 1,0,-1
 400 200 l 1,1,-1
 700 200 l 1,2,-1
 700 800 l 1,3,-1
 400 800 l 1,4,-1
 400 1000 l 1,5,-1
 900 1000 l 1,6,-1
 900 200 l 1,7,-1
 1200 200 l 1,8,-1
 1200 0 l 1,9,-1
 400 0 l 1,0,-1
400 1100 m 1,10,-1
 400 1300 l 1,11,-1
 500 1400 l 1,12,-1
 600 1400 l 1,13,-1
 1000 1300 l 1,14,-1
 1000 1400 l 1,15,-1
 1200 1400 l 1,16,-1
 1200 1200 l 1,17,-1
 1100 1100 l 1,18,-1
 1000 1100 l 1,19,-1
 600 1200 l 1,20,-1
 600 1100 l 1,21,-1
 400 1100 l 1,10,-1
EndSplineSet
EndChar

StartChar: uni013C
Encoding: 316 316 422
Width: 1600
GlyphClass: 2
Flags: W
LayerCount: 2
Fore
SplineSet
400 200 m 1,0,-1
 400 400 l 1,1,-1
 700 400 l 1,2,-1
 700 1200 l 1,3,-1
 400 1200 l 1,4,-1
 400 1400 l 1,5,-1
 900 1400 l 1,6,-1
 900 400 l 1,7,-1
 1200 400 l 1,8,-1
 1200 200 l 1,9,-1
 400 200 l 1,0,-1
700 0 m 1,10,-1
 700 100 l 1,11,-1
 900 100 l 1,12,-1
 900 0 l 1,13,-1
 830 -200 l 1,14,-1
 700 -200 l 1,15,-1
 770 0 l 1,16,-1
 700 0 l 1,10,-1
EndSplineSet
EndChar

StartChar: emacron
Encoding: 275 275 423
Width: 1600
GlyphClass: 2
Flags: W
LayerCount: 2
Fore
SplineSet
400 200 m 1,0,-1
 400 800 l 1,1,-1
 600 1000 l 1,2,-1
 1000 1000 l 1,3,-1
 1200 800 l 1,4,-1
 1200 400 l 1,5,-1
 600 400 l 1,6,-1
 600 300 l 1,7,-1
 700 200 l 1,8,-1
 1200 200 l 1,9,-1
 1200 0 l 1,10,-1
 600 0 l 1,11,-1
 400 200 l 1,0,-1
500 1200 m 1,12,-1
 500 1400 l 1,13,-1
 1100 1400 l 1,14,-1
 1100 1200 l 1,15,-1
 500 1200 l 1,12,-1
600 600 m 1,16,-1
 1000 600 l 1,17,-1
 1000 700 l 1,18,-1
 900 800 l 1,19,-1
 700 800 l 1,20,-1
 600 700 l 1,21,-1
 600 600 l 1,16,-1
EndSplineSet
EndChar

StartChar: uni0123
Encoding: 291 291 424
Width: 1600
GlyphClass: 2
Flags: W
LayerCount: 2
Fore
SplineSet
200 -100 m 1,0,-1
 200 200 l 1,1,-1
 300 300 l 1,2,-1
 500 300 l 1,3,-1
 500 100 l 1,4,-1
 400 100 l 1,5,-1
 400 0 l 1,6,-1
 1200 0 l 1,7,-1
 1200 100 l 1,8,-1
 700 100 l 1,9,-1
 700 400 l 1,10,-1
 800 500 l 1,11,-1
 300 500 l 1,12,-1
 200 600 l 1,13,-1
 200 900 l 1,14,-1
 300 1000 l 1,15,-1
 800 1000 l 1,16,-1
 1000 800 l 1,17,-1
 1000 700 l 1,18,-1
 1100 700 l 1,19,-1
 1200 800 l 1,20,-1
 1200 1000 l 1,21,-1
 1400 1000 l 1,22,-1
 1400 700 l 1,23,-1
 1200 500 l 1,24,-1
 1000 500 l 1,25,-1
 1000 400 l 1,26,-1
 900 300 l 1,27,-1
 1300 300 l 1,28,-1
 1400 200 l 1,29,-1
 1400 -100 l 1,30,-1
 1300 -200 l 1,31,-1
 300 -200 l 1,32,-1
 200 -100 l 1,0,-1
400 700 m 1,33,-1
 800 700 l 1,34,-1
 700 800 l 1,35,-1
 400 800 l 1,36,-1
 400 700 l 1,33,-1
700 1100 m 1,37,-1
 700 1200 l 1,38,-1
 770 1400 l 1,39,-1
 900 1400 l 1,40,-1
 830 1200 l 1,41,-1
 900 1200 l 1,42,-1
 900 1100 l 1,43,-1
 700 1100 l 1,37,-1
EndSplineSet
EndChar

StartChar: tbar
Encoding: 359 359 425
Width: 1600
GlyphClass: 2
Flags: W
LayerCount: 2
Fore
SplineSet
400 400 m 1,0,-1
 400 600 l 1,1,-1
 700 600 l 1,2,-1
 700 800 l 1,3,-1
 400 800 l 1,4,-1
 400 1000 l 1,5,-1
 700 1000 l 1,6,-1
 700 1400 l 1,7,-1
 900 1400 l 1,8,-1
 900 1000 l 1,9,-1
 1200 1000 l 1,10,-1
 1200 800 l 1,11,-1
 900 800 l 1,12,-1
 900 600 l 1,13,-1
 1200 600 l 1,14,-1
 1200 400 l 1,15,-1
 900 400 l 1,16,-1
 900 0 l 1,17,-1
 700 0 l 1,18,-1
 700 400 l 1,19,-1
 400 400 l 1,0,-1
EndSplineSet
EndChar

StartChar: Eng
Encoding: 330 330 426
Width: 1600
GlyphClass: 2
Flags: W
LayerCount: 2
Fore
SplineSet
200 0 m 1,0,-1
 200 1400 l 1,1,-1
 450 1400 l 1,2,-1
 1200 290 l 1,3,-1
 1200 1400 l 1,4,-1
 1400 1400 l 1,5,-1
 1400 0 l 1,6,-1
 1200 -200 l 1,7,-1
 1000 -200 l 1,8,-1
 1000 0 l 1,9,-1
 1100 0 l 1,10,-1
 1130 30 l 1,11,-1
 400 1110 l 1,12,-1
 400 0 l 1,13,-1
 200 0 l 1,0,-1
EndSplineSet
EndChar

StartChar: eng
Encoding: 331 331 427
Width: 1600
GlyphClass: 2
Flags: W
LayerCount: 2
Fore
SplineSet
400 0 m 1,0,-1
 400 1000 l 1,1,-1
 1000 1000 l 1,2,-1
 1200 800 l 1,3,-1
 1200 0 l 1,4,-1
 1000 -200 l 1,5,-1
 800 -200 l 1,6,-1
 800 0 l 1,7,-1
 900 0 l 1,8,-1
 1000 100 l 1,9,-1
 1000 700 l 1,10,-1
 900 800 l 1,11,-1
 600 800 l 1,12,-1
 600 0 l 1,13,-1
 400 0 l 1,0,-1
EndSplineSet
EndChar

StartChar: Amacron
Encoding: 256 256 428
Width: 1600
GlyphClass: 2
Flags: W
LayerCount: 2
Fore
SplineSet
200 0 m 1,0,-1
 700 1000 l 1,1,-1
 900 1000 l 1,2,-1
 1400 0 l 1,3,-1
 1180 0 l 1,4,-1
 1085 200 l 1,5,-1
 515 200 l 1,6,-1
 420 0 l 1,7,-1
 200 0 l 1,0,-1
500 1200 m 1,8,-1
 500 1400 l 1,9,-1
 1100 1400 l 1,10,-1
 1100 1200 l 1,11,-1
 500 1200 l 1,8,-1
610 400 m 1,12,-1
 990 400 l 1,13,-1
 800 800 l 1,14,-1
 610 400 l 1,12,-1
EndSplineSet
EndChar

